<svg xmlns="http://www.w3.org/2000/svg" viewBox="0 0 29.81 30"><defs><style>.cls-1{fill:#363a36;}.cls-2{fill:#fff;fill-rule:evenodd;}</style></defs><title>linkedin</title><g id="Capa_2" data-name="Capa 2"><g id="diseño"><path id="_Trazado_" data-name="&lt;Trazado&gt;" class="cls-1" d="M0,2.15A2.18,2.18,0,0,1,2.2,0H27.61a2.18,2.18,0,0,1,2.2,2.15v25.7A2.18,2.18,0,0,1,27.61,30H2.2A2.18,2.18,0,0,1,0,27.85V2.15Z"/><path id="_Trazado_compuesto_" data-name="&lt;Trazado compuesto&gt;" class="cls-2" d="M9,25.11V11.57H4.53V25.11ZM6.79,9.72A2.35,2.35,0,1,0,6.81,5a2.35,2.35,0,1,0,0,4.68Z"/><path id="_Trazado_2" data-name="&lt;Trazado&gt;" class="cls-2" d="M11.53,25.11H16V17.55a3.05,3.05,0,0,1,.15-1.1,2.45,2.45,0,0,1,2.31-1.65c1.63,0,2.28,1.24,2.28,3.07v7.24h4.5V17.35c0-4.17-2.22-6.1-5.18-6.1A4.49,4.49,0,0,0,16,13.53h0v-2h-4.5c.06,1.27,0,13.54,0,13.54Z"/></g></g></svg>