<svg id="Layer_1" data-name="Layer 1" xmlns="http://www.w3.org/2000/svg" viewBox="0 0 31 32"><defs><style>.cls-1{fill:#ed5711;}</style></defs><title>a</title><path class="cls-1" d="M16.62517,14.53125v-.04412c-.00922.01422-.02088.03009-.02985.04412Z"/><path class="cls-1" d="M28.202,1H2.79747A2.17663,2.17663,0,0,0,.59465,3.14954V28.851A2.17653,2.17653,0,0,0,2.79747,31H28.202a2.177,2.177,0,0,0,2.20337-2.149V3.14954A2.1771,2.1771,0,0,0,28.202,1ZM9.63054,26.11286H5.12834V12.56611h4.5022ZM7.37975,10.71729H7.35039a2.34709,2.34709,0,1,1,.0592-4.6814,2.348,2.348,0,1,1-.02984,4.6814ZM25.86693,26.11286H21.36467V18.86554c0-1.82061-.65149-3.06329-2.28125-3.06329a2.4642,2.4642,0,0,0-2.31006,1.64728,3.0844,3.0844,0,0,0-.14819,1.09833v7.565H12.12242s.05914-12.27576,0-13.54675h4.50275v1.921a4.46517,4.46517,0,0,1,4.05768-2.23871c2.96252,0,5.18408,1.93634,5.18408,6.0968Z"/></svg>