<svg xmlns="http://www.w3.org/2000/svg" xmlns:xlink="http://www.w3.org/1999/xlink" viewBox="0 0 178.7 123.09"><defs><style>.cls-1{fill:none;}.cls-2{clip-path:url(#clip-path);}.cls-3{fill:#ed5711;}</style><clipPath id="clip-path"><rect class="cls-1" y="4.2" width="194.57" height="119.12"/></clipPath></defs><title>logo-footer-numerika</title><g id="Capa_2" data-name="Capa 2"><g id="diseño"><g class="cls-2"><path class="cls-3" d="M169.79,20A58.28,58.28,0,0,0,159.68,7.18Q152.34,0,148.23,0c-.71,0-1.42.75-2.13,2.26a2,2,0,0,0,.8,2.4q15,11.56,15,37.92,0,22.22-11.84,32.6-10.11,9-28.34,9-16.89,0-30.07-5-14.12-5.33-32.6-19.43Q32.74,39.39,9.85,4.92C7.8,1.81,5.9.26,4.13.26,1.37.26,0,1,0,2.52V123.09H17c-1.13-14.87-1.7-47.19-1.7-61.49V28.87c0-2.13.49-3.19,1.46-3.19.54,0,1.11.44,1.74,1.33A289.14,289.14,0,0,0,55.09,66.8q19.29,17.69,47.37,29.14a77.8,77.8,0,0,0,29.4,6q21.82,0,34.07-12.25,12.76-12.77,12.77-33.8Q178.7,35.53,169.79,20Z"/></g></g></g></svg>