<svg xmlns="http://www.w3.org/2000/svg" viewBox="0 0 29.7 24.14"><defs><style>.cls-1{fill:#363a36;}</style></defs><title>twitter</title><g id="Capa_2" data-name="Capa 2"><g id="diseño"><path id="_Trazado_" data-name="&lt;Trazado&gt;" class="cls-1" d="M29.7,2.86a12.42,12.42,0,0,1-3.5,1A6.15,6.15,0,0,0,28.88.45,12.31,12.31,0,0,1,25,1.92,6.1,6.1,0,0,0,14.47,6.09a5.75,5.75,0,0,0,.16,1.39A17.28,17.28,0,0,1,2.07,1.12a6,6,0,0,0-.83,3.06A6.1,6.1,0,0,0,4,9.25a6.12,6.12,0,0,1-2.76-.76v.07a6.1,6.1,0,0,0,4.89,6,6.05,6.05,0,0,1-1.6.21,6.15,6.15,0,0,1-1.15-.11A6.1,6.1,0,0,0,9,18.88a12.23,12.23,0,0,1-7.57,2.6A13.94,13.94,0,0,1,0,21.4a17.25,17.25,0,0,0,9.34,2.74c11.21,0,17.34-9.29,17.34-17.34,0-.26,0-.53,0-.79a12.47,12.47,0,0,0,3-3.15"/></g></g></svg>