<svg id="Layer_1" data-name="Layer 1" xmlns="http://www.w3.org/2000/svg" viewBox="0 0 29.81073 32"><defs><style>.cls-1{fill:#ed5711;}</style></defs><title>a</title><path id="_Path_" data-name="&lt;Path&gt;" class="cls-1" d="M29.75475,6.7893a12.18006,12.18006,0,0,1-3.49955.95944,6.11076,6.11076,0,0,0,2.67909-3.371,12.19942,12.19942,0,0,1-3.86916,1.47863,6.09881,6.09881,0,0,0-10.38292,5.55729A17.29807,17.29807,0,0,1,2.12348,5.04748a6.09979,6.09979,0,0,0,1.88567,8.13476,6.06844,6.06844,0,0,1-2.75982-.76213l-.00052.07659a6.09671,6.09671,0,0,0,4.88768,5.97459,6.10841,6.10841,0,0,1-2.75166.10439,6.09937,6.09937,0,0,0,5.69183,4.23154,12.22564,12.22564,0,0,1-7.5672,2.60822A12.40241,12.40241,0,0,1,.056,25.33036a17.24623,17.24623,0,0,0,9.3401,2.73744c11.20741,0,17.336-9.28441,17.336-17.33614q0-.39624-.0176-.78822a12.38348,12.38348,0,0,0,3.0403-3.15414"/></svg>