<svg xmlns="http://www.w3.org/2000/svg" viewBox="0 0 161.71 161.72"><defs><style>.cls-1{opacity:0.4;}.cls-2,.cls-3,.cls-4{fill:#6a798c;stroke:#363a3f;stroke-miterlimit:10;stroke-width:2px;}.cls-2{opacity:0.5;}.cls-3{opacity:0.3;}.cls-4{opacity:0.65;}</style></defs><title>card6</title><g id="Capa_2" data-name="Capa 2"><g id="diseño"><g class="cls-1"><path class="cls-2" d="M2.25,96.33a74.88,74.88,0,0,0,1.9,7.61,77.7,77.7,0,0,0,6,14.49c1.23,2.31,2.58,4.55,4,6.75a77,77,0,0,0,4.68,6.29,77.75,77.75,0,0,0,5.27,5.82Q27,140.1,30,142.56a77.88,77.88,0,0,0,6.3,4.69l12.08-18.08c-1.57-1.06-3.11-2.2-4.59-3.42s-2.87-2.48-4.23-3.84a56.38,56.38,0,0,1-3.84-4.23q-1.83-2.24-3.41-4.59a54.55,54.55,0,0,1-3-4.91A58.44,58.44,0,0,1,25,97.63c-.55-1.83-1-3.68-1.38-5.53s-.65-3.77-.84-5.67L1.09,88.56A78.26,78.26,0,0,0,2.25,96.33Z"/><path class="cls-3" d="M86.42,22.74c1.9.19,3.78.46,5.67.84s3.71.82,5.53,1.37,3.62,1.2,5.39,1.94a52.77,52.77,0,0,1,5.16,2.44,54.55,54.55,0,0,1,4.91,3,53.31,53.31,0,0,1,4.59,3.4,56.72,56.72,0,0,1,4.24,3.84q2,2,3.84,4.23c1.21,1.49,2.36,3,3.41,4.6a54.28,54.28,0,0,1,2.94,4.9,53,53,0,0,1,2.45,5.17l20.08-8.32A74.26,74.26,0,0,0,151.27,43c-1.22-2.29-2.57-4.53-4-6.72a77.88,77.88,0,0,0-4.69-6.3q-2.46-3-5.27-5.82a77.75,77.75,0,0,0-5.82-5.27,77,77,0,0,0-6.29-4.68,76.17,76.17,0,0,0-6.75-4,77,77,0,0,0-14.49-6,74.27,74.27,0,0,0-7.61-1.91c-2.57-.52-5.16-.9-7.76-1.16Z"/><path class="cls-3" d="M136.47,63.8a55,55,0,0,1,1.38,5.56,56.55,56.55,0,0,1,.83,5.65,57.15,57.15,0,0,1,.28,5.71c0,1.9-.09,3.81-.28,5.71s-.46,3.78-.82,5.66-.83,3.72-1.39,5.54l20.8,6.31a74.45,74.45,0,0,0,1.91-7.62q.76-3.85,1.14-7.76c.26-2.61.39-5.23.39-7.84s-.13-5.23-.39-7.84a77.57,77.57,0,0,0-1.14-7.76,80.34,80.34,0,0,0-4.55-15l-20.08,8.32C135.28,60.19,135.92,62,136.47,63.8Z"/><path class="cls-3" d="M136.47,97.63l20.8,6.31a74.12,74.12,0,0,1-2.64,7.4L134.55,103A55.78,55.78,0,0,0,136.47,97.63Z"/><path class="cls-2" d="M36.26,147.25a79.65,79.65,0,0,0,13.83,7.4,76.46,76.46,0,0,0,7.39,2.63,75.3,75.3,0,0,0,7.63,1.91c2.56.51,5.17.89,7.76,1.15s5.23.38,7.84.38,5.24-.14,7.85-.38,5.19-.65,7.76-1.16a77.11,77.11,0,0,0,7.62-1.9,78.55,78.55,0,0,0,7.4-2.65,71.51,71.51,0,0,0,7.09-3.35,76,76,0,0,0,6.74-4c2.15-1.44,4.25-3,6.29-4.68s3.95-3.41,5.82-5.28,3.63-3.81,5.27-5.81a75.46,75.46,0,0,0,4.68-6.3,72.45,72.45,0,0,0,4.05-6.74,73.83,73.83,0,0,0,3.35-7.09L134.55,103a54,54,0,0,1-2.45,5.16,52.93,52.93,0,0,1-2.94,4.9,55.76,55.76,0,0,1-3.41,4.6,56.38,56.38,0,0,1-3.84,4.23,54.76,54.76,0,0,1-4.24,3.85,55.49,55.49,0,0,1-4.59,3.4,54.55,54.55,0,0,1-4.91,3,52.77,52.77,0,0,1-5.16,2.44,55.67,55.67,0,0,1-5.38,1.93q-2.75.83-5.54,1.38c-1.89.37-3.77.65-5.67.83s-3.81.28-5.71.28-3.8-.09-5.7-.28a58.33,58.33,0,0,1-11.21-2.21,54.73,54.73,0,0,1-5.38-1.93,56.76,56.76,0,0,1-5.18-2.44,55.71,55.71,0,0,1-4.9-2.94Z"/><path class="cls-2" d="M43.78,125.72a55.61,55.61,0,0,0,4.59,3.41l10.74-16.07A33.39,33.39,0,0,1,56,110.78a37.58,37.58,0,0,1-2.83-2.56L39.55,121.88Q41.59,123.92,43.78,125.72Z"/><path class="cls-3" d="M48.37,129.13c1.59,1.06,3.22,2.05,4.89,2.94s3.42,1.72,5.17,2.45l7.4-17.86a37,37,0,0,1-6.72-3.6Z"/><path class="cls-4" d="M110.77,56.05a33.39,33.39,0,0,1,2.28,3.07,35.18,35.18,0,0,1,2,3.26,36.17,36.17,0,0,1,1.64,3.45h0a35,35,0,0,1,1.29,3.6,35.7,35.7,0,0,1,.92,3.7,39.27,39.27,0,0,1,.75,7.59,37.53,37.53,0,0,1-.19,3.81,36.43,36.43,0,0,1-.56,3.77,35.89,35.89,0,0,1-.92,3.71,34.86,34.86,0,0,1-1.29,3.59h0A37.36,37.36,0,0,1,115,99.06a35.18,35.18,0,0,1-2,3.26,32,32,0,0,1-2.28,3.06,36.92,36.92,0,0,1-5.4,5.4,33,33,0,0,1-3.05,2.27,38.24,38.24,0,0,1-6.71,3.6h0A35.66,35.66,0,0,1,92,117.93a38.92,38.92,0,0,1-7.48,1.49,37.64,37.64,0,0,1-3.81.18h0a37.1,37.1,0,0,1-3.81-.18c-1.26-.12-2.52-.31-3.78-.55s-2.48-.56-3.7-.93-2.4-.79-3.59-1.28l-7.4,17.86c1.77.72,3.57,1.37,5.38,1.92s3.68,1,5.55,1.38a56,56,0,0,0,11.35,1.1h0q2.85,0,5.7-.27a56.61,56.61,0,0,0,5.65-.85A56.78,56.78,0,0,0,103,134.5h0a52.6,52.6,0,0,0,5.15-2.44,56,56,0,0,0,4.91-2.95,54.76,54.76,0,0,0,4.58-3.4,56.58,56.58,0,0,0,4.23-3.84q2-2,3.84-4.23a55.61,55.61,0,0,0,3.41-4.59c1.06-1.59,2-3.22,2.94-4.89s1.72-3.41,2.45-5.16h0a56.78,56.78,0,0,0,3.31-10.93q.56-2.8.84-5.65t.27-5.7c0-1.9-.09-3.81-.27-5.71s-.47-3.77-.84-5.64a55.53,55.53,0,0,0-1.38-5.55,54.73,54.73,0,0,0-1.93-5.38h0c-.73-1.75-1.54-3.47-2.45-5.16s-1.88-3.3-2.94-4.89a55.61,55.61,0,0,0-3.41-4.59q-1.8-2.19-3.84-4.23L108.21,53.22A37.58,37.58,0,0,1,110.77,56.05Z"/><path class="cls-4" d="M35.71,43.79Q33.88,46,32.3,48.37t-2.94,4.9c-.91,1.7-1.72,3.42-2.45,5.17S25.55,62,25,63.81a56.22,56.22,0,0,0-1.38,5.55A57,57,0,0,0,22.78,75c-.19,1.9-.28,3.8-.28,5.7h0a57.16,57.16,0,0,0,1.11,11.36q.55,2.79,1.37,5.54c.55,1.82,1.2,3.61,1.92,5.38s1.54,3.47,2.45,5.16a55.87,55.87,0,0,0,2.94,4.91,52.76,52.76,0,0,0,3.41,4.58,56.58,56.58,0,0,0,3.84,4.23l13.66-13.66a36.18,36.18,0,0,1-2.57-2.84,34.93,34.93,0,0,1-2.27-3c-.71-1.07-1.37-2.16-2-3.27h0a36.29,36.29,0,0,1-1.64-3.45c-.49-1.18-.91-2.37-1.28-3.59a37,37,0,0,1-.92-3.7A33.73,33.73,0,0,1,42,84.53a34.59,34.59,0,0,1-.19-3.81h0A37.38,37.38,0,0,1,42,76.9a36.43,36.43,0,0,1,.56-3.77,35.08,35.08,0,0,1,.92-3.7c.37-1.22.79-2.41,1.28-3.6a36.17,36.17,0,0,1,1.64-3.45h0c.6-1.11,1.26-2.21,2-3.27a35.07,35.07,0,0,1,2.27-3.06c.8-1,1.66-1.92,2.57-2.84s1.86-1.76,2.83-2.55a31.65,31.65,0,0,1,3.07-2.28,37,37,0,0,1,6.72-3.6,37.6,37.6,0,0,1,3.59-1.29,36.35,36.35,0,0,1,3.7-.92,39.27,39.27,0,0,1,7.59-.75,37.59,37.59,0,0,1,3.82.2,36.43,36.43,0,0,1,3.77.56,38.06,38.06,0,0,1,7.3,2.21h0c1.16.49,2.31,1,3.44,1.63s2.2,1.26,3.27,2a33.13,33.13,0,0,1,3.05,2.28,36.05,36.05,0,0,1,2.84,2.56l13.66-13.66a56.58,56.58,0,0,0-4.23-3.84q-2.22-1.83-4.58-3.41a55.87,55.87,0,0,0-4.91-2.94A53.92,53.92,0,0,0,103,26.92h0A55.86,55.86,0,0,0,97.61,25a55.3,55.3,0,0,0-5.54-1.37,54.24,54.24,0,0,0-5.65-.85c-1.9-.18-3.81-.28-5.71-.28s-3.81.09-5.7.28a56.58,56.58,0,0,0-5.65.84q-2.81.55-5.55,1.38a56.57,56.57,0,0,0-5.38,1.92c-1.75.73-3.48,1.54-5.17,2.45a58.53,58.53,0,0,0-9.48,6.35c-1.46,1.2-2.87,2.47-4.23,3.83S36.91,42.33,35.71,43.79Z"/></g></g></g></svg>