<svg xmlns="http://www.w3.org/2000/svg" viewBox="0 0 162 160.65"><defs><style>.cls-1{opacity:0.4;}.cls-2,.cls-3,.cls-4{fill:#6a798c;stroke:#363a3f;stroke-miterlimit:10;stroke-width:2px;}.cls-2{opacity:0.65;}.cls-3{opacity:0.3;}.cls-4{opacity:0.5;}</style></defs><title>card3</title><g id="Capa_2" data-name="Capa 2"><g id="diseño"><g class="cls-1"><path class="cls-2" d="M160.62,71.81a75.92,75.92,0,0,0-1.15-7.76,74,74,0,0,0-1.9-7.63c-.77-2.52-1.64-5-2.64-7.39s-2.13-4.79-3.37-7.09a72.63,72.63,0,0,0-4-6.73,75.68,75.68,0,0,0-4.68-6.31q-2.49-3-5.27-5.82t-5.82-5.27L118,34.61c1.47,1.21,2.89,2.5,4.23,3.84s2.63,2.77,3.85,4.24,2.34,3,3.4,4.6a56.2,56.2,0,0,1,2.94,4.9,54.39,54.39,0,0,1,2.45,5.17,55.23,55.23,0,0,1,1.92,5.37,54.39,54.39,0,0,1,1.38,5.56,55.33,55.33,0,0,1,.85,5.65c.18,1.88.27,3.78.27,5.71s-.09,3.84-.27,5.71a55.52,55.52,0,0,1-.85,5.66,51.54,51.54,0,0,1-1.38,5.54,54.67,54.67,0,0,1-1.92,5.39,55.58,55.58,0,0,1-2.45,5.17c-.9,1.68-1.88,3.32-2.94,4.9s-2.21,3.13-3.41,4.6a56.84,56.84,0,0,1-3.84,4.22,54.86,54.86,0,0,1-4.23,3.84l13.79,16.82c2-1.67,4-3.44,5.82-5.28s3.61-3.79,5.27-5.81a76.26,76.26,0,0,0,4.68-6.31,74.9,74.9,0,0,0,4-6.73,78,78,0,0,0,3.37-7.09,79.92,79.92,0,0,0,4.54-15,73.43,73.43,0,0,0,1.15-7.77c.25-2.57.38-5.19.38-7.84S160.87,74.39,160.62,71.81Z"/><path class="cls-3" d="M118,124.68c-1.48,1.21-3,2.35-4.6,3.42s-3.21,2-4.89,2.94-3.41,1.71-5.18,2.45a59.59,59.59,0,0,1-16.58,4.15c-1.88.18-3.78.27-5.72.27s-3.82-.09-5.7-.27a55.94,55.94,0,0,1-5.66-.85,54.82,54.82,0,0,1-5.55-1.37c-1.83-.56-3.63-1.2-5.38-1.93l-8.32,20.08a75.64,75.64,0,0,0,7.4,2.65,76.92,76.92,0,0,0,7.61,1.9,75.69,75.69,0,0,0,7.77,1.14,79,79,0,0,0,15.68,0,75.91,75.91,0,0,0,7.76-1.14,73.8,73.8,0,0,0,7.62-1.91,72,72,0,0,0,7.39-2.64,73.17,73.17,0,0,0,7.1-3.37,74.8,74.8,0,0,0,6.73-4c2.18-1.46,4.28-3,6.31-4.67Z"/><path class="cls-3" d="M29.61,107.12,10.44,117.37a78.18,78.18,0,0,1-3.37-7.1L27.16,102A55.58,55.58,0,0,0,29.61,107.12Z"/><path class="cls-4" d="M65.39,1.17q-3.9.78-7.62,1.9a78.34,78.34,0,0,0-7.4,2.65c-2.42,1-4.79,2.13-7.09,3.36a77.41,77.41,0,0,0-6.73,4.05,76.26,76.26,0,0,0-6.31,4.68q-3,2.49-5.81,5.27T19.15,28.9a77.86,77.86,0,0,0-4.67,6.31,72.63,72.63,0,0,0-4,6.73Q8.58,45.41,7.07,49a74.48,74.48,0,0,0-2.64,7.39,73.77,73.77,0,0,0-1.9,7.62,75.92,75.92,0,0,0-1.15,7.76C1.13,74.39,1,77,1,79.65s.13,5.27.38,7.84a73.43,73.43,0,0,0,1.15,7.77,79.53,79.53,0,0,0,4.54,15L27.16,102a54.67,54.67,0,0,1-1.92-5.39A54.05,54.05,0,0,1,23.85,91c-.37-1.86-.65-3.74-.84-5.66a60.51,60.51,0,0,1,0-11.42c.19-1.91.47-3.8.84-5.65a57.18,57.18,0,0,1,1.39-5.56,55.23,55.23,0,0,1,1.92-5.37,54.39,54.39,0,0,1,2.45-5.17,56.2,56.2,0,0,1,2.94-4.9c1.07-1.6,2.21-3.12,3.41-4.6s2.5-2.89,3.85-4.24,2.75-2.62,4.22-3.83a57,57,0,0,1,4.6-3.41,54.75,54.75,0,0,1,4.9-2.94,49.91,49.91,0,0,1,5.17-2.45,55.47,55.47,0,0,1,5.38-1.93c1.82-.55,3.67-1,5.55-1.39Z"/><path class="cls-3" d="M75.29,21.71a55.3,55.3,0,0,0-5.65.83l3.77,19A35.64,35.64,0,0,1,77.18,41,37,37,0,0,1,81,40.76V21.43C79.07,21.43,77.17,21.53,75.29,21.71Z"/><path class="cls-2" d="M138.94,73.94a54.71,54.71,0,0,0-.84-5.64,56.24,56.24,0,0,0-1.38-5.55q-.84-2.76-1.93-5.38A58.84,58.84,0,0,0,126,42.72q-1.81-2.2-3.83-4.23h0q-2-2-4.23-3.84a55.1,55.1,0,0,0-4.59-3.41q-2.37-1.57-4.89-2.94c-1.68-.9-3.41-1.71-5.17-2.45s-3.54-1.36-5.38-1.92-3.66-1-5.55-1.39a54.7,54.7,0,0,0-5.64-.83c-1.88-.18-3.79-.28-5.72-.28V40.76a37.21,37.21,0,0,1,3.83.19,35.45,35.45,0,0,1,3.76.55c1.26.25,2.5.56,3.71.92h0a35,35,0,0,1,3.6,1.28c1.18.49,2.32,1,3.44,1.64a37.2,37.2,0,0,1,3.27,2,33.73,33.73,0,0,1,3.06,2.28,34.51,34.51,0,0,1,2.83,2.57h0A36.15,36.15,0,0,1,111.06,55a38.65,38.65,0,0,1,4.24,6.34c.6,1.12,1.14,2.26,1.64,3.44a36.57,36.57,0,0,1,1.28,3.6h0c.36,1.21.67,2.44.92,3.7a36,36,0,0,1,.55,3.77,38.4,38.4,0,0,1,0,7.63,35.45,35.45,0,0,1-.55,3.78c-.25,1.26-.56,2.5-.92,3.71s-.8,2.43-1.29,3.59-1,2.33-1.64,3.45-1.25,2.21-2,3.27a35.72,35.72,0,0,1-2.28,3.06,36.3,36.3,0,0,1-2.56,2.83,34.53,34.53,0,0,1-2.84,2.56A38,38,0,0,1,102.6,112a37.2,37.2,0,0,1-3.27,2,33.1,33.1,0,0,1-3.46,1.63h0a36.22,36.22,0,0,1-7.29,2.2,33.06,33.06,0,0,1-3.76.56,37.21,37.21,0,0,1-3.83.19v19.32a56.91,56.91,0,0,0,5.72-.28,52.1,52.1,0,0,0,5.64-.83,53.59,53.59,0,0,0,5.55-1.39,52.65,52.65,0,0,0,5.37-1.91h0a56.91,56.91,0,0,0,5.18-2.44,61.19,61.19,0,0,0,9.48-6.34c1.47-1.22,2.89-2.5,4.24-3.85s2.62-2.75,3.83-4.22,2.35-3,3.4-4.59,2-3.22,2.95-4.9a56.55,56.55,0,0,0,2.44-5.16c.73-1.76,1.37-3.55,1.93-5.39A56.75,56.75,0,0,0,138.1,91a55.92,55.92,0,0,0,.84-5.66q.27-2.8.27-5.7C139.21,77.73,139.12,75.82,138.94,73.94Z"/></g></g></g></svg>