<svg xmlns="http://www.w3.org/2000/svg" viewBox="0 0 170.05 162.45"><defs><style>.cls-1,.cls-4{opacity:0.4;}.cls-2,.cls-3,.cls-4,.cls-5{fill:#6a798c;stroke:#363a3f;stroke-miterlimit:10;stroke-width:2.18px;}.cls-2{opacity:0.15;}.cls-3{opacity:0.6;}</style></defs><title>card2</title><g id="Capa_2" data-name="Capa 2"><g id="diseño"><g class="cls-1"><path class="cls-2" d="M19.36,27.74a77,77,0,0,0-4.78,6.43,75.82,75.82,0,0,0-4.15,6.89C9.17,43.43,8,45.85,7,48.31a76.2,76.2,0,0,0-2.69,7.55,77.12,77.12,0,0,0-1.95,7.79c-.52,2.62-.92,5.27-1.18,7.94l17.49,1.72c.21-2.09.51-4.17.92-6.24S20.52,63,21.13,61A61.83,61.83,0,0,1,23.25,55a65.71,65.71,0,0,1,5.94-11.09c1.15-1.73,2.41-3.42,3.75-5.06a61.7,61.7,0,0,1,4.24-4.66L24.75,21.79A79.28,79.28,0,0,0,19.36,27.74Z"/><path class="cls-3" d="M37.18,34.22A61.43,61.43,0,0,1,41.83,30c1.65-1.35,3.33-2.6,5.07-3.76A57.14,57.14,0,0,1,52.3,23a62.9,62.9,0,0,1,11.63-4.82L58.82,1.36a74.6,74.6,0,0,0-7.55,2.69A78.62,78.62,0,0,0,44,7.48a77,77,0,0,0-6.88,4.14,75.08,75.08,0,0,0-6.44,4.79,78.8,78.8,0,0,0-5.94,5.38Z"/><path class="cls-4" d="M144,98.24a61.65,61.65,0,0,1-2.12,5.93,59.06,59.06,0,0,1-2.7,5.69,57.14,57.14,0,0,1-3.24,5.4,62.63,62.63,0,0,1-3.76,5.07c-1.31,1.6-2.73,3.16-4.22,4.66s-3.06,2.91-4.67,4.23a60.65,60.65,0,0,1-5.06,3.75,59.6,59.6,0,0,1-5.41,3.25l8.3,15.49a76.84,76.84,0,0,0,6.88-4.13c2.2-1.47,4.35-3.07,6.43-4.78s4-3.48,6-5.39,3.71-3.9,5.38-5.94a81.19,81.19,0,0,0,8.92-13.32,75,75,0,0,0,3.43-7.26,77.2,77.2,0,0,0,2.7-7.55,78.43,78.43,0,0,0,1.94-7.79l-17.22-3.42C145.1,94.18,144.6,96.22,144,98.24Z"/><path class="cls-2" d="M66.61,159.79c2.62.52,5.28.92,7.94,1.18s5.34.39,8,.39,5.36-.14,8-.39,5.3-.66,7.93-1.19a74.49,74.49,0,0,0,7.79-1.94,78,78,0,0,0,7.55-2.7,75,75,0,0,0,7.26-3.43l-8.3-15.49a57.71,57.71,0,0,1-5.68,2.69A61.65,61.65,0,0,1,101.2,141c-2,.61-4,1.12-6.11,1.53s-4.15.71-6.24.92-4.2.31-6.3.31A65.12,65.12,0,0,1,70,142.56Z"/><path class="cls-3" d="M13,22.51A85,85,0,0,0,7.72,29.6l6.86,4.57a77,77,0,0,1,4.78-6.43A81.24,81.24,0,0,1,30.69,16.41L25.46,10A86.63,86.63,0,0,0,18.92,16,84.67,84.67,0,0,0,13,22.51Z"/><g class="cls-1"><path class="cls-5" d="M154.67,41.05a80,80,0,0,1,3.43,7.26,76.45,76.45,0,0,1,2.7,7.56l7.89-2.4c-.85-2.81-1.83-5.58-3-8.32s-2.39-5.37-3.79-8a81.48,81.48,0,0,0-4.54-7.57l-6.86,4.58A77.63,77.63,0,0,1,154.67,41.05Z"/></g><path class="cls-3" d="M124.61,88l20.89,4.16A61.26,61.26,0,0,1,144,98.23l-20.4-6.18A40.77,40.77,0,0,0,124.61,88Z"/><path class="cls-3" d="M63.92,141c2,.61,4.06,1.12,6.12,1.53s4.14.71,6.23.92a62.57,62.57,0,0,0,6.28.29h0q3.15,0,6.29-.3c2.09-.21,4.16-.52,6.23-.93a58.67,58.67,0,0,0,6.11-1.53,54.33,54.33,0,0,0,5.93-2.12h0a62.52,62.52,0,0,0,5.68-2.69q2.76-1.49,5.41-3.25a59.94,59.94,0,0,0,5-3.75c1.6-1.32,3.17-2.74,4.66-4.24a61.75,61.75,0,0,0,4.23-4.66,60.78,60.78,0,0,0,3.76-5.06c1.17-1.75,2.26-3.55,3.25-5.39s1.89-3.76,2.69-5.69h0A59.84,59.84,0,0,0,144,98.23l-20.4-6.18a37.29,37.29,0,0,1-1.41,4h0c-.54,1.28-1.14,2.55-1.81,3.8s-1.37,2.42-2.16,3.59a37,37,0,0,1-2.52,3.38,39.31,39.31,0,0,1-2.82,3.12,45,45,0,0,1-6.49,5.34c-1.18.79-2.38,1.51-3.61,2.17s-2.51,1.26-3.79,1.8h0a43.12,43.12,0,0,1-8,2.43,38.62,38.62,0,0,1-4.16.62q-2.1.21-4.2.21h0a39.05,39.05,0,0,1-4.19-.2,41.89,41.89,0,0,1-4.17-.61,41.18,41.18,0,0,1-4.08-1Z"/><path class="cls-4" d="M55.36,46.46A36.46,36.46,0,0,1,58.74,44a40.45,40.45,0,0,1,3.6-2.17A38.78,38.78,0,0,1,66.15,40q2-.81,4-1.41a40.54,40.54,0,0,1,4.08-1c1.37-.27,2.76-.48,4.16-.62s2.81-.2,4.2-.2a39.3,39.3,0,0,1,4.21.21,41.29,41.29,0,0,1,4.16.62,40.5,40.5,0,0,1,4.08,1A37.58,37.58,0,0,1,99,40h0c1.28.53,2.54,1.13,3.79,1.8A40.6,40.6,0,0,1,106.38,44l11.84-17.72q-2.66-1.77-5.41-3.24a61.37,61.37,0,0,0-5.68-2.7h0a60,60,0,0,0-5.94-2.13,57.78,57.78,0,0,0-6.1-1.51,60.45,60.45,0,0,0-6.23-.94c-2.09-.2-4.2-.3-6.3-.3s-4.19.1-6.28.3a62.39,62.39,0,0,0-6.23.93c-2.06.41-4.09.91-6.12,1.52S60,19.49,58,20.29,54.16,22,52.3,23s-3.64,2.06-5.4,3.23S43.47,28.65,41.84,30Z"/><path class="cls-4" d="M125.22,83.8l21.21,2.09c-.21,2.09-.52,4.16-.93,6.23L124.61,88A41.27,41.27,0,0,0,125.22,83.8Z"/><path class="cls-2" d="M33,38.89a60.06,60.06,0,0,0-3.76,5A60.89,60.89,0,0,0,26,49.35,62.79,62.79,0,0,0,23.25,55c-.79,2-1.5,3.92-2.11,5.92a66.19,66.19,0,0,0-2.45,12.35c-.2,2.09-.3,4.19-.3,6.28h0c0,2.11.1,4.2.3,6.29a60,60,0,0,0,.93,6.23L40.51,88a41.05,41.05,0,0,1-.61-4.17,39.11,39.11,0,0,1-.2-4.2h0a39.64,39.64,0,0,1,.21-4.2,41.27,41.27,0,0,1,.61-4.16,40.54,40.54,0,0,1,1-4.08,41.52,41.52,0,0,1,1.41-4,35.62,35.62,0,0,1,1.81-3.8h0a40.45,40.45,0,0,1,2.17-3.6,38.1,38.1,0,0,1,2.5-3.37c.89-1.08,1.83-2.12,2.83-3.13s2-1.94,3.12-2.82L41.84,30c-1.6,1.33-3.16,2.73-4.66,4.23S34.27,37.28,33,38.89Z"/><path class="cls-2" d="M106.38,44a36.22,36.22,0,0,1,3.37,2.5,39.45,39.45,0,0,1,3.12,2.83,41.14,41.14,0,0,1,2.82,3.12,37,37,0,0,1,2.52,3.38c.79,1.17,1.5,2.37,2.16,3.59s1.27,2.52,1.81,3.81h0a38.1,38.1,0,0,1,1.41,4,40.77,40.77,0,0,1,1,4.09,41.27,41.27,0,0,1,.61,4.16c.14,1.41.21,2.8.21,4.2s-.07,2.8-.21,4.2l21.21,2.09q.3-3.14.3-6.29c0-2.1-.1-4.19-.3-6.29s-.52-4.16-.93-6.22A62.19,62.19,0,0,0,141.85,55h0a62.7,62.7,0,0,0-2.69-5.69c-1-1.84-2.08-3.64-3.25-5.39a60.78,60.78,0,0,0-3.76-5.06q-2-2.41-4.23-4.66c-1.49-1.5-3.06-2.91-4.66-4.23a60.06,60.06,0,0,0-5-3.76Z"/><path class="cls-4" d="M21.13,98.23q.91,3,2.12,5.93a62.79,62.79,0,0,0,2.7,5.69,60.89,60.89,0,0,0,3.24,5.41,60.06,60.06,0,0,0,3.76,5q2,2.41,4.23,4.67c1.5,1.5,3.06,2.91,4.66,4.23A60.78,60.78,0,0,0,46.9,133c1.76,1.17,3.55,2.25,5.4,3.24s3.76,1.89,5.7,2.7,3.93,1.51,5.92,2.11l6.19-20.38c-1.33-.41-2.65-.88-4-1.42a41.12,41.12,0,0,1-3.81-1.79,40.56,40.56,0,0,1-3.6-2.18,36.46,36.46,0,0,1-3.38-2.51,41.14,41.14,0,0,1-3.12-2.82c-1-1-1.94-2-2.83-3.13a36.69,36.69,0,0,1-2.5-3.37,40.45,40.45,0,0,1-2.17-3.6h0A36.66,36.66,0,0,1,42.94,96a43.32,43.32,0,0,1-2.43-8L19.62,92.12Q20.24,95.21,21.13,98.23Z"/></g></g></g></svg>