<svg xmlns="http://www.w3.org/2000/svg" viewBox="0 0 162 162"><defs><style>.cls-1{opacity:0.4;}.cls-2,.cls-3,.cls-4,.cls-5{fill:#6a798c;stroke:#363a3f;stroke-miterlimit:10;stroke-width:2px;}.cls-2{opacity:0.5;}.cls-3{opacity:0.65;}.cls-4{opacity:0.3;}.cls-5{opacity:0.2;}</style></defs><title>card1</title><g id="Capa_2" data-name="Capa 2"><g id="diseño"><g class="cls-1"><path class="cls-2" d="M125.44,14.48a74.64,74.64,0,0,0-6.72-4,78.26,78.26,0,0,0-7.1-3.38,81.33,81.33,0,0,0-15-4.54,75.92,75.92,0,0,0-7.76-1.15Q85,1,81,1c-2.64,0-5.26.13-7.83.38a75.7,75.7,0,0,0-7.77,1.15l4.24,21.33q2.79-.55,5.66-.84t5.7-.27c1.94,0,3.84.09,5.72.27s3.8.47,5.65.84a55,55,0,0,1,5.56,1.38q2.74.84,5.37,1.92t5.18,2.46c1.68.9,3.32,1.88,4.89,2.93s3.12,2.21,4.6,3.41l13.79-16.8A77.37,77.37,0,0,0,125.44,14.48Z"/><path class="cls-3" d="M160.62,73.16a75.92,75.92,0,0,0-1.15-7.76,74.6,74.6,0,0,0-1.9-7.63c-.77-2.52-1.64-5-2.64-7.39s-2.13-4.79-3.37-7.09a74,74,0,0,0-4-6.73,77.37,77.37,0,0,0-4.68-6.31q-2.49-3-5.27-5.82t-5.82-5.27L118,36a57.12,57.12,0,0,1,4.23,3.85c1.35,1.34,2.63,2.76,3.85,4.23s2.34,3,3.4,4.6,2,3.22,2.94,4.9,1.71,3.4,2.45,5.17A59.59,59.59,0,0,1,139,75.29c.18,1.88.27,3.78.27,5.72s-.09,3.83-.27,5.7a55.52,55.52,0,0,1-.85,5.66,52.31,52.31,0,0,1-1.38,5.55,55.41,55.41,0,0,1-1.92,5.38,57,57,0,0,1-2.45,5.17c-.9,1.68-1.88,3.32-2.94,4.9s-2.21,3.13-3.41,4.6A60.73,60.73,0,0,1,118,126l13.79,16.81q3-2.5,5.82-5.28t5.27-5.81a76.26,76.26,0,0,0,4.68-6.31,74.9,74.9,0,0,0,4-6.73,78,78,0,0,0,3.37-7.09,79.92,79.92,0,0,0,4.54-15,73.43,73.43,0,0,0,1.15-7.77c.25-2.57.38-5.19.38-7.83S160.87,75.74,160.62,73.16Z"/><path class="cls-4" d="M118,126c-1.48,1.2-3,2.34-4.6,3.41s-3.21,2-4.89,2.94a57,57,0,0,1-5.18,2.45,55.23,55.23,0,0,1-5.37,1.92c-1.82.55-3.68,1-5.56,1.39s-3.74.65-5.65.84-3.78.27-5.72.27-3.82-.09-5.7-.27-3.8-.47-5.66-.84-3.73-.83-5.55-1.38-3.63-1.2-5.38-1.93l-8.32,20.09a75.58,75.58,0,0,0,7.4,2.64,76.92,76.92,0,0,0,7.61,1.9,75.7,75.7,0,0,0,7.77,1.15c2.57.25,5.19.38,7.83.38s5.27-.13,7.85-.38a75.92,75.92,0,0,0,7.76-1.15,73.8,73.8,0,0,0,7.62-1.91,72,72,0,0,0,7.39-2.63,75.67,75.67,0,0,0,7.1-3.38,72.54,72.54,0,0,0,6.73-4q3.27-2.18,6.31-4.67Z"/><path class="cls-5" d="M65.39,2.53a79.92,79.92,0,0,0-15,4.54c-2.42,1-4.79,2.13-7.09,3.37a74.9,74.9,0,0,0-6.73,4,76.26,76.26,0,0,0-6.31,4.68q-3,2.49-5.81,5.27t-5.28,5.82q-2.49,3-4.67,6.31a74,74,0,0,0-4,6.73q-1.86,3.47-3.37,7.1a79.53,79.53,0,0,0-4.54,15,75.92,75.92,0,0,0-1.15,7.76C1.13,75.74,1,78.36,1,81s.13,5.27.38,7.84a73.43,73.43,0,0,0,1.15,7.77,79.53,79.53,0,0,0,4.54,15,78.18,78.18,0,0,0,3.37,7.1l19.17-10.25a54.39,54.39,0,0,1-2.45-5.17h0a58.73,58.73,0,0,1-3.31-10.93c-.37-1.86-.65-3.74-.84-5.66a60.51,60.51,0,0,1,0-11.42c.19-1.91.47-3.8.84-5.65s.84-3.74,1.39-5.56a57.63,57.63,0,0,1,4.37-10.54c.9-1.68,1.88-3.32,2.94-4.9S34.76,45.52,36,44A60.73,60.73,0,0,1,44,36c1.48-1.2,3-2.35,4.6-3.41A58.44,58.44,0,0,1,58.7,27.17c1.75-.73,3.55-1.37,5.38-1.93a54.86,54.86,0,0,1,5.55-1.38Z"/><path class="cls-2" d="M75.29,23.06a55.31,55.31,0,0,0-5.65.84l3.76,19a36.21,36.21,0,0,1,3.78-.55A37,37,0,0,1,81,42.11V22.79Q78.11,22.79,75.29,23.06Z"/><path class="cls-4" d="M69.64,23.9a56.75,56.75,0,0,0-5.54,1.38,55.66,55.66,0,0,0-5.39,1.93L66.1,45.06c1.17-.49,2.37-.91,3.6-1.29s2.45-.67,3.7-.92Z"/><path class="cls-3" d="M77.18,119.7a36.21,36.21,0,0,1-3.78-.55c-1.25-.25-2.48-.56-3.69-.92s-2.43-.8-3.6-1.28h0a33.84,33.84,0,0,1-3.44-1.64c-1.12-.6-2.22-1.25-3.28-2a35.72,35.72,0,0,1-3.06-2.28,38.14,38.14,0,0,1-5.39-5.39,35.72,35.72,0,0,1-2.28-3.06c-.71-1.06-1.36-2.16-2-3.28a33.84,33.84,0,0,1-1.64-3.44h0c-.48-1.17-.9-2.37-1.28-3.6s-.67-2.44-.92-3.7a35.64,35.64,0,0,1-.55-3.77,38.5,38.5,0,0,1,0-7.64,35.45,35.45,0,0,1,.55-3.76c.25-1.26.56-2.5.92-3.71s.8-2.42,1.28-3.59h0a33.84,33.84,0,0,1,1.64-3.44c.6-1.12,1.25-2.22,2-3.28a35.72,35.72,0,0,1,2.28-3.06,34.57,34.57,0,0,1,2.56-2.83h0A32.55,32.55,0,0,1,56.33,51a38.07,38.07,0,0,1,3.06-2.29,37.2,37.2,0,0,1,3.27-2c1.12-.6,2.26-1.14,3.44-1.64L58.71,27.21a55.32,55.32,0,0,0-5.16,2.44Q51,31,48.65,32.6A56.69,56.69,0,0,0,44.06,36q-2.19,1.81-4.22,3.84h0q-2,2-3.84,4.23a60.65,60.65,0,0,0-6.34,9.49,51.86,51.86,0,0,0-2.44,5.17h0a56.93,56.93,0,0,0-1.91,5.37,56.24,56.24,0,0,0-1.38,5.55,54.71,54.71,0,0,0-.84,5.64c-.18,1.88-.27,3.79-.27,5.72s.09,3.82.27,5.7a55.31,55.31,0,0,0,.84,5.65q.55,2.82,1.37,5.54t1.92,5.38h0A59.26,59.26,0,0,0,36,117.94q1.83,2.2,3.84,4.23T44.06,126a56.58,56.58,0,0,0,4.59,3.39,53.92,53.92,0,0,0,4.9,2.95,53.06,53.06,0,0,0,5.17,2.44h0q2.63,1.09,5.38,1.93t5.54,1.37a55.31,55.31,0,0,0,5.65.84q2.82.27,5.7.27V119.89A37,37,0,0,1,77.18,119.7Z"/></g></g></g></svg>