<svg xmlns="http://www.w3.org/2000/svg" viewBox="0 0 162.13 162.13"><defs><style>.cls-1,.cls-6{opacity:0.4;}.cls-2,.cls-3,.cls-4,.cls-5,.cls-6{fill:#6a798c;stroke:#363a3f;stroke-miterlimit:10;stroke-width:2.13px;}.cls-2{opacity:0.2;}.cls-3{opacity:0.6;}.cls-4{opacity:0.7;}.cls-5{opacity:0.5;}</style></defs><title>card5</title><g id="Capa_2" data-name="Capa 2"><g id="diseño"><g class="cls-1"><path class="cls-2" d="M125.51,14.55c-2.17-1.45-4.41-2.81-6.72-4a78.18,78.18,0,0,0-7.1-3.37A77.11,77.11,0,0,0,104.3,4.5c-2.5-.76-5-1.39-7.63-1.91s-5.14-.88-7.76-1.14-5.2-.38-7.85-.38-5.26.13-7.83.38S68,2.08,65.46,2.59s-5.14,1.15-7.63,1.9-5,1.65-7.39,2.65L57,23c1.89-.79,3.84-1.49,5.81-2.09a59.36,59.36,0,0,1,6-1.49c2-.4,4-.69,6.1-.9s4.08-.3,6.15-.3,4.13.1,6.16.3,4.1.5,6.1.9a60,60,0,0,1,6,1.49c2,.6,3.91,1.3,5.8,2.07s3.77,1.68,5.58,2.65,3.58,2,5.28,3.16,3.36,2.38,5,3.68l10.91-13.29Q128.77,16.73,125.51,14.55Z"/><path class="cls-3" d="M151.63,43.36a76.5,76.5,0,0,0-4-6.74c-1.46-2.17-3-4.28-4.68-6.3s-3.43-4-5.27-5.82-3.8-3.61-5.82-5.28L120.91,32.51c1.59,1.31,3.12,2.69,4.57,4.15s2.83,3,4.14,4.56,2.53,3.24,3.67,5,2.2,3.47,3.17,5.28,1.85,3.66,2.64,5.57L155,50.45A74.17,74.17,0,0,0,151.63,43.36Z"/><path class="cls-2" d="M160.68,73.23a75.91,75.91,0,0,0-1.14-7.76,74.78,74.78,0,0,0-1.9-7.64A78,78,0,0,0,155,50.45L139.1,57a58.77,58.77,0,0,1,2.07,5.8,57,57,0,0,1,1.49,6,58,58,0,0,1,.91,6.09q.3,3,.3,6.16c0,2.07-.1,4.13-.3,6.15a58.78,58.78,0,0,1-.91,6.11,54.25,54.25,0,0,1-1.49,6l16.47,5a75.07,75.07,0,0,0,1.9-7.62,73.8,73.8,0,0,0,1.14-7.77,79,79,0,0,0,0-15.68Z"/><path class="cls-4" d="M141.17,99.3a58,58,0,0,1-2.07,5.81,60.41,60.41,0,0,1-2.64,5.57q-1.46,2.73-3.17,5.29c-1.15,1.71-2.38,3.37-3.68,5l13.3,10.91c1.65-2,3.22-4.12,4.68-6.31s2.8-4.42,4-6.73a79.62,79.62,0,0,0,6-14.49Z"/><path class="cls-5" d="M129.61,120.92q-2,2.39-4.13,4.56c-1.45,1.45-3,2.84-4.57,4.14s-3.23,2.53-5,3.68-3.46,2.2-5.28,3.17-3.67,1.85-5.58,2.64L111.68,155a71.9,71.9,0,0,0,7.09-3.37,75,75,0,0,0,6.74-4c2.18-1.46,4.28-3,6.31-4.67s4-3.44,5.82-5.28,3.6-3.79,5.27-5.81Z"/><path class="cls-3" d="M105.1,139.11a62.5,62.5,0,0,1-11.78,3.56,58.59,58.59,0,0,1-6.1.91,63.29,63.29,0,0,1-12.31,0,58.59,58.59,0,0,1-6.1-.91,56.75,56.75,0,0,1-6-1.48A61.71,61.71,0,0,1,57,139.11c-1.91-.79-3.76-1.68-5.57-2.64s-3.59-2-5.28-3.18a61.5,61.5,0,0,1-5-3.67c-1.59-1.3-3.11-2.69-4.56-4.14s-2.84-3-4.15-4.57S30,117.68,28.83,116s-2.2-3.47-3.17-5.29A60.41,60.41,0,0,1,23,105.11,58,58,0,0,1,21,99.3a56.6,56.6,0,0,1-1.49-6,61.59,61.59,0,0,1-.91-6.11c-.2-2-.3-4.08-.3-6.15s.1-4.13.3-6.16a60.76,60.76,0,0,1,.91-6.09L2.59,65.47C2.08,68,1.71,70.6,1.45,73.23s-.38,5.2-.38,7.84.13,5.27.38,7.84a76.51,76.51,0,0,0,1.14,7.77c.51,2.58,1.15,5.13,1.9,7.62a77.16,77.16,0,0,0,2.65,7.39,78.1,78.1,0,0,0,3.36,7.1c1.24,2.31,2.59,4.56,4.05,6.73a77.7,77.7,0,0,0,4.67,6.3q2.51,3,5.28,5.82c1.84,1.84,3.79,3.6,5.82,5.27a78.77,78.77,0,0,0,13,8.72,73.22,73.22,0,0,0,7.1,3.36,79.27,79.27,0,0,0,22.78,5.69,79,79,0,0,0,15.68,0,76.32,76.32,0,0,0,7.76-1.14,74.45,74.45,0,0,0,7.62-1.91,72.88,72.88,0,0,0,7.39-2.64Z"/><path class="cls-5" d="M50.44,7.14a76.67,76.67,0,0,0-7.09,3.36,77.58,77.58,0,0,0-6.74,4.05c-2.17,1.45-4.29,3-6.31,4.67s-4,3.43-5.8,5.28-3.61,3.8-5.29,5.82-3.21,4.13-4.66,6.3a76.6,76.6,0,0,0-4.05,6.74C9.27,45.67,8.14,48,7.14,50.46a77.16,77.16,0,0,0-2.65,7.39c-.75,2.48-1.39,5-1.9,7.62l16.87,3.35a59.55,59.55,0,0,1,1.49-6A58.77,58.77,0,0,1,23,57c.79-1.91,1.67-3.76,2.64-5.57s2-3.57,3.17-5.28,2.38-3.36,3.68-5,2.69-3.11,4.15-4.56,3-2.83,4.55-4.14,3.24-2.54,5-3.68a59.49,59.49,0,0,1,5.28-3.17A56.62,56.62,0,0,1,57,23Z"/><path class="cls-6" d="M139.28,81.07c0,1.92-.1,3.82-.28,5.7a55.91,55.91,0,0,1-.83,5.66A54.05,54.05,0,0,1,136.78,98a55.6,55.6,0,0,1-1.92,5.39c-.73,1.76-1.55,3.49-2.44,5.16s-1.89,3.32-2.95,4.9-2.2,3.11-3.4,4.59a56.84,56.84,0,0,1-3.84,4.22c-1.34,1.35-2.76,2.63-4.23,3.85s-3,2.33-4.59,3.39a55.76,55.76,0,0,1-10.07,5.39h0A52.65,52.65,0,0,1,98,136.78a53.59,53.59,0,0,1-5.55,1.39,55.3,55.3,0,0,1-5.65.83c-1.88.18-3.79.28-5.71.28s-3.82-.1-5.7-.28a55.91,55.91,0,0,1-5.66-.83q-2.81-.55-5.54-1.38a56.38,56.38,0,0,1-5.38-1.92h0a55.32,55.32,0,0,1-5.16-2.44,53.92,53.92,0,0,1-4.9-2.95q-2.38-1.59-4.59-3.39t-4.23-3.85q-2-2-3.84-4.22c-1.21-1.48-2.34-3-3.4-4.59a55.23,55.23,0,0,1-2.94-4.9,56.81,56.81,0,0,1-2.45-5.17h0q-1.08-2.62-1.92-5.38T24,92.43l-4.5.9a56.6,56.6,0,0,0,1.49,6A58,58,0,0,0,23,105.11a60.41,60.41,0,0,0,2.64,5.57c1,1.82,2,3.58,3.17,5.29s2.38,3.36,3.68,4.94,2.69,3.12,4.15,4.57,3,2.84,4.56,4.14a61.5,61.5,0,0,0,5,3.67c1.69,1.14,3.46,2.2,5.28,3.18s3.66,1.85,5.57,2.64a61.71,61.71,0,0,0,5.81,2.08,56.75,56.75,0,0,0,6,1.48,58.59,58.59,0,0,0,6.1.91,63.29,63.29,0,0,0,12.31,0,58.59,58.59,0,0,0,6.1-.91,62.5,62.5,0,0,0,11.78-3.56q2.87-1.19,5.58-2.64c1.82-1,3.58-2,5.28-3.17s3.36-2.38,5-3.68,3.12-2.69,4.57-4.14,2.83-3,4.13-4.56,2.53-3.24,3.68-5,2.2-3.47,3.17-5.29a60.41,60.41,0,0,0,2.64-5.57,58,58,0,0,0,2.07-5.81,54.25,54.25,0,0,0,1.49-6,58.78,58.78,0,0,0,.91-6.11c.2-2,.3-4.08.3-6.15Z"/><path class="cls-4" d="M143.57,74.91a58,58,0,0,0-.91-6.09,57,57,0,0,0-1.49-6A58.77,58.77,0,0,0,139.1,57c-.79-1.91-1.67-3.76-2.64-5.57s-2-3.57-3.17-5.28-2.37-3.36-3.67-5-2.69-3.11-4.14-4.56l-3.25,3.25q2,2,3.84,4.23c1.2,1.47,2.34,3,3.4,4.59a56.3,56.3,0,0,1,2.95,4.9c.89,1.67,1.71,3.39,2.44,5.15a56.38,56.38,0,0,1,1.92,5.38A57.84,57.84,0,0,1,139,75.36c.18,1.88.28,3.79.28,5.71h4.59Q143.87,77.95,143.57,74.91Z"/><path class="cls-2" d="M57,23a56.62,56.62,0,0,0-5.57,2.63,59.49,59.49,0,0,0-5.28,3.17c-1.72,1.14-3.37,2.38-5,3.68s-3.1,2.68-4.55,4.14-2.84,3-4.15,4.56-2.53,3.24-3.68,5-2.2,3.47-3.17,5.28S23.81,55.12,23,57A58.77,58.77,0,0,0,21,62.83a59.55,59.55,0,0,0-1.49,6,60.76,60.76,0,0,0-.91,6.09q-.3,3-.3,6.16c0,2.07.1,4.13.3,6.15a61.59,61.59,0,0,0,.91,6.11l4.5-.9a55.91,55.91,0,0,1-.83-5.66c-.18-1.88-.28-3.78-.28-5.7s.1-3.83.28-5.71A54.7,54.7,0,0,1,24,69.72q.57-2.84,1.39-5.56c.55-1.83,1.19-3.61,1.91-5.36h0a52.05,52.05,0,0,1,2.45-5.17,53.82,53.82,0,0,1,2.94-4.9,56.69,56.69,0,0,1,3.4-4.59q1.83-2.2,3.84-4.23h0q2-2,4.22-3.84a56.81,56.81,0,0,1,4.59-3.41q2.37-1.57,4.9-2.94c1.66-.9,3.39-1.71,5.15-2.45Z"/><path class="cls-5" d="M120.91,32.51c-1.59-1.3-3.23-2.53-5-3.68s-3.46-2.19-5.28-3.16S107,23.81,105.1,23s-3.82-1.47-5.8-2.07a60,60,0,0,0-6-1.49c-2-.4-4-.69-6.1-.9s-4.08-.3-6.16-.3-4.12.1-6.15.3-4.1.5-6.1.9a59.36,59.36,0,0,0-6,1.49c-2,.6-3.92,1.3-5.81,2.09l1.75,4.23c1.77-.72,3.56-1.37,5.39-1.92s3.67-1,5.54-1.39a55.91,55.91,0,0,1,5.66-.83c1.88-.18,3.78-.28,5.7-.28s3.83.1,5.71.28a55.3,55.3,0,0,1,5.65.83q2.83.57,5.55,1.39t5.38,1.92c1.76.74,3.49,1.55,5.17,2.45s3.31,1.89,4.89,2.94a57.53,57.53,0,0,1,8.81,7.25h0l3.25-3.25C124,35.2,122.5,33.82,120.91,32.51Z"/><path class="cls-5" d="M139,75.36a57.84,57.84,0,0,0-2.22-11.2,56.38,56.38,0,0,0-1.92-5.38c-.73-1.76-1.55-3.48-2.44-5.15a56.3,56.3,0,0,0-2.95-4.9c-1.06-1.59-2.2-3.12-3.4-4.59s-2.49-2.88-3.84-4.23h0a57.53,57.53,0,0,0-8.81-7.25c-1.58-1-3.22-2-4.89-2.94s-3.41-1.71-5.17-2.45S99.81,25.91,98,25.35s-3.66-1-5.55-1.39l-3.77,19c1.26.25,2.5.56,3.71.92h0A34.8,34.8,0,0,1,96,45.13a37.61,37.61,0,0,1,3.45,1.64A38,38,0,0,1,105.73,51a36.05,36.05,0,0,1,2.83,2.57h0a36.15,36.15,0,0,1,2.56,2.82c.81,1,1.57,2,2.28,3.07a37,37,0,0,1,2,3.26c.6,1.12,1.14,2.27,1.63,3.45a34.15,34.15,0,0,1,1.28,3.6h0a35.08,35.08,0,0,1,.92,3.7,33.57,33.57,0,0,1,.56,3.77,38.4,38.4,0,0,1,0,7.63,33.75,33.75,0,0,1-.56,3.78,35.26,35.26,0,0,1-.92,3.71A36.44,36.44,0,0,1,117,96a37.54,37.54,0,0,1-1.63,3.45c-.6,1.12-1.25,2.21-2,3.27s-1.47,2.08-2.28,3.06L126.07,118c1.2-1.48,2.34-3,3.4-4.59s2-3.22,2.95-4.9,1.71-3.4,2.44-5.16A55.6,55.6,0,0,0,136.78,98a54.05,54.05,0,0,0,1.39-5.54,55.91,55.91,0,0,0,.83-5.66c.18-1.88.28-3.78.28-5.7S139.18,77.24,139,75.36Z"/><path class="cls-2" d="M111.13,105.74c-.81,1-1.66,1.93-2.56,2.83a38.14,38.14,0,0,1-2.84,2.56c-1,.81-2,1.57-3.06,2.28a37.2,37.2,0,0,1-3.27,2A33.1,33.1,0,0,1,95.94,117h0c-1.16.48-2.36.91-3.58,1.28a35.26,35.26,0,0,1-3.71.92,33.57,33.57,0,0,1-3.77.56,38.4,38.4,0,0,1-7.63,0,33.75,33.75,0,0,1-3.78-.56,34.9,34.9,0,0,1-3.69-.92c-1.23-.37-2.43-.8-3.6-1.28h0a33.92,33.92,0,0,1-3.45-1.63,37.2,37.2,0,0,1-3.27-2c-1.06-.71-2.08-1.47-3.07-2.28s-1.93-1.66-2.83-2.56-1.75-1.84-2.56-2.83L36.06,118q1.83,2.2,3.84,4.22t4.23,3.85q2.2,1.8,4.59,3.39a53.92,53.92,0,0,0,4.9,2.95,55.32,55.32,0,0,0,5.16,2.44h0a56.38,56.38,0,0,0,5.38,1.92q2.73.83,5.54,1.38a55.91,55.91,0,0,0,5.66.83c1.88.18,3.78.28,5.7.28s3.83-.1,5.71-.28a55.3,55.3,0,0,0,5.65-.83A53.59,53.59,0,0,0,98,136.78a52.65,52.65,0,0,0,5.37-1.91h0a55.76,55.76,0,0,0,10.07-5.39q2.39-1.59,4.59-3.39c1.47-1.22,2.89-2.5,4.23-3.85a56.84,56.84,0,0,0,3.84-4.22Z"/><path class="cls-3" d="M86.77,23.13c-1.88-.18-3.79-.28-5.71-.28s-3.82.1-5.7.28A55.91,55.91,0,0,0,69.7,24q-2.81.57-5.54,1.39c-1.83.55-3.62,1.2-5.39,1.92s-3.49,1.55-5.15,2.45-3.32,1.89-4.9,2.94a56.81,56.81,0,0,0-4.59,3.41q-2.19,1.82-4.22,3.84h0q-2,2-3.84,4.23a56.69,56.69,0,0,0-3.4,4.59,53.82,53.82,0,0,0-2.94,4.9,52.05,52.05,0,0,0-2.45,5.17h0c-.72,1.75-1.36,3.53-1.91,5.36s-1,3.67-1.39,5.56a54.7,54.7,0,0,0-.83,5.64c-.18,1.88-.28,3.79-.28,5.71s.1,3.82.28,5.7A55.91,55.91,0,0,0,24,92.43q.57,2.82,1.38,5.54t1.92,5.38h0a56.81,56.81,0,0,0,2.45,5.17,55.23,55.23,0,0,0,2.94,4.9c1.06,1.59,2.19,3.11,3.4,4.59L51,105.74a37.23,37.23,0,0,1-2.27-3.06,36.51,36.51,0,0,1-2-3.28A35.09,35.09,0,0,1,45.13,96h0c-.48-1.16-.91-2.37-1.28-3.59s-.67-2.44-.92-3.7a33.73,33.73,0,0,1-.55-3.78,36.49,36.49,0,0,1,0-7.63,33.56,33.56,0,0,1,.55-3.77c.25-1.26.56-2.49.92-3.7s.8-2.42,1.28-3.59h0a37.4,37.4,0,0,1,1.63-3.45,35,35,0,0,1,2-3.27A37.38,37.38,0,0,1,51,56.4c.81-1,1.67-1.93,2.56-2.82h0A34.09,34.09,0,0,1,56.39,51c1-.81,2-1.57,3.07-2.28a34.75,34.75,0,0,1,3.26-2c1.12-.6,2.27-1.15,3.45-1.64a35.72,35.72,0,0,1,3.6-1.29c1.2-.36,2.44-.67,3.7-.92a33.73,33.73,0,0,1,3.78-.55,36.49,36.49,0,0,1,7.63,0,33.56,33.56,0,0,1,3.77.55l3.77-19A55.3,55.3,0,0,0,86.77,23.13Z"/></g></g></g></svg>