<svg xmlns="http://www.w3.org/2000/svg" viewBox="0 0 224 35"><defs><style>.cls-1{fill:#363a36;}.cls-2{fill:#ed5711;}</style></defs><title>logo-numerika</title><g id="Capa_2" data-name="Capa 2"><g id="diseño"><path class="cls-1" d="M75.42,20.14a25.68,25.68,0,0,1-.19,3.76,7,7,0,0,1-.63,2A5.19,5.19,0,0,1,72.65,28a5.33,5.33,0,0,1-2.79.73,4.34,4.34,0,0,1-3.8-1.79,9.3,9.3,0,0,1-1.26-5.36V10h-4V22.72q0,4.71,2.29,7.29a8.16,8.16,0,0,0,6.46,2.6,7.35,7.35,0,0,0,3.31-.73,7.83,7.83,0,0,0,2.66-2.24v2.47h3.81l0-22.08H75.43Z"/><path class="cls-1" d="M107.92,9.69a8.21,8.21,0,0,0-4.12.94,6.76,6.76,0,0,0-2.72,2.87,6.9,6.9,0,0,0-2.62-2.9,8,8,0,0,0-4-.92,6.59,6.59,0,0,0-3.17.73,7.27,7.27,0,0,0-2.49,2.21V10H85.26l0,22.09H89V20.82a10.44,10.44,0,0,1,1.23-5.7A4.22,4.22,0,0,1,94,13.29a4,4,0,0,1,3.62,1.83Q98.78,17,98.78,21V32.13h3.86V20.58c0-2.63.38-4.51,1.13-5.62a4.79,4.79,0,0,1,7.17-.09,6.9,6.9,0,0,1,1.24,4.4V32.14h4V18.65a9.25,9.25,0,0,0-2.25-6.52,7.76,7.76,0,0,0-6-2.44"/><polygon class="cls-1" points="137.57 0.25 133.54 0.25 129.44 7.23 131.85 7.23 137.57 0.25"/><path class="cls-1" d="M125,19a7.81,7.81,0,0,1,2.65-4.18,7,7,0,0,1,4.52-1.53,6.69,6.69,0,0,1,4.38,1.5A8,8,0,0,1,139.13,19Zm16.59-4.44a11.59,11.59,0,0,0-4.12-3.79,11.23,11.23,0,0,0-5.41-1.36,11,11,0,0,0-4.52.91A11.15,11.15,0,0,0,123.83,13a11.66,11.66,0,0,0-2.34,3.69,11.85,11.85,0,0,0-.8,4.36A12.06,12.06,0,0,0,124,29.27a11,11,0,0,0,3.67,2.6,11.43,11.43,0,0,0,4.48.86,10.66,10.66,0,0,0,6.38-1.94,12.61,12.61,0,0,0,4.27-5.62H138.3a6.91,6.91,0,0,1-2.58,2.67,7.36,7.36,0,0,1-8.33-.78,7.43,7.43,0,0,1-2.5-4.49h18.59V22a16,16,0,0,0-.46-4.11,11.06,11.06,0,0,0-1.42-3.3"/><path class="cls-1" d="M151.75,12.63V10.08H148V32.16h4V19.88a6.85,6.85,0,0,1,1.16-4.43A5.27,5.27,0,0,1,157,13.88V9.72a6.15,6.15,0,0,0-3,.73,6.67,6.67,0,0,0-2.26,2.18"/><rect class="cls-1" x="160.89" y="2.94" width="3.94" height="4.56"/><rect class="cls-1" x="160.88" y="10.09" width="3.94" height="22.09"/><polygon class="cls-1" points="187.04 10.1 182.4 10.1 174.52 20.34 174.53 2.95 170.6 2.94 170.57 32.18 174.51 32.18 174.52 20.96 183.41 32.19 188.51 32.19 178.92 20.58 187.04 10.1"/><path class="cls-1" d="M200.66,28.87a6.93,6.93,0,0,1-5.23-2.21,7.76,7.76,0,0,1-2.09-5.53,7.76,7.76,0,0,1,2.1-5.55,7.22,7.22,0,0,1,10.38,0,7.71,7.71,0,0,1,2.08,5.54,7.78,7.78,0,0,1-2.09,5.55,6.76,6.76,0,0,1-5.15,2.22m11.77-7.79.27-1.15,2.19-9.88h-3.62l-1,4.75a8.75,8.75,0,0,0-.76-1,12.67,12.67,0,0,0-.84-1,11.21,11.21,0,0,0-8.19-3.42,10.27,10.27,0,0,0-4.34,1,12,12,0,0,0-3.76,2.75A11.1,11.1,0,0,0,190,16.78a12,12,0,0,0-.8,4.39,12.06,12.06,0,0,0,3.29,8.19A11.12,11.12,0,0,0,196.18,32a11.36,11.36,0,0,0,4.48.87,10.47,10.47,0,0,0,4.47-.95,11.87,11.87,0,0,0,5.1-4.55l.88,4.11h3.63l-2.2-9.88c0-.16-.07-.32-.11-.47"/><path class="cls-2" d="M5.53,35a6.57,6.57,0,0,1-1.37-.5L.5,32.88a.91.91,0,0,1-.5-.71V.79C0,.32.43.08,1.29.08c.55,0,1.15.49,1.79,1.46A70.84,70.84,0,0,0,18.46,18.66a42.06,42.06,0,0,0,10.18,6.07A26.15,26.15,0,0,0,38,26.31q5.7,0,8.86-2.82,3.69-3.25,3.7-10.19c0-5.48-1.57-9.44-4.7-11.85a.6.6,0,0,1-.25-.74c.22-.48.44-.71.67-.71.86,0,2,.75,3.57,2.24a18.13,18.13,0,0,1,3.16,4,22.13,22.13,0,0,1,2.79,11.22q0,6.57-4,10.55Q48,31.85,41.19,31.84A24.18,24.18,0,0,1,32,30a49,49,0,0,1-14.8-9.1A90.72,90.72,0,0,1,5.78,8.44Q5.48,8,5.24,8c-.31,0-.46.33-.46,1V19.24a70.21,70.21,0,0,0,1,13.81A10.57,10.57,0,0,1,6,34.42c0,.38-.17.58-.5.58"/><path class="cls-1" d="M219.41,1a3.71,3.71,0,1,0,3.72,3.71A3.71,3.71,0,0,0,219.41,1m0,8.3A4.59,4.59,0,1,1,224,4.7a4.6,4.6,0,0,1-4.59,4.59"/><path class="cls-1" d="M218.56,4.79h.34a1.91,1.91,0,0,0,1-.23.76.76,0,0,0,.34-.69.76.76,0,0,0-.29-.65,1.56,1.56,0,0,0-.93-.21h-.5Zm0,2.23h-.67V2.38h1.33a1.87,1.87,0,0,1,1.28.39,1.39,1.39,0,0,1,.44,1.11,1.35,1.35,0,0,1-.37,1,1.39,1.39,0,0,1-.95.41L220.94,7h-.84l-1.54-2.16Z"/></g></g></svg>