<?xml version="1.0" standalone="no"?>
<!DOCTYPE svg PUBLIC "-//W3C//DTD SVG 1.1//EN" "http://www.w3.org/Graphics/SVG/1.1/DTD/svg11.dtd" >
<svg xmlns="http://www.w3.org/2000/svg" xmlns:xlink="http://www.w3.org/1999/xlink" version="1.1">
<metadata>
Created by FontForge 20170731 at Thu Jun  6 18:37:38 2002
 By Aleksey,,,
Copyright (c) 1989, 2002 Adobe Systems Incorporated.  All Rights Reserved.
</metadata>
<defs>
<font id="CandidaStd-Roman" horiz-adv-x="556" >
  <font-face 
    font-family="Candida Std"
    font-weight="400"
    font-stretch="normal"
    units-per-em="1000"
    panose-1="2 6 5 3 5 5 5 2 3 4"
    ascent="690"
    descent="-310"
    x-height="472"
    cap-height="682"
    bbox="-166 -234 1000 908"
    underline-thickness="50"
    underline-position="-200"
    unicode-range="U+0020-FB02"
  />
<missing-glyph horiz-adv-x="500" 
d="M0 0v700h500v-700h-500zM250 395l170 255h-340zM280 350l170 -255v510zM80 50h340l-170 255zM50 605v-510l170 255z" />
    <glyph glyph-name="fi" unicode="fi" horiz-adv-x="611" 
d="M403 631q0 21 15 36t36 15t36 -15t15 -36t-15 -36t-36 -15t-36 15t-15 36zM19 0v42h78v388h-78v42h81v82q0 61 34 98.5t95 37.5q60 0 92 -37l-34 -59h-12q-8 31 -20 45.5t-33 14.5q-41 0 -41 -74v-108h324v-430h87v-42h-258v42h87v388h-240v-388h87v-42h-249z" />
    <glyph glyph-name="fl" unicode="fl" horiz-adv-x="611" 
d="M334 0v42h87v602l-87 -4v42l171 8v-648h87v-42h-258zM19 0v42h78v388h-78v42h81v82q0 61 34 98.5t95 37.5q60 0 92 -37l-34 -59h-12q-8 31 -20 45.5t-33 14.5q-41 0 -41 -74v-108h109v-42h-109v-388h87v-42h-249z" />
    <glyph glyph-name=".notdef" horiz-adv-x="500" 
d="M0 0v700h500v-700h-500zM250 395l170 255h-340zM280 350l170 -255v510zM80 50h340l-170 255zM50 605v-510l170 255z" />
    <glyph glyph-name=".null" horiz-adv-x="0" 
 />
    <glyph glyph-name="nonmarkingreturn" horiz-adv-x="333" 
 />
    <glyph glyph-name="space" unicode=" " horiz-adv-x="278" 
 />
    <glyph glyph-name="exclam" unicode="!" horiz-adv-x="334" 
d="M119 51q0 63 48 63t48 -63t-48 -63t-48 63zM146 172l-30 510h102l-30 -510h-42z" />
    <glyph glyph-name="quotedbl" unicode="&#x22;" 
d="M314 438v244h78v-244h-78zM164 438v244h78v-244h-78z" />
    <glyph glyph-name="numbersign" unicode="#" 
d="M494 265v-54h-110l-30 -211h-60l30 211h-130l-30 -211h-60l30 211h-102v54h110l22 156h-102v54h110l29 199h60l-29 -199h130l29 199h60l-29 -199h102v-54h-110l-22 -156h102zM354 421h-130l-22 -156h130z" />
    <glyph glyph-name="dollar" unicode="$" 
d="M300 293v-265q62 2 106 34.5t44 89.5t-38 87t-112 54zM252 417v229q-59 0 -96.5 -25.5t-37.5 -82.5q0 -76 134 -121zM37 0v180h60v-37q0 -42 47.5 -76t107.5 -39v282q-7 3 -30 11.5t-32 11.5t-29.5 12t-29.5 14.5t-25.5 16t-24.5 19t-19 22t-15.5 27t-8.5 31t-4 37.5
q0 85 64 127.5t154 42.5v51h48v-51q103 -13 146 -54v54h54v-180h-54v6q0 59 -43 94t-103 44v-248q111 -38 149 -63q84 -55 85 -151q0 -91 -67.5 -140.5t-166.5 -51.5v-67h-48v67q-88 5 -155 50v-42h-60z" />
    <glyph glyph-name="percent" unicode="%" horiz-adv-x="1000" 
d="M104 517q0 70 48 117.5t112 47.5t112 -47.5t48 -117.5t-48 -117.5t-112 -47.5t-112 47.5t-48 117.5zM176 517q0 -62 23 -101.5t65 -39.5t65 39.5t23 101.5t-23 101.5t-65 39.5t-65 -39.5t-23 -101.5zM576 157q0 70 48 117.5t112 47.5t112 -47.5t48 -117.5t-48 -117.5
t-112 -47.5t-112 47.5t-48 117.5zM648 157q0 -62 23 -101.5t65 -39.5t65 39.5t23 101.5t-23 101.5t-65 39.5t-65 -39.5t-23 -101.5zM246 -28l451 730h48l-451 -730h-48z" />
    <glyph glyph-name="ampersand" unicode="&#x26;" horiz-adv-x="722" 
d="M264 469l34 -49q79 53 79 120q0 35 -20 60.5t-57 25.5q-29 0 -49.5 -19t-20.5 -50q0 -39 34 -88zM680 42v-42h-168l-39 51q-73 -59 -187 -59q-99 0 -163.5 45t-64.5 130q0 74 44 125t124 90l-36 47q-38 51 -38 106q0 53 41 93t107 40q58 0 100.5 -35t42.5 -93
q0 -49 -35 -91.5t-82 -64.5l179 -236q30 47 46 105.5t15 107.5h78q-9 -131 -112 -251l52 -68h96zM448 86l-195 258q-51 -33 -81 -67t-30 -80q0 -68 50.5 -112.5t121.5 -44.5q81 0 134 46z" />
    <glyph glyph-name="quotesingle" unicode="'" horiz-adv-x="278" 
d="M100 438v244h78v-244h-78z" />
    <glyph glyph-name="parenleft" unicode="(" horiz-adv-x="334" 
d="M279 682v-42q-83 -49 -91 -182q-8 -81 -8 -227t8 -227q8 -133 91 -182v-42q-63 31 -96.5 73.5t-56.5 104.5q-36 108 -36 273t36 273q23 62 56.5 104.5t96.5 73.5z" />
    <glyph glyph-name="parenright" unicode=")" horiz-adv-x="334" 
d="M55 -220v42q83 49 91 182q8 81 8 227t-8 227q-8 133 -91 182v42q63 -31 96.5 -73.5t56.5 -104.5q36 -108 36 -273t-36 -273q-23 -62 -56.5 -104.5t-96.5 -73.5z" />
    <glyph glyph-name="asterisk" unicode="*" 
d="M155 614l84 -15l34 83h12l32 -83l84 15l6 -12l-55 -71l55 -63l-6 -12l-84 12l-32 -80h-12l-34 80l-84 -12l-6 12l54 63l-54 71z" />
    <glyph glyph-name="plus" unicode="+" horiz-adv-x="600" 
d="M267 0v220h-220v66h220v220h66v-220h220v-66h-220v-220h-66z" />
    <glyph glyph-name="comma" unicode="," horiz-adv-x="278" 
d="M85 -138l12 252h96l-66 -252h-42z" />
    <glyph glyph-name="hyphen" unicode="-" horiz-adv-x="389" 
d="M68 195v84h253v-84h-253z" />
    <glyph glyph-name="period" unicode="." horiz-adv-x="278" 
d="M139 -12q-48 0 -48 63t48 63t48 -63t-48 -63z" />
    <glyph glyph-name="slash" unicode="/" horiz-adv-x="389" 
d="M81 -8h-72l299 698h72z" />
    <glyph glyph-name="zero" unicode="0" 
d="M509 337q0 -96 -24 -172t-77.5 -124.5t-129.5 -48.5t-129.5 48.5t-77.5 124.5t-24 172t24 172t77.5 124.5t129.5 48.5t129.5 -48.5t77.5 -124.5t24 -172zM413 337q0 309 -135 309t-135 -309t135 -309t135 309z" />
    <glyph glyph-name="one" unicode="1" 
d="M250 42v537l-115 -88l-31 34l178 157h52v-640h115v-42h-310v42h111z" />
    <glyph glyph-name="two" unicode="2" 
d="M44 0v18l159 163q101 104 139.5 177.5t38.5 135.5q0 64 -32 105t-91 41q-63 0 -95 -45t-32 -110h-84q20 197 220 197q88 0 149 -49.5t61 -135.5q0 -63 -41.5 -127.5t-127.5 -151.5l-138 -140h264v68h60v-146h-450z" />
    <glyph glyph-name="three" unicode="3" 
d="M217 334v42h30q63 4 98 42t35 104q0 45 -32 81.5t-96 36.5q-49 0 -74 -32.5t-25 -91.5h-90q0 69 50.5 117.5t143.5 48.5q90 0 151.5 -41t61.5 -121q0 -132 -133 -160v-2q68 -7 108.5 -58t40.5 -121q0 -95 -65.5 -141t-167.5 -46q-90 0 -151 41.5t-67 126.5h90
q13 -132 133 -132q66 0 99 43t33 111q0 75 -40 112.5t-110 39.5h-23z" />
    <glyph glyph-name="four" unicode="4" 
d="M390 160v-118h85v-42h-256v42h87v118h-292v18l324 504h52v-462h85v-60h-85zM306 220v318h-2l-203 -318h205z" />
    <glyph glyph-name="five" unicode="5" 
d="M34 158h84q0 -55 32 -89.5t90 -34.5q52 0 89 33t52 75.5t15 86.5q0 70 -40.5 117t-119.5 47q-64 0 -126 -40l-19 10l94 311h291l-20 -66h-239l-57 -187q52 26 125 26q84 0 145.5 -57t61.5 -157q0 -105 -65 -173t-185 -68q-88 0 -147 42t-61 124z" />
    <glyph glyph-name="six" unicode="6" 
d="M149 214q0 -34 6 -64t19.5 -59t41 -46t65.5 -17q45 0 75.5 30.5t43.5 74t13 94.5q0 71 -30 118.5t-96 47.5q-70 0 -104 -53.5t-34 -125.5zM477 554h-78q-2 41 -29 66.5t-68 25.5q-47 0 -80.5 -25t-49.5 -66.5t-22.5 -81.5t-6.5 -85v-44h2q53 97 160 97q90 0 147 -61
t57 -145q0 -114 -61 -178.5t-167 -64.5q-56 0 -98.5 21t-67.5 54t-41 79.5t-21.5 91t-5.5 94.5q0 64 14.5 123.5t44 111.5t82 83.5t122.5 31.5q65 0 116 -34t51 -94z" />
    <glyph glyph-name="seven" unicode="7" 
d="M50 529v145h436l-123 -322h98l-18 -42h-96l-124 -310h-96l139 310h-95l18 42h99l115 256h-293v-79h-60z" />
    <glyph glyph-name="eight" unicode="8" 
d="M157 513q0 -58 32.5 -93.5t88.5 -35.5t88.5 35.5t32.5 93.5q0 59 -32.5 95.5t-88.5 37.5q-61 0 -91 -36t-30 -97zM51 177q0 70 38.5 121.5t105.5 65.5v2q-60 13 -91 54t-31 97q0 69 53 117t152 48t152 -48t53 -117q0 -53 -36 -97.5t-86 -53.5v-2q67 -16 105.5 -66.5
t38.5 -120.5q0 -78 -63 -131.5t-164 -53.5q-105 0 -166 53t-61 132zM147 188q0 -72 32 -113t99 -41t99 41t32 113q0 60 -32 104t-99 44t-99 -44t-32 -104z" />
    <glyph glyph-name="nine" unicode="9" 
d="M407 460q0 34 -6 64t-19.5 59t-41 46t-65.5 17q-45 0 -75.5 -30.5t-43.5 -74t-13 -94.5q0 -71 30 -118.5t96 -47.5q70 0 104 53.5t34 125.5zM48 141h84q2 -58 30.5 -85.5t91.5 -27.5q47 0 80.5 25t49.5 66.5t22.5 81.5t6.5 85v44h-2q-53 -97 -160 -97q-90 0 -147 61
t-57 145q0 114 61 178.5t167 64.5q56 0 98.5 -21t67.5 -54t41 -79.5t21.5 -91t5.5 -94.5q0 -64 -14.5 -123.5t-44 -111.5t-82 -83.5t-122.5 -31.5q-82 0 -140 39.5t-58 109.5z" />
    <glyph glyph-name="colon" unicode=":" horiz-adv-x="278" 
d="M91 51q0 63 48 63t48 -63t-48 -63t-48 63zM91 370q0 63 48 63t48 -63t-48 -63t-48 63z" />
    <glyph glyph-name="semicolon" unicode=";" horiz-adv-x="278" 
d="M85 -138l12 252h96l-66 -252h-42zM91 297q0 63 48 63t48 -63t-48 -63t-48 63z" />
    <glyph glyph-name="less" unicode="&#x3c;" horiz-adv-x="600" 
d="M553 60v-68l-506 230v62l506 230v-68l-423 -193z" />
    <glyph glyph-name="equal" unicode="=" horiz-adv-x="600" 
d="M47 320v66h506v-66h-506zM47 120v66h506v-66h-506z" />
    <glyph glyph-name="greater" unicode="&#x3e;" horiz-adv-x="600" 
d="M47 60l423 193l-423 193v68l506 -230v-62l-506 -230v68z" />
    <glyph glyph-name="question" unicode="?" horiz-adv-x="444" 
d="M283 252l57 -32q-38 -65 -115 -65q-49 0 -83 30.5t-34 82.5q0 44 31 89t67.5 76t67.5 70t31 72q0 73 -81 73q-41 0 -63 -24.5t-22 -66.5h-78q0 69 44 101t118 32q77 0 118.5 -36t41.5 -102q0 -41 -21.5 -79.5t-52.5 -67t-61.5 -54.5t-52 -53.5t-21.5 -52.5
q0 -22 13.5 -35t33.5 -13q16 0 29 10.5t18 18.5t15 26zM163 51q0 63 48 63t48 -63t-48 -63t-48 63z" />
    <glyph glyph-name="at" unicode="@" horiz-adv-x="800" 
d="M329 280q0 -80 63 -80q33 0 70 56.5t49 153.5q4 31 -8 46.5t-35 15.5q-45 0 -92 -54t-47 -138zM608 507l-59 -239q-5 -23 -5 -39q0 -15 12 -25t30 -10q54 0 89 59.5t35 137.5q0 44 -20 89t-56 83t-92.5 61.5t-123.5 23.5q-123 0 -204.5 -86t-81.5 -247q0 -113 83.5 -197
t212.5 -84q115 0 200 50l13 -34q-110 -58 -212 -58q-76 0 -141 21.5t-108 56.5t-73.5 79.5t-44.5 89t-14 86.5q0 160 108 262.5t262 102.5q141 0 237.5 -85t96.5 -213q0 -54 -21.5 -108t-66 -93t-101.5 -39q-31 0 -53.5 15.5t-30.5 31t-7 23.5h-2q-14 -22 -46 -46t-70 -24
q-97 0 -97 125q0 44 21 98.5t69 99.5t109 45q9 0 16.5 -1.5t13 -3t11 -5.5t8.5 -6.5t7 -8t5.5 -7.5t5.5 -9t5 -8l10 36h70z" />
    <glyph glyph-name="A" unicode="A" horiz-adv-x="778" 
d="M18 0v42h64l281 648h37l288 -648h72v-42h-248v42h81l-68 154h-323l-65 -154h79v-42h-198zM504 244l-145 328l-137 -328h282z" />
    <glyph glyph-name="B" unicode="B" horiz-adv-x="667" 
d="M212 341v-299h123q75 0 123 35t48 109q0 155 -187 155h-107zM212 640v-257h112q73 0 112 34.5t39 94.5t-43 94t-121 34h-99zM32 0v42h90v598h-90v42h315q61 0 108 -14t80.5 -53t35.5 -101q0 -62 -43.5 -99.5t-109.5 -51.5v-2q81 -6 135.5 -53.5t54.5 -125.5
q0 -94 -73 -139.5t-177 -42.5h-326z" />
    <glyph glyph-name="C" unicode="C" horiz-adv-x="778" 
d="M705 683v-192h-60v8q0 65 -59.5 107t-151.5 42q-129 0 -204.5 -85.5t-75.5 -221.5q0 -125 80 -216t200 -91q96 0 156 28.5t108 82.5l36 -38q-108 -115 -302 -115q-163 0 -271.5 99t-108.5 250q0 161 103 255t262 94q79 0 133 -18t95 -61v72h60z" />
    <glyph glyph-name="D" unicode="D" horiz-adv-x="778" 
d="M32 0v42h90v598h-90v42h289q171 0 282 -90.5t111 -250.5q0 -170 -114.5 -255.5t-302.5 -85.5h-265zM212 640v-598h85q147 0 231 84t84 215q0 79 -24.5 139t-67 93.5t-92.5 50t-107 16.5h-109z" />
    <glyph glyph-name="E" unicode="E" horiz-adv-x="667" 
d="M23 0v42h99v598h-99v42h566v-136h-54v76h-323v-239h268v79h54v-203h-54v82h-268v-281h332v85h54v-145h-575z" />
    <glyph glyph-name="F" unicode="F" horiz-adv-x="611" 
d="M32 0v42h90v598h-90v42h542v-137h-54v77h-308v-239h257v79h54v-205h-54v84h-257v-299h90v-42h-270z" />
    <glyph glyph-name="G" unicode="G" horiz-adv-x="833" 
d="M725 682v-186h-54v7q0 65 -71 105t-159 40q-134 0 -210.5 -89t-76.5 -218q0 -126 81.5 -216.5t207.5 -90.5q141 0 219 95v139h-121v48h211v-316h-31q-21 50 -37 72q-91 -80 -257 -80q-162 0 -268.5 96t-106.5 253q0 160 105 254.5t265 94.5q158 0 249 -79v71h54z" />
    <glyph glyph-name="H" unicode="H" horiz-adv-x="834" 
d="M32 0v42h90v598h-90v42h270v-42h-90v-257h410v257h-90v42h270v-42h-90v-598h90v-42h-270v42h90v299h-410v-299h90v-42h-270z" />
    <glyph glyph-name="I" unicode="I" horiz-adv-x="334" 
d="M32 0v42h90v598h-90v42h270v-42h-90v-598h90v-42h-270z" />
    <glyph glyph-name="J" unicode="J" horiz-adv-x="500" 
d="M198 640v42h270v-42h-90v-473q0 -91 -53 -133t-144 -42q-83 0 -130.5 41t-47.5 110l90 14q0 -51 22.5 -87t70.5 -36q49 0 75.5 35.5t26.5 100.5v470h-90z" />
    <glyph glyph-name="K" unicode="K" horiz-adv-x="722" 
d="M32 0v42h90v598h-90v42h270v-42h-90v-334l334 334h-77v42h234v-42h-84l-245 -244l270 -354h66v-42h-264v42h84l-221 290l-97 -97v-193h90v-42h-270z" />
    <glyph glyph-name="L" unicode="L" horiz-adv-x="611" 
d="M32 0v42h90v598h-90v42h270v-42h-90v-580h296v102h66v-162h-542z" />
    <glyph glyph-name="M" unicode="M" horiz-adv-x="1000" 
d="M32 0v42h84v598h-84v42h170l298 -537l295 537h173v-42h-84v-598h84v-42h-264v42h90v544h-2l-295 -537h-36l-289 519h-2v-526h87v-42h-225z" />
    <glyph glyph-name="N" unicode="N" horiz-adv-x="834" 
d="M32 0v42h90v598h-90v42h163l474 -520v478h-90v42h234v-42h-90v-648h-24l-523 576v-526h90v-42h-234z" />
    <glyph glyph-name="O" unicode="O" horiz-adv-x="834" 
d="M154 347q0 -136 67 -224.5t196 -88.5t196 88.5t67 224.5q0 81 -28 148t-89 110t-146 43t-146 -43t-89 -110t-28 -148zM52 341q0 147 103.5 248t261.5 101q156 0 260.5 -94.5t104.5 -254.5q0 -156 -101 -252.5t-264 -96.5q-171 0 -268 97t-97 252z" />
    <glyph glyph-name="P" unicode="P" horiz-adv-x="611" 
d="M32 0v42h90v598h-90v42h284q52 0 95.5 -10.5t80 -32.5t57.5 -63t21 -97q0 -102 -70 -155.5t-184 -53.5q-51 0 -104 7v-235h90v-42h-270zM212 640v-320q31 -2 93 -2q169 0 169 161q0 76 -46 118.5t-135 42.5h-81z" />
    <glyph glyph-name="Q" unicode="Q" horiz-adv-x="834" 
d="M397 78l-31 22q17 24 29 37.5t34 26.5t48 13q40 0 116 -76q87 84 87 246q0 81 -28 148t-89 110t-146 43t-146 -43t-89 -110t-28 -148q0 -136 67 -224.5t196 -88.5q64 0 115 24q-49 53 -77 53q-11 0 -19.5 -3t-12.5 -6t-12.5 -11.5t-13.5 -12.5zM785 19l25 -26
q-51 -70 -109 -70q-29 0 -59 23.5t-75 72.5q-67 -27 -150 -27q-171 0 -268 97t-97 252q0 147 103.5 248t261.5 101q156 0 260.5 -94.5t104.5 -254.5q0 -94 -38.5 -168t-107.5 -119q60 -65 88 -65q29 0 61 30z" />
    <glyph glyph-name="R" unicode="R" horiz-adv-x="667" 
d="M212 640v-298h97q73 0 113.5 43.5t40.5 109.5q0 67 -42.5 106t-127.5 39h-81zM32 0v42h90v598h-90v42h294q101 0 167 -45t66 -143q0 -68 -44.5 -114.5t-112.5 -61.5q17 -15 36 -43t43 -69.5t42 -66.5q4 -5 15 -22t15.5 -23.5t15.5 -18.5t19.5 -17t21.5 -9.5t28 -4.5h9
v-44h-58q-33 0 -59 12.5t-50.5 41.5t-43.5 57t-51 79.5t-59 89.5q-14 20 -54 20h-60v-258h90v-42h-270z" />
    <glyph glyph-name="S" unicode="S" horiz-adv-x="611" 
d="M524 682v-174h-54v6q0 64 -59 99t-130 35q-59 0 -99 -26.5t-40 -79.5q0 -34 23 -60t59.5 -42.5t81 -31.5t89 -33.5t81 -41.5t59.5 -60.5t23 -87.5q0 -94 -70 -143.5t-172 -49.5q-127 0 -195 46v-38h-60v180h60v-43q0 -28 21 -49t53 -32t61.5 -16.5t54.5 -5.5
q67 0 115 28.5t48 86.5q0 40 -23 69.5t-59.5 47.5t-81 33.5t-89 32.5t-81 38.5t-59.5 58.5t-23 87q0 85 64.5 129.5t157.5 44.5q127 0 190 -58v50h54z" />
    <glyph glyph-name="T" unicode="T" horiz-adv-x="668" 
d="M196 0v42h93v580h-207v-84h-60v144h624v-144h-60v84h-207v-580h93v-42h-276z" />
    <glyph glyph-name="U" unicode="U" horiz-adv-x="778" 
d="M32 640v42h270v-42h-90v-372q0 -118 53 -173t143 -55q89 0 143.5 50.5t54.5 144.5v405h-84v42h228v-42h-84v-404q0 -113 -65.5 -178.5t-192.5 -65.5q-150 0 -218 66t-68 197v385h-90z" />
    <glyph glyph-name="V" unicode="V" horiz-adv-x="778" 
d="M371 -8l-283 648h-72v42h261v-42h-90l231 -546l224 546h-84v42h204v-42h-60l-272 -648h-59z" />
    <glyph glyph-name="W" unicode="W" horiz-adv-x="1000" 
d="M667 -8l-163 532h-2l-162 -532h-62l-199 648h-66v42h252v-42h-90l153 -522h2l171 564h45l171 -564h2l150 522h-86v42h204v-42h-63l-193 -648h-64z" />
    <glyph glyph-name="X" unicode="X" horiz-adv-x="778" 
d="M28 640v42h277v-42h-84l173 -228l183 228h-88v42h234v-42h-81l-215 -268l254 -330h78v-42h-276v42h84l-199 254l-208 -254h81v-42h-222v42h78l240 298l-230 300h-79z" />
    <glyph glyph-name="Y" unicode="Y" horiz-adv-x="722" 
d="M239 0v42h90v202l-231 396h-78v42h274v-42h-88l188 -333l183 333h-85v42h210v-42h-66l-217 -389v-209h90v-42h-270z" />
    <glyph glyph-name="Z" unicode="Z" horiz-adv-x="667" 
d="M56 545v137h547v-18l-427 -604h389v90h60v-150h-555q-28 0 -28 2v13q0 4 35 53l392 554h-353v-77h-60z" />
    <glyph glyph-name="bracketleft" unicode="[" horiz-adv-x="334" 
d="M178 -178h86v-42h-170v902h170v-42h-86v-818z" />
    <glyph glyph-name="backslash" unicode="\" horiz-adv-x="389" 
d="M380 -8h-72l-299 698h72z" />
    <glyph glyph-name="bracketright" unicode="]" horiz-adv-x="334" 
d="M156 640h-86v42h170v-902h-170v42h86v818z" />
    <glyph glyph-name="asciicircum" unicode="^" horiz-adv-x="600" 
d="M443 309l-143 289l-143 -289h-68l181 365h60l181 -365h-68z" />
    <glyph glyph-name="underscore" unicode="_" horiz-adv-x="500" 
d="M500 -125h-500v50h500v-50z" />
    <glyph glyph-name="grave" unicode="`" horiz-adv-x="278" 
d="M188 550l-165 97q-23 13 -23 35q0 12 9.5 21t22.5 9q5 0 9 -0.5t9 -3t7.5 -4t8 -6t7 -5.5t8 -7.5l7.5 -7.5l120 -111q10 -10 10 -14q0 -9 -9 -11q-5 -2 -21 8z" />
    <glyph glyph-name="a" unicode="a" 
d="M445 42h81v-42h-163v59h-2q-43 -71 -146 -71q-76 0 -123 43.5t-47 121.5q0 77 50.5 121.5t131.5 44.5q89 0 132 -70h2v102q0 97 -102 97q-37 0 -72 -18.5t-58 -46.5l-43 42q75 59 180 59q179 0 179 -148v-294zM361 115v72q0 33 -36.5 58.5t-75.5 25.5q-48 0 -81 -32
t-33 -80q0 -60 30.5 -91.5t80.5 -31.5q47 0 81 27.5t34 51.5z" />
    <glyph glyph-name="b" unicode="b" horiz-adv-x="611" 
d="M106 80v564l-78 -4v42l162 8v-296h2q48 90 154 90q102 0 158 -69t56 -173q0 -106 -59.5 -180t-164.5 -74q-107 0 -154 93l-36 -81h-48q7 61 8 80zM190 236q0 -206 137 -206t137 206q1 97 -34.5 151.5t-98.5 54.5q-69 0 -105 -57.5t-36 -148.5z" />
    <glyph glyph-name="c" unicode="c" horiz-adv-x="500" 
d="M408 478h45l6 -154h-47v14q0 40 -37.5 69t-82.5 29q-77 0 -114 -60t-37 -149q0 -82 39.5 -139.5t118.5 -57.5q47 0 79 13.5t60 46.5l32 -30q-54 -72 -183 -72q-110 0 -176 65.5t-66 173.5q0 109 63 183t159 74q86 0 139 -58h2v52z" />
    <glyph glyph-name="d" unicode="d" horiz-adv-x="611" 
d="M501 690v-648h84v-42h-168v71h-2q-17 -39 -58 -61t-87 -22q-107 0 -166 66.5t-59 175.5q0 105 58 179.5t164 74.5q91 0 148 -72h2v232l-85 -4v42zM141 235q0 -83 35 -144t104 -61q57 0 95 39t42 97v161q0 41 -42 78t-93 37q-48 0 -81.5 -35t-46.5 -80t-13 -92z" />
    <glyph glyph-name="e" unicode="e" 
d="M503 224h-362q0 -98 45.5 -146t124.5 -48q98 0 159 90l41 -34q-31 -50 -91 -74t-126 -24q-119 0 -184 68.5t-65 179.5q0 110 66 179t167 69q97 0 161 -59.5t64 -175.5v-25zM141 266h272q0 78 -32 127t-103 49q-70 0 -103.5 -50t-33.5 -126z" />
    <glyph glyph-name="f" unicode="f" horiz-adv-x="334" 
d="M19 0v42h78v388h-78v42h81v82q0 61 34 98.5t95 37.5q60 0 92 -37l-34 -59h-12q-8 31 -20 45.5t-33 14.5q-41 0 -41 -74v-108h109v-42h-109v-388h87v-42h-249z" />
    <glyph glyph-name="g" unicode="g" horiz-adv-x="611" 
d="M141 228q0 -51 11 -92.5t42 -73.5t79 -32q65 0 103 48t38 108v80q0 75 -35.5 125.5t-97.5 50.5q-51 0 -84 -34.5t-44.5 -80t-11.5 -99.5zM75 -151l67 51q27 -44 56.5 -68t72.5 -24q148 0 148 150v124h-2q-50 -94 -161 -94q-55 0 -97 22t-66 58t-36 78t-12 87
q0 105 57.5 178t162.5 73q51 0 93.5 -24t58.5 -64h2v76h163v-42h-84v-438q0 -226 -240 -226q-118 0 -183 83z" />
    <glyph glyph-name="h" unicode="h" horiz-adv-x="611" 
d="M106 42v602l-81 -4v42l165 8v-292h2q47 86 158 86q65 0 110 -34t45 -103v-305h81v-42h-246v42h81v290q0 44 -26.5 71t-71.5 27q-58 0 -95.5 -41t-37.5 -99v-248h81v-42h-246v42h81z" />
    <glyph glyph-name="i" unicode="i" horiz-adv-x="296" 
d="M19 0v42h87v388h-87v42h171v-430h87v-42h-258zM88 631q0 21 15 36t36 15t36 -15t15 -36t-15 -36t-36 -15t-36 15t-15 36z" />
    <glyph glyph-name="j" unicode="j" horiz-adv-x="296" 
d="M-38 -169l43 48h12q0 -57 45 -57q44 0 44 90v518h-86v42h170v-530q0 -84 -42.5 -123t-91.5 -39q-68 0 -94 51zM189 631q0 -21 -15 -36t-36 -15q-20 0 -35.5 15t-15.5 36t15.5 36t35.5 15q21 0 36 -15t15 -36z" />
    <glyph glyph-name="k" unicode="k" horiz-adv-x="611" 
d="M34 0v42h84v602l-84 -4v42l168 8v-459l199 199h-80v42h234v-42h-90l-145 -145l206 -243h66v-42h-244v42h72l-159 188l-59 -59v-129h84v-42h-252z" />
    <glyph glyph-name="l" unicode="l" horiz-adv-x="296" 
d="M19 0v42h87v602l-87 -4v42l171 8v-648h87v-42h-258z" />
    <glyph glyph-name="m" unicode="m" horiz-adv-x="888" 
d="M106 42v388h-87v42h171v-66h2q36 78 144 78q58 0 96.5 -25t43.5 -67h2q39 92 153 92q79 0 115 -38t36 -100v-304h87v-42h-247v42h76v304q0 90 -96 90q-55 0 -85.5 -40t-30.5 -91v-263h75v-42h-235v42h76v291q0 50 -22.5 76.5t-63.5 26.5q-126 0 -126 -144v-250h75v-42
h-246v42h87z" />
    <glyph glyph-name="n" unicode="n" horiz-adv-x="611" 
d="M106 42v388h-81v42h165v-74h2q47 86 158 86q65 0 110 -34t45 -103v-305h81v-42h-246v42h81v290q0 44 -26.5 71t-71.5 27q-58 0 -95.5 -41t-37.5 -99v-248h81v-42h-246v42h81z" />
    <glyph glyph-name="o" unicode="o" 
d="M141 236q0 -206 137 -206t137 206t-137 206t-137 -206zM45 236q0 110 66 179t167 69t167 -69t66 -179t-66 -179t-167 -69t-167 69t-66 179z" />
    <glyph glyph-name="p" unicode="p" horiz-adv-x="611" 
d="M464 242q0 97 -37.5 148t-92.5 52q-70 1 -107 -56.5t-37 -149.5q0 -206 137 -206t137 212zM106 -178v608h-84v42h168v-76h2q48 88 154 88q100 0 157 -71t57 -171q0 -106 -59.5 -180t-164.5 -74q-43 0 -82 21t-62 58h-2v-245h84v-42h-258v42h90z" />
    <glyph glyph-name="q" unicode="q" horiz-adv-x="611" 
d="M494 430v-608h81v-42h-249v42h84v241h-2q-20 -36 -59 -55.5t-85 -19.5q-92 0 -155.5 64t-63.5 181q0 104 63.5 177.5t165.5 73.5q86 0 139 -66l30 54h132v-42h-81zM141 236q0 -97 42 -148.5t98 -51.5q53 0 89 30.5t40 91.5v208q-18 29 -50.5 52.5t-78.5 23.5
q-56 0 -98 -54.5t-42 -151.5z" />
    <glyph glyph-name="r" unicode="r" horiz-adv-x="389" 
d="M25 0v42h81v388h-78v42h162v-70h2q16 32 46.5 57t66.5 25q28 0 48 -14.5t29 -33.5v-12l-52 -46q-26 46 -54 46q-41 0 -63.5 -42.5t-22.5 -96.5v-243h81v-42h-246z" />
    <glyph glyph-name="s" unicode="s" horiz-adv-x="444" 
d="M49 0v132h50v-22q0 -29 40 -54.5t87 -25.5q32 0 61.5 20t29.5 57q0 35 -28 55.5t-68 31.5t-80 24.5t-68 46t-28 83.5q0 66 45 101t114 35q34 0 68 -14.5t47 -37.5h2v40h48v-114h-50v23q0 19 -34 40t-78 21q-41 0 -65.5 -18t-24.5 -53q0 -27 20.5 -45.5t51.5 -27t67 -21
t67 -26.5t51.5 -43.5t20.5 -72.5q0 -66 -47.5 -106.5t-112.5 -40.5q-91 0 -136 60h-2v-48h-48z" />
    <glyph glyph-name="t" unicode="t" horiz-adv-x="334" 
d="M181 430v-322q0 -40 8.5 -59t34.5 -19q20 0 31.5 17t13.5 38h12l34 -33v-11q-31 -53 -107 -53q-56 0 -83.5 28t-27.5 92v322h-78v42h78v132l78 43l6 -8v-167h118v-42h-118z" />
    <glyph glyph-name="u" unicode="u" horiz-adv-x="611" 
d="M505 472v-430h81v-42h-165v68h-2q-48 -80 -155 -80q-75 0 -116.5 36.5t-41.5 110.5v295h-81v42h165v-324q0 -112 100 -112q62 0 96.5 37.5t34.5 90.5v266h-81v42h165z" />
    <glyph glyph-name="v" unicode="v" 
d="M244 -6l-179 436h-60v42h228v-42h-77l134 -346l127 346h-74v42h192v-42h-61l-171 -436h-59z" />
    <glyph glyph-name="w" unicode="w" horiz-adv-x="834" 
d="M245 -6l-161 436h-70v42h234v-42h-77l115 -328h2l122 370h43l122 -370h2l113 328h-81v42h204v-42h-68l-158 -436h-52l-121 352h-2l-116 -352h-51z" />
    <glyph glyph-name="x" unicode="x" 
d="M296 0v42h68l-108 146l-107 -146h71v-42h-204v42h72l140 185l-146 203h-70v42h240v-42h-71l99 -141l103 141h-73v42h204v-42h-73l-132 -178l155 -210h71v-42h-239z" />
    <glyph glyph-name="y" unicode="y" 
d="M89 -220v42h81l76 179l-180 429h-57v42h222v-42h-79l137 -334l137 334h-81v42h190v-42h-55l-256 -608h81v-42h-216z" />
    <glyph glyph-name="z" unicode="z" horiz-adv-x="500" 
d="M44 334v138h405v-18l-300 -412h243v95h54v-137h-407q-11 0 -11 2v12q0 5 21 32l284 384h-235v-96h-54z" />
    <glyph glyph-name="braceleft" unicode="{" horiz-adv-x="334" 
d="M127 -68v175q0 56 -14 83t-58 41q44 14 58 41t14 83v175q0 91 37 121.5t115 30.5v-12q-38 -12 -53 -43.5t-15 -90.5v-165q0 -62 -19 -94t-75 -45v-2q56 -13 75 -45t19 -94v-165q0 -59 15 -90.5t53 -43.5v-12q-78 0 -115 30.5t-37 121.5z" />
    <glyph glyph-name="bar" unicode="|" horiz-adv-x="222" 
d="M78 -8v698h66v-698h-66z" />
    <glyph glyph-name="braceright" unicode="}" horiz-adv-x="334" 
d="M123 -74v165q0 62 19 94t75 45v2q-56 13 -75 45t-19 94v165q0 59 -15 90.5t-53 43.5v12q78 0 115 -30.5t37 -121.5v-175q0 -56 14 -83t58 -41q-44 -14 -58 -41t-14 -83v-175q0 -91 -37 -121.5t-115 -30.5v12q38 12 53 43.5t15 90.5z" />
    <glyph glyph-name="asciitilde" unicode="~" horiz-adv-x="600" 
d="M105 182l-36 51q45 86 117 86q56 0 123 -31q64 -35 105 -35q16 0 32 11.5t25 24t24 35.5l36 -51q-19 -27 -32 -42t-36.5 -29.5t-48.5 -14.5q-57 0 -123 32q-66 34 -105 34q-49 0 -81 -71z" />
    <glyph glyph-name="uni00A0" unicode="&#xa0;" horiz-adv-x="278" 
 />
    <glyph glyph-name="exclamdown" unicode="&#xa1;" horiz-adv-x="334" 
d="M119 419q0 63 48 63t48 -63t-48 -63t-48 63zM116 -212l30 510h42l30 -510h-102z" />
    <glyph glyph-name="cent" unicode="&#xa2;" 
d="M224 64l131 366q-23 6 -48 6q-73 0 -109 -60.5t-36 -148.5q0 -110 62 -163zM147 -153l57 160q-65 26 -101.5 83.5t-36.5 136.5q0 110 64 183.5t162 73.5q42 0 77 -13l49 138h36l-55 -154q17 -12 27 -23h2v46h51l6 -154h-48q0 64 -51 93l-132 -372q27 -15 66 -15
q47 0 79 13.5t60 46.5l31 -30q-54 -72 -182 -72q-41 0 -71 10l-54 -151h-36z" />
    <glyph glyph-name="sterling" unicode="&#xa3;" 
d="M60 0v36q64 26 99 66.5t35 104.5q0 53 -54 123h-94v42h58q-44 73 -44 125q0 83 62.5 134t147.5 51q106 0 169 -62v54h54v-174h-55q3 67 -43 103.5t-116 36.5q-62 0 -101.5 -29.5t-39.5 -89.5q0 -19 9.5 -41t19.5 -36.5t28.5 -38.5t24.5 -33h162v-42h-131q21 -35 21 -86
q0 -85 -89 -164v-2h283v72h54v-150h-460z" />
    <glyph glyph-name="currency" unicode="&#xa4;" 
d="M27 130l55 56q-52 65 -52 151q0 85 52 152l-55 55l45 45l56 -56q66 52 150 52q87 0 150 -52l56 56l45 -45l-56 -56q53 -64 53 -151q0 -86 -52 -151l55 -56l-45 -45l-56 56q-65 -52 -150 -52q-84 0 -150 52l-56 -56zM96 337q0 -76 53 -129t129 -53t129 53t53 129t-53 129
t-129 53t-129 -53t-53 -129z" />
    <glyph glyph-name="yen" unicode="&#xa5;" 
d="M158 0v42h89v117h-140v48h140v43l-21 45h-119v48h97l-134 289h-78v42h266v-42h-90l145 -310l132 310h-85v42h204v-42h-66l-122 -289h101v-48h-121l-19 -45v-43h140v-48h-140v-117h90v-42h-269z" />
    <glyph glyph-name="brokenbar" unicode="&#xa6;" horiz-adv-x="222" 
d="M78 -8v261h66v-261h-66zM78 429v261h66v-261h-66z" />
    <glyph glyph-name="section" unicode="&#xa7;" 
d="M127 -37h78q0 -30 15 -51.5t44 -21.5q24 0 41.5 15.5t17.5 41.5q0 32 -36.5 71.5t-79.5 72.5t-79.5 81.5t-36.5 95.5q0 105 122 184q-73 56 -73 121q0 52 38.5 84.5t93.5 32.5q64 0 99.5 -31t38.5 -91h-78q0 80 -58 80q-25 0 -40.5 -14.5t-15.5 -37.5q0 -26 25.5 -56
t62 -60t72.5 -62.5t61.5 -74t25.5 -83.5q0 -111 -127 -175q32 -25 47.5 -50t15.5 -66q0 -51 -38 -86t-96 -35q-60 0 -98.5 30t-41.5 85zM169 300q0 -38 21 -69t62 -67t54 -51q81 58 81 124q0 21 -9.5 42t-28.5 43t-33.5 36.5t-40.5 36.5t-32 28q-74 -54 -74 -123z" />
    <glyph glyph-name="dieresis" unicode="&#xa8;" horiz-adv-x="278" 
d="M1 631q0 21 15 36t36 15t36 -15t15 -36t-15 -36t-36 -15t-36 15t-15 36zM175 631q0 21 15 36t36 15t36 -15t15 -36t-15 -36t-36 -15t-36 15t-15 36z" />
    <glyph glyph-name="copyright" unicode="&#xa9;" horiz-adv-x="800" 
d="M575 256l-19 -75q-10 -15 -38 -24q-35 -10 -95 -10q-99 0 -161.5 50.5t-62.5 152.5q0 74 57 135t172 61q52 0 88 -9q42 -12 42 -34v-69h-18q0 36 -29 62t-88 26q-70 0 -104.5 -46t-35.5 -127t35 -129.5t113 -48.5q90 0 127 85h17zM51 341q0 145 102 247t247 102t247 -102
t102 -247t-102 -247t-247 -102t-247 102t-102 247zM683 341q0 121 -82 205t-201 84t-201 -84t-82 -205t82 -205t201 -84t201 84t82 205z" />
    <glyph glyph-name="ordfeminine" unicode="&#xaa;" horiz-adv-x="361" 
d="M233 545v45q0 31 -15 46.5t-51 15.5q-58 0 -85 -30l-28 25q48 35 123 35q122 0 122 -99v-162h41v-30h-106v32h-2q-28 -38 -97 -38q-54 0 -85.5 26t-31.5 73q0 46 33 72.5t88 26.5q63 0 93 -38l-1 -2l2 -2v4zM233 461v43q0 19 -23.5 34t-46.5 15q-33 0 -53 -18t-20 -48
q0 -35 19.5 -53.5t51.5 -18.5q29 0 50.5 16t21.5 30z" />
    <glyph glyph-name="guillemotleft" unicode="&#xab;" 
d="M403 54l-138 183l138 183h60l-138 -183l138 -183h-60zM231 54l-138 183l138 183h60l-138 -183l138 -183h-60z" />
    <glyph glyph-name="logicalnot" unicode="&#xac;" horiz-adv-x="600" 
d="M487 108v212h-440v66h506v-278h-66z" />
    <glyph glyph-name="uni00AD" unicode="&#xad;" horiz-adv-x="389" 
d="M68 195v84h253v-84h-253z" />
    <glyph glyph-name="registered" unicode="&#xae;" horiz-adv-x="800" 
d="M231 531v18h171q137 0 137 -96q0 -41 -23 -70.5t-62 -39.5l55 -87q34 -49 47 -59q16 -11 38 -11v-24h-67q-18 0 -34 17.5t-47 69t-52 81.5h-46v-111q0 -15 8.5 -23t17.5 -9t27 -1v-24h-170v24q18 0 26.5 1t16.5 8.5t8 23.5v278q0 23 -12 28.5t-39 5.5zM348 525v-171h45
q74 0 74 91q0 80 -74 80h-45zM51 341q0 145 102 247t247 102t247 -102t102 -247t-102 -247t-247 -102t-247 102t-102 247zM683 341q0 121 -82 205t-201 84t-201 -84t-82 -205t82 -205t201 -84t201 84t82 205z" />
    <glyph glyph-name="macron" unicode="&#xaf;" horiz-adv-x="278" 
d="M0 612v48h278v-48h-278z" />
    <glyph glyph-name="degree" unicode="&#xb0;" horiz-adv-x="400" 
d="M103 537q0 -41 28.5 -69t68.5 -28t68.5 28t28.5 69t-28.5 69t-68.5 28t-68.5 -28t-28.5 -69zM55 537q0 60 42.5 102.5t102.5 42.5t102.5 -42.5t42.5 -102.5t-42.5 -102.5t-102.5 -42.5t-102.5 42.5t-42.5 102.5z" />
    <glyph glyph-name="plusminus" unicode="&#xb1;" horiz-adv-x="600" 
d="M267 338v168h66v-168h220v-66h-220v-168h-66v168h-220v66h220zM47 0v66h506v-66h-506z" />
    <glyph glyph-name="twosuperior" unicode="&#xb2;" horiz-adv-x="361" 
d="M287 330v34h42v-88h-288q-8 0 -8 10q0 6 8 14l129 126q44 45 60.5 76.5t16.5 74.5q0 75 -74 75q-41 0 -61 -25t-20 -63h-60q0 118 147 118q140 0 140 -108q0 -27 -14 -53.5t-27 -40.5t-40 -40l-115 -110h164z" />
    <glyph glyph-name="threesuperior" unicode="&#xb3;" horiz-adv-x="361" 
d="M151 468v36h20q82 0 82 76q0 72 -70 72q-39 0 -56 -17t-17 -52h-60q0 48 39 73.5t100 25.5q56 0 93 -23.5t37 -73.5q0 -37 -24.5 -62.5t-65.5 -33.5v-2q45 -4 74 -35t29 -72q0 -56 -46.5 -84t-111.5 -28q-60 0 -100.5 24.5t-44.5 76.5h66q0 -71 82 -71q83 0 83 84
q0 86 -94 86h-15z" />
    <glyph glyph-name="acute" unicode="&#xb4;" horiz-adv-x="278" 
d="M70 567l120 111l7.5 7.5t8 7.5t7 5.5t8 6t7.5 4t9 3t9 0.5q13 0 22.5 -9t9.5 -21q0 -22 -23 -35l-165 -97q-16 -10 -21 -8q-9 2 -9 11q0 4 10 14z" />
    <glyph glyph-name="mu" unicode="&#xb5;" horiz-adv-x="611" 
d="M505 472v-430h81v-42h-165v68h-2q-48 -80 -155 -80q-52 0 -86 21q0 -41 4.5 -98t4.5 -80q0 -51 -45 -51t-45 51q0 23 4.5 79t4.5 95v425h-81v42h165v-335q0 -45 25.5 -73t74.5 -28q62 0 96.5 37.5t34.5 90.5v266h-81v42h165z" />
    <glyph glyph-name="paragraph" unicode="&#xb6;" horiz-adv-x="600" 
d="M514 682v-42h-82v-742h82v-42h-148v784h-58v-784h-148v42h82v372q-99 0 -148 56.5t-49 149.5t49 149.5t148 56.5h272zM242 312v328q-61 0 -90 -38.5t-29 -125.5t29 -125.5t90 -38.5z" />
    <glyph glyph-name="periodcentered" unicode="&#xb7;" horiz-adv-x="278" 
d="M76 299q0 26 18.5 44.5t44.5 18.5t44.5 -18.5t18.5 -44.5t-18.5 -44.5t-44.5 -18.5t-44.5 18.5t-18.5 44.5z" />
    <glyph glyph-name="cedilla" unicode="&#xb8;" horiz-adv-x="278" 
d="M161 0l-27 -69q22 2 36 2q31 0 53 -18.5t22 -50.5q0 -44 -36.5 -64t-85.5 -20q-45 0 -106 26l15 30q38 -20 82 -20q26 0 42.5 10.5t16.5 31.5q0 39 -54 39q-14 0 -38 -4l44 107h36z" />
    <glyph glyph-name="onesuperior" unicode="&#xb9;" horiz-adv-x="361" 
d="M91 276v30h70v313l-72 -50l-21 24l117 89h36v-376h72v-30h-202z" />
    <glyph glyph-name="ordmasculine" unicode="&#xba;" horiz-adv-x="361" 
d="M92 534q0 -119 89 -119q88 0 88 119q0 118 -88 118q-89 0 -89 -118zM20 534q0 67 44.5 107.5t116.5 40.5q71 0 115.5 -40.5t44.5 -107.5t-44 -108t-116 -41t-116.5 41t-44.5 108z" />
    <glyph glyph-name="guillemotright" unicode="&#xbb;" 
d="M265 54l138 183l-138 183h60l138 -183l-138 -183h-60zM93 54l138 183l-138 183h60l138 -183l-138 -183h-60z" />
    <glyph glyph-name="onequarter" unicode="&#xbc;" horiz-adv-x="834" 
d="M611 0v30h54v63h-187v18l205 298h48v-274h55v-42h-55v-63h55v-30h-175zM665 135v188h-2l-128 -188h130zM635 702h48l-451 -730h-48zM71 276v30h70v313l-72 -50l-21 24l117 89h36v-376h72v-30h-202z" />
    <glyph glyph-name="onehalf" unicode="&#xbd;" horiz-adv-x="834" 
d="M592 702h48l-451 -730h-48zM60 276v30h70v313l-72 -50l-21 24l117 89h36v-376h72v-30h-202zM755 54v34h42v-88h-288q-8 0 -8 10q0 6 8 14l129 126q44 45 60.5 76.5t16.5 74.5q0 75 -74 75q-41 0 -61 -25t-20 -63h-60q0 118 147 118q140 0 140 -108q0 -27 -14 -53.5
t-27 -40.5t-40 -40l-115 -110h164z" />
    <glyph glyph-name="threequarters" unicode="&#xbe;" horiz-adv-x="834" 
d="M627 0v30h54v63h-187v18l205 298h48v-274h55v-42h-55v-63h55v-30h-175zM681 135v188h-2l-128 -188h130zM656 702h48l-451 -730h-48zM154 468v36h20q82 0 82 76q0 72 -70 72q-39 0 -56 -17t-17 -52h-60q0 48 39 73.5t100 25.5q56 0 93 -23.5t37 -73.5q0 -37 -24.5 -62.5
t-65.5 -33.5v-2q45 -4 74 -35t29 -72q0 -56 -46.5 -84t-111.5 -28q-60 0 -100.5 24.5t-44.5 76.5h66q0 -71 82 -71q83 0 83 84q0 86 -94 86h-15z" />
    <glyph glyph-name="questiondown" unicode="&#xbf;" horiz-adv-x="444" 
d="M161 218l-57 32q38 65 115 65q49 0 83 -30.5t34 -82.5q0 -44 -31 -89t-67.5 -76t-67.5 -70t-31 -72q0 -73 81 -73q41 0 63 24.5t22 66.5h78q0 -69 -44 -101t-118 -32q-77 0 -118.5 36t-41.5 102q0 41 21.5 79.5t52.5 67t61.5 54.5t52 53.5t21.5 52.5q0 22 -13.5 35
t-33.5 13q-16 0 -29 -10.5t-18 -18.5t-15 -26zM281 419q0 -63 -48 -63t-48 63t48 63t48 -63z" />
    <glyph glyph-name="Agrave" unicode="&#xc0;" horiz-adv-x="778" 
d="M18 0v42h64l281 648h37l288 -648h72v-42h-248v42h81l-68 154h-323l-65 -154h79v-42h-198zM504 244l-145 328l-137 -328h282zM438 725l-165 97q-23 13 -23 35q0 12 9.5 21t22.5 9q5 0 9 -0.5t9 -3t7.5 -4t8 -6t7 -5.5t8 -7.5l7.5 -7.5l120 -111q10 -10 10 -14q0 -9 -9 -11
q-5 -2 -21 8z" />
    <glyph glyph-name="Aacute" unicode="&#xc1;" horiz-adv-x="778" 
d="M18 0v42h64l281 648h37l288 -648h72v-42h-248v42h81l-68 154h-323l-65 -154h79v-42h-198zM504 244l-145 328l-137 -328h282zM320 742l120 111l7.5 7.5t8 7.5t7 5.5t8 6t7.5 4t9 3t9 0.5q13 0 22.5 -9t9.5 -21q0 -22 -23 -35l-165 -97q-16 -10 -21 -8q-9 2 -9 11
q0 4 10 14z" />
    <glyph glyph-name="Acircumflex" unicode="&#xc2;" horiz-adv-x="778" 
d="M18 0v42h64l281 648h37l288 -648h72v-42h-248v42h81l-68 154h-323l-65 -154h79v-42h-198zM504 244l-145 328l-137 -328h282zM264 741l96 146h58l97 -146q7 -12 7 -17q-1 -7 -10 -7q-8 0 -23 14l-99 96l-101 -96q-15 -14 -23 -14q-9 0 -10 7q0 4 8 17z" />
    <glyph glyph-name="Atilde" unicode="&#xc3;" horiz-adv-x="778" 
d="M18 0v42h64l281 648h37l288 -648h72v-42h-248v42h81l-68 154h-323l-65 -154h79v-42h-198zM504 244l-145 328l-137 -328h282zM504 861h24q0 -42 -23 -70t-59 -28q-25 0 -69 16t-61 16q-42 0 -42 -42h-24q0 39 22.5 67.5t59.5 28.5q22 0 64 -16t58 -16q22 0 36 11t14 33z
" />
    <glyph glyph-name="Adieresis" unicode="&#xc4;" horiz-adv-x="778" 
d="M18 0v42h64l281 648h37l288 -648h72v-42h-248v42h81l-68 154h-323l-65 -154h79v-42h-198zM504 244l-145 328l-137 -328h282zM251 806q0 21 15 36t36 15t36 -15t15 -36t-15 -36t-36 -15t-36 15t-15 36zM425 806q0 21 15 36t36 15t36 -15t15 -36t-15 -36t-36 -15t-36 15
t-15 36z" />
    <glyph glyph-name="Aring" unicode="&#xc5;" horiz-adv-x="778" 
d="M18 0v42h64l281 648h37l288 -648h72v-42h-248v42h81l-68 154h-323l-65 -154h79v-42h-198zM504 244l-145 328l-137 -328h282zM276 807q0 42 29.5 71.5t71.5 29.5t71.5 -29.5t29.5 -71.5t-29.5 -71.5t-71.5 -29.5t-71.5 29.5t-29.5 71.5zM312 807q0 -27 19 -46t46 -19
t46 19t19 46t-19 46t-46 19t-46 -19t-19 -46z" />
    <glyph glyph-name="AE" unicode="&#xc6;" horiz-adv-x="1000" 
d="M926 60v88h54v-148h-487v42h90l-65 154h-323l-63 -154h80v-42h-198v42h66l246 598h-90v42h535v-137h-54v77h-291l102 -239h263v79h54v-200h-54v79h-245l121 -281h259zM354 586l-139 -342h283z" />
    <glyph glyph-name="Ccedilla" unicode="&#xc7;" horiz-adv-x="778" 
d="M448 -8l-24 -61q22 2 36 2q31 0 53 -18.5t22 -50.5q0 -44 -36.5 -64t-85.5 -20q-45 0 -106 26l15 30q38 -20 82 -20q26 0 42.5 10.5t16.5 31.5q0 39 -54 39q-14 0 -38 -4l41 99q-156 7 -258 104.5t-102 244.5q0 161 103 255t262 94q79 0 133 -18t95 -61v72h60v-192h-60v8
q0 65 -59.5 107t-151.5 42q-129 0 -204.5 -85.5t-75.5 -221.5q0 -125 80 -216t200 -91q96 0 156 28.5t108 82.5l36 -38q-105 -112 -286 -115z" />
    <glyph glyph-name="Egrave" unicode="&#xc8;" horiz-adv-x="667" 
d="M23 0v42h99v598h-99v42h566v-136h-54v76h-323v-239h268v79h54v-203h-54v82h-268v-281h332v85h54v-145h-575zM383 725l-165 97q-23 13 -23 35q0 12 9.5 21t22.5 9q5 0 9 -0.5t9 -3t7.5 -4t8 -6t7 -5.5t8 -7.5l7.5 -7.5l120 -111q10 -10 10 -14q0 -9 -9 -11q-5 -2 -21 8z
" />
    <glyph glyph-name="Eacute" unicode="&#xc9;" horiz-adv-x="667" 
d="M23 0v42h99v598h-99v42h566v-136h-54v76h-323v-239h268v79h54v-203h-54v82h-268v-281h332v85h54v-145h-575zM265 742l120 111l7.5 7.5t8 7.5t7 5.5t8 6t7.5 4t9 3t9 0.5q13 0 22.5 -9t9.5 -21q0 -22 -23 -35l-165 -97q-16 -10 -21 -8q-9 2 -9 11q0 4 10 14z" />
    <glyph glyph-name="Ecircumflex" unicode="&#xca;" horiz-adv-x="667" 
d="M23 0v42h99v598h-99v42h566v-136h-54v76h-323v-239h268v79h54v-203h-54v82h-268v-281h332v85h54v-145h-575zM209 741l96 146h58l97 -146q7 -12 7 -17q-1 -7 -10 -7q-8 0 -23 14l-99 96l-101 -96q-15 -14 -23 -14q-9 0 -10 7q0 4 8 17z" />
    <glyph glyph-name="Edieresis" unicode="&#xcb;" horiz-adv-x="667" 
d="M23 0v42h99v598h-99v42h566v-136h-54v76h-323v-239h268v79h54v-203h-54v82h-268v-281h332v85h54v-145h-575zM196 806q0 21 15 36t36 15t36 -15t15 -36t-15 -36t-36 -15t-36 15t-15 36zM370 806q0 21 15 36t36 15t36 -15t15 -36t-15 -36t-36 -15t-36 15t-15 36z" />
    <glyph glyph-name="Igrave" unicode="&#xcc;" horiz-adv-x="334" 
d="M32 0v42h90v598h-90v42h270v-42h-90v-598h90v-42h-270zM216 725l-165 97q-23 13 -23 35q0 12 9.5 21t22.5 9q5 0 9 -0.5t9 -3t7.5 -4t8 -6t7 -5.5t8 -7.5l7.5 -7.5l120 -111q10 -10 10 -14q0 -9 -9 -11q-5 -2 -21 8z" />
    <glyph glyph-name="Iacute" unicode="&#xcd;" horiz-adv-x="334" 
d="M32 0v42h90v598h-90v42h270v-42h-90v-598h90v-42h-270zM98 742l120 111l7.5 7.5t8 7.5t7 5.5t8 6t7.5 4t9 3t9 0.5q13 0 22.5 -9t9.5 -21q0 -22 -23 -35l-165 -97q-16 -10 -21 -8q-9 2 -9 11q0 4 10 14z" />
    <glyph glyph-name="Icircumflex" unicode="&#xce;" horiz-adv-x="334" 
d="M32 0v42h90v598h-90v42h270v-42h-90v-598h90v-42h-270zM42 741l96 146h58l97 -146q7 -12 7 -17q-1 -7 -10 -7q-8 0 -23 14l-99 96l-101 -96q-15 -14 -23 -14q-9 0 -10 7q0 4 8 17z" />
    <glyph glyph-name="Idieresis" unicode="&#xcf;" horiz-adv-x="334" 
d="M32 0v42h90v598h-90v42h270v-42h-90v-598h90v-42h-270zM29 806q0 21 15 36t36 15t36 -15t15 -36t-15 -36t-36 -15t-36 15t-15 36zM203 806q0 21 15 36t36 15t36 -15t15 -36t-15 -36t-36 -15t-36 15t-15 36z" />
    <glyph glyph-name="Eth" unicode="&#xd0;" horiz-adv-x="778" 
d="M212 640v-257h230v-42h-230v-299h85q147 0 231 84t84 215q0 79 -24.5 139t-67 93.5t-92.5 50t-107 16.5h-109zM122 42v299h-78v42h78v257h-90v42h289q171 0 282 -90.5t111 -250.5q0 -170 -114.5 -255.5t-302.5 -85.5h-265v42h90z" />
    <glyph glyph-name="Ntilde" unicode="&#xd1;" horiz-adv-x="834" 
d="M32 0v42h90v598h-90v42h163l474 -520v478h-90v42h234v-42h-90v-648h-24l-523 576v-526h90v-42h-234zM532 861h24q0 -42 -23 -70t-59 -28q-25 0 -69 16t-61 16q-42 0 -42 -42h-24q0 39 22.5 67.5t59.5 28.5q22 0 64 -16t58 -16q22 0 36 11t14 33z" />
    <glyph glyph-name="Ograve" unicode="&#xd2;" horiz-adv-x="834" 
d="M154 347q0 -136 67 -224.5t196 -88.5t196 88.5t67 224.5q0 81 -28 148t-89 110t-146 43t-146 -43t-89 -110t-28 -148zM52 341q0 147 103.5 248t261.5 101q156 0 260.5 -94.5t104.5 -254.5q0 -156 -101 -252.5t-264 -96.5q-171 0 -268 97t-97 252zM466 725l-165 97
q-23 13 -23 35q0 12 9.5 21t22.5 9q5 0 9 -0.5t9 -3t7.5 -4t8 -6t7 -5.5t8 -7.5l7.5 -7.5l120 -111q10 -10 10 -14q0 -9 -9 -11q-5 -2 -21 8z" />
    <glyph glyph-name="Oacute" unicode="&#xd3;" horiz-adv-x="834" 
d="M154 347q0 -136 67 -224.5t196 -88.5t196 88.5t67 224.5q0 81 -28 148t-89 110t-146 43t-146 -43t-89 -110t-28 -148zM52 341q0 147 103.5 248t261.5 101q156 0 260.5 -94.5t104.5 -254.5q0 -156 -101 -252.5t-264 -96.5q-171 0 -268 97t-97 252zM348 742l120 111
l7.5 7.5t8 7.5t7 5.5t8 6t7.5 4t9 3t9 0.5q13 0 22.5 -9t9.5 -21q0 -22 -23 -35l-165 -97q-16 -10 -21 -8q-9 2 -9 11q0 4 10 14z" />
    <glyph glyph-name="Ocircumflex" unicode="&#xd4;" horiz-adv-x="834" 
d="M154 347q0 -136 67 -224.5t196 -88.5t196 88.5t67 224.5q0 81 -28 148t-89 110t-146 43t-146 -43t-89 -110t-28 -148zM52 341q0 147 103.5 248t261.5 101q156 0 260.5 -94.5t104.5 -254.5q0 -156 -101 -252.5t-264 -96.5q-171 0 -268 97t-97 252zM292 741l96 146h58
l97 -146q7 -12 7 -17q-1 -7 -10 -7q-8 0 -23 14l-99 96l-101 -96q-15 -14 -23 -14q-9 0 -10 7q0 4 8 17z" />
    <glyph glyph-name="Otilde" unicode="&#xd5;" horiz-adv-x="834" 
d="M154 347q0 -136 67 -224.5t196 -88.5t196 88.5t67 224.5q0 81 -28 148t-89 110t-146 43t-146 -43t-89 -110t-28 -148zM52 341q0 147 103.5 248t261.5 101q156 0 260.5 -94.5t104.5 -254.5q0 -156 -101 -252.5t-264 -96.5q-171 0 -268 97t-97 252zM532 861h24
q0 -42 -23 -70t-59 -28q-25 0 -69 16t-61 16q-42 0 -42 -42h-24q0 39 22.5 67.5t59.5 28.5q22 0 64 -16t58 -16q22 0 36 11t14 33z" />
    <glyph glyph-name="Odieresis" unicode="&#xd6;" horiz-adv-x="834" 
d="M154 347q0 -136 67 -224.5t196 -88.5t196 88.5t67 224.5q0 81 -28 148t-89 110t-146 43t-146 -43t-89 -110t-28 -148zM52 341q0 147 103.5 248t261.5 101q156 0 260.5 -94.5t104.5 -254.5q0 -156 -101 -252.5t-264 -96.5q-171 0 -268 97t-97 252zM279 806q0 21 15 36
t36 15t36 -15t15 -36t-15 -36t-36 -15t-36 15t-15 36zM453 806q0 21 15 36t36 15t36 -15t15 -36t-15 -36t-36 -15t-36 15t-15 36z" />
    <glyph glyph-name="multiply" unicode="&#xd7;" horiz-adv-x="600" 
d="M254 253l-182 182l45 46l182 -183l183 183l46 -46l-183 -182l183 -182l-46 -46l-183 183l-182 -183l-45 46z" />
    <glyph glyph-name="Oslash" unicode="&#xd8;" horiz-adv-x="834" 
d="M197 159l416 400q-71 89 -196 89q-85 0 -146 -43t-89 -110t-28 -148q0 -109 43 -188zM45 13l92 89q-85 94 -85 239q0 147 103.5 248t261.5 101q146 0 246 -83l96 92l30 -30l-94 -91q87 -95 87 -237q0 -156 -101 -252.5t-264 -96.5q-153 0 -249 80l-93 -89zM637 523
l-416 -400q69 -89 196 -89q129 0 196 88.5t67 224.5q0 102 -43 176z" />
    <glyph glyph-name="Ugrave" unicode="&#xd9;" horiz-adv-x="778" 
d="M32 640v42h270v-42h-90v-372q0 -118 53 -173t143 -55q89 0 143.5 50.5t54.5 144.5v405h-84v42h228v-42h-84v-404q0 -113 -65.5 -178.5t-192.5 -65.5q-150 0 -218 66t-68 197v385h-90zM438 725l-165 97q-23 13 -23 35q0 12 9.5 21t22.5 9q5 0 9 -0.5t9 -3t7.5 -4t8 -6
t7 -5.5t8 -7.5l7.5 -7.5l120 -111q10 -10 10 -14q0 -9 -9 -11q-5 -2 -21 8z" />
    <glyph glyph-name="Uacute" unicode="&#xda;" horiz-adv-x="778" 
d="M32 640v42h270v-42h-90v-372q0 -118 53 -173t143 -55q89 0 143.5 50.5t54.5 144.5v405h-84v42h228v-42h-84v-404q0 -113 -65.5 -178.5t-192.5 -65.5q-150 0 -218 66t-68 197v385h-90zM320 742l120 111l7.5 7.5t8 7.5t7 5.5t8 6t7.5 4t9 3t9 0.5q13 0 22.5 -9t9.5 -21
q0 -22 -23 -35l-165 -97q-16 -10 -21 -8q-9 2 -9 11q0 4 10 14z" />
    <glyph glyph-name="Ucircumflex" unicode="&#xdb;" horiz-adv-x="778" 
d="M32 640v42h270v-42h-90v-372q0 -118 53 -173t143 -55q89 0 143.5 50.5t54.5 144.5v405h-84v42h228v-42h-84v-404q0 -113 -65.5 -178.5t-192.5 -65.5q-150 0 -218 66t-68 197v385h-90zM264 741l96 146h58l97 -146q7 -12 7 -17q-1 -7 -10 -7q-8 0 -23 14l-99 96l-101 -96
q-15 -14 -23 -14q-9 0 -10 7q0 4 8 17z" />
    <glyph glyph-name="Udieresis" unicode="&#xdc;" horiz-adv-x="778" 
d="M32 640v42h270v-42h-90v-372q0 -118 53 -173t143 -55q89 0 143.5 50.5t54.5 144.5v405h-84v42h228v-42h-84v-404q0 -113 -65.5 -178.5t-192.5 -65.5q-150 0 -218 66t-68 197v385h-90zM251 806q0 21 15 36t36 15t36 -15t15 -36t-15 -36t-36 -15t-36 15t-15 36zM425 806
q0 21 15 36t36 15t36 -15t15 -36t-15 -36t-36 -15t-36 15t-15 36z" />
    <glyph glyph-name="Yacute" unicode="&#xdd;" horiz-adv-x="722" 
d="M239 0v42h90v202l-231 396h-78v42h274v-42h-88l188 -333l183 333h-85v42h210v-42h-66l-217 -389v-209h90v-42h-270zM316 742l120 111l7.5 7.5t8 7.5t7 5.5t8 6t7.5 4t9 3t9 0.5q13 0 22.5 -9t9.5 -21q0 -22 -23 -35l-165 -97q-16 -10 -21 -8q-9 2 -9 11q0 4 10 14z" />
    <glyph glyph-name="Thorn" unicode="&#xde;" horiz-adv-x="611" 
d="M32 0v42h90v598h-90v42h270v-42h-90v-63h104q52 0 95.5 -10.5t80 -32.5t57.5 -63t21 -97q0 -102 -70 -155.5t-184 -53.5q-60 0 -104 7v-130h90v-42h-270zM212 535v-316q46 -6 93 -6q169 0 169 161q0 76 -46 118.5t-135 42.5h-81z" />
    <glyph glyph-name="germandbls" unicode="&#xdf;" 
d="M19 0v42h78v489q0 159 186 159q71 0 122 -35t51 -103q0 -57 -33.5 -91t-87.5 -44v-2q176 -27 176 -220q-1 -39 -8.5 -73t-24 -65.5t-47.5 -50t-74 -18.5q-90 0 -90 92v13h42v-10q0 -59 46 -59q60 0 60 154q0 114 -28.5 164.5t-106.5 50.5h-23v42h27q41 0 67.5 31t26.5 80
t-29 78.5t-74 29.5t-69.5 -29.5t-24.5 -82.5v-500h55v-42h-217z" />
    <glyph glyph-name="agrave" unicode="&#xe0;" 
d="M445 42h81v-42h-163v59h-2q-43 -71 -146 -71q-76 0 -123 43.5t-47 121.5q0 77 50.5 121.5t131.5 44.5q89 0 132 -70h2v102q0 97 -102 97q-37 0 -72 -18.5t-58 -46.5l-43 42q75 59 180 59q179 0 179 -148v-294zM361 115v72q0 33 -36.5 58.5t-75.5 25.5q-48 0 -81 -32
t-33 -80q0 -60 30.5 -91.5t80.5 -31.5q47 0 81 27.5t34 51.5zM327 550l-165 97q-23 13 -23 35q0 12 9.5 21t22.5 9q5 0 9 -0.5t9 -3t7.5 -4t8 -6t7 -5.5t8 -7.5l7.5 -7.5l120 -111q10 -10 10 -14q0 -9 -9 -11q-5 -2 -21 8z" />
    <glyph glyph-name="aacute" unicode="&#xe1;" 
d="M445 42h81v-42h-163v59h-2q-43 -71 -146 -71q-76 0 -123 43.5t-47 121.5q0 77 50.5 121.5t131.5 44.5q89 0 132 -70h2v102q0 97 -102 97q-37 0 -72 -18.5t-58 -46.5l-43 42q75 59 180 59q179 0 179 -148v-294zM361 115v72q0 33 -36.5 58.5t-75.5 25.5q-48 0 -81 -32
t-33 -80q0 -60 30.5 -91.5t80.5 -31.5q47 0 81 27.5t34 51.5zM209 567l120 111l7.5 7.5t8 7.5t7 5.5t8 6t7.5 4t9 3t9 0.5q13 0 22.5 -9t9.5 -21q0 -22 -23 -35l-165 -97q-16 -10 -21 -8q-9 2 -9 11q0 4 10 14z" />
    <glyph glyph-name="acircumflex" unicode="&#xe2;" 
d="M445 42h81v-42h-163v59h-2q-43 -71 -146 -71q-76 0 -123 43.5t-47 121.5q0 77 50.5 121.5t131.5 44.5q89 0 132 -70h2v102q0 97 -102 97q-37 0 -72 -18.5t-58 -46.5l-43 42q75 59 180 59q179 0 179 -148v-294zM361 115v72q0 33 -36.5 58.5t-75.5 25.5q-48 0 -81 -32
t-33 -80q0 -60 30.5 -91.5t80.5 -31.5q47 0 81 27.5t34 51.5zM153 566l96 146h58l97 -146q7 -12 7 -17q-1 -7 -10 -7q-8 0 -23 14l-99 96l-101 -96q-15 -14 -23 -14q-9 0 -10 7q0 4 8 17z" />
    <glyph glyph-name="atilde" unicode="&#xe3;" 
d="M445 42h81v-42h-163v59h-2q-43 -71 -146 -71q-76 0 -123 43.5t-47 121.5q0 77 50.5 121.5t131.5 44.5q89 0 132 -70h2v102q0 97 -102 97q-37 0 -72 -18.5t-58 -46.5l-43 42q75 59 180 59q179 0 179 -148v-294zM361 115v72q0 33 -36.5 58.5t-75.5 25.5q-48 0 -81 -32
t-33 -80q0 -60 30.5 -91.5t80.5 -31.5q47 0 81 27.5t34 51.5zM393 686h24q0 -42 -23 -70t-59 -28q-25 0 -69 16t-61 16q-42 0 -42 -42h-24q0 39 22.5 67.5t59.5 28.5q22 0 64 -16t58 -16q22 0 36 11t14 33z" />
    <glyph glyph-name="adieresis" unicode="&#xe4;" 
d="M445 42h81v-42h-163v59h-2q-43 -71 -146 -71q-76 0 -123 43.5t-47 121.5q0 77 50.5 121.5t131.5 44.5q89 0 132 -70h2v102q0 97 -102 97q-37 0 -72 -18.5t-58 -46.5l-43 42q75 59 180 59q179 0 179 -148v-294zM361 115v72q0 33 -36.5 58.5t-75.5 25.5q-48 0 -81 -32
t-33 -80q0 -60 30.5 -91.5t80.5 -31.5q47 0 81 27.5t34 51.5zM140 631q0 21 15 36t36 15t36 -15t15 -36t-15 -36t-36 -15t-36 15t-15 36zM314 631q0 21 15 36t36 15t36 -15t15 -36t-15 -36t-36 -15t-36 15t-15 36z" />
    <glyph glyph-name="aring" unicode="&#xe5;" 
d="M445 42h81v-42h-163v59h-2q-43 -71 -146 -71q-76 0 -123 43.5t-47 121.5q0 77 50.5 121.5t131.5 44.5q89 0 132 -70h2v102q0 97 -102 97q-37 0 -72 -18.5t-58 -46.5l-43 42q75 59 180 59q179 0 179 -148v-294zM361 115v72q0 33 -36.5 58.5t-75.5 25.5q-48 0 -81 -32
t-33 -80q0 -60 30.5 -91.5t80.5 -31.5q47 0 81 27.5t34 51.5zM165 632q0 42 29.5 71.5t71.5 29.5t71.5 -29.5t29.5 -71.5t-29.5 -71.5t-71.5 -29.5t-71.5 29.5t-29.5 71.5zM201 632q0 -27 19 -46t46 -19t46 19t19 46t-19 46t-46 19t-46 -19t-19 -46z" />
    <glyph glyph-name="ae" unicode="&#xe6;" horiz-adv-x="834" 
d="M121 387l-46 41q63 56 173 56q105 0 161 -68q64 68 160 68q99 0 161.5 -64t62.5 -186h-358q0 -204 161 -204q107 0 162 86l42 -34q-44 -53 -94.5 -73.5t-123.5 -20.5q-69 0 -123 26.5t-83 78.5q-50 -105 -172 -105q-74 0 -122 46t-48 120q0 73 50.5 119t125.5 46
q50 0 88.5 -20t50.5 -57h2v100q0 48 -28 74t-77 26q-79 0 -125 -55zM351 125v58q0 29 -34 58.5t-79 29.5q-52 0 -83 -29.5t-31 -86.5q0 -51 29.5 -85t85.5 -34q41 0 76.5 30t35.5 59zM435 276h268q0 73 -32 119.5t-98 46.5q-138 0 -138 -166z" />
    <glyph glyph-name="ccedilla" unicode="&#xe7;" horiz-adv-x="500" 
d="M297 -12l-22 -57q22 2 36 2q31 0 53 -18.5t22 -50.5q0 -44 -36.5 -64t-85.5 -20q-45 0 -106 26l15 30q38 -20 82 -20q26 0 42.5 10.5t16.5 31.5q0 39 -54 39q-14 0 -38 -4l39 96q-99 7 -157.5 72t-58.5 166q0 109 63 183t159 74q86 0 139 -58h2v52h45l6 -154h-47v14
q0 40 -37.5 69t-82.5 29q-77 0 -114 -60t-37 -149q0 -82 39.5 -139.5t118.5 -57.5q47 0 79 13.5t60 46.5l32 -30q-52 -68 -173 -72z" />
    <glyph glyph-name="egrave" unicode="&#xe8;" 
d="M503 224h-362q0 -98 45.5 -146t124.5 -48q98 0 159 90l41 -34q-31 -50 -91 -74t-126 -24q-119 0 -184 68.5t-65 179.5q0 110 66 179t167 69q97 0 161 -59.5t64 -175.5v-25zM141 266h272q0 78 -32 127t-103 49q-70 0 -103.5 -50t-33.5 -126zM327 550l-165 97
q-23 13 -23 35q0 12 9.5 21t22.5 9q5 0 9 -0.5t9 -3t7.5 -4t8 -6t7 -5.5t8 -7.5l7.5 -7.5l120 -111q10 -10 10 -14q0 -9 -9 -11q-5 -2 -21 8z" />
    <glyph glyph-name="eacute" unicode="&#xe9;" 
d="M503 224h-362q0 -98 45.5 -146t124.5 -48q98 0 159 90l41 -34q-31 -50 -91 -74t-126 -24q-119 0 -184 68.5t-65 179.5q0 110 66 179t167 69q97 0 161 -59.5t64 -175.5v-25zM141 266h272q0 78 -32 127t-103 49q-70 0 -103.5 -50t-33.5 -126zM209 567l120 111l7.5 7.5
t8 7.5t7 5.5t8 6t7.5 4t9 3t9 0.5q13 0 22.5 -9t9.5 -21q0 -22 -23 -35l-165 -97q-16 -10 -21 -8q-9 2 -9 11q0 4 10 14z" />
    <glyph glyph-name="ecircumflex" unicode="&#xea;" 
d="M503 224h-362q0 -98 45.5 -146t124.5 -48q98 0 159 90l41 -34q-31 -50 -91 -74t-126 -24q-119 0 -184 68.5t-65 179.5q0 110 66 179t167 69q97 0 161 -59.5t64 -175.5v-25zM141 266h272q0 78 -32 127t-103 49q-70 0 -103.5 -50t-33.5 -126zM153 566l96 146h58l97 -146
q7 -12 7 -17q-1 -7 -10 -7q-8 0 -23 14l-99 96l-101 -96q-15 -14 -23 -14q-9 0 -10 7q0 4 8 17z" />
    <glyph glyph-name="edieresis" unicode="&#xeb;" 
d="M503 224h-362q0 -98 45.5 -146t124.5 -48q98 0 159 90l41 -34q-31 -50 -91 -74t-126 -24q-119 0 -184 68.5t-65 179.5q0 110 66 179t167 69q97 0 161 -59.5t64 -175.5v-25zM141 266h272q0 78 -32 127t-103 49q-70 0 -103.5 -50t-33.5 -126zM140 631q0 21 15 36t36 15
t36 -15t15 -36t-15 -36t-36 -15t-36 15t-15 36zM314 631q0 21 15 36t36 15t36 -15t15 -36t-15 -36t-36 -15t-36 15t-15 36z" />
    <glyph glyph-name="igrave" unicode="&#xec;" horiz-adv-x="296" 
d="M19 0v42h87v388h-87v42h171v-430h87v-42h-258zM197 550l-165 97q-23 13 -23 35q0 12 9.5 21t22.5 9q5 0 9 -0.5t9 -3t7.5 -4t8 -6t7 -5.5t8 -7.5l7.5 -7.5l120 -111q10 -10 10 -14q0 -9 -9 -11q-5 -2 -21 8z" />
    <glyph glyph-name="iacute" unicode="&#xed;" horiz-adv-x="296" 
d="M19 0v42h87v388h-87v42h171v-430h87v-42h-258zM79 567l120 111l7.5 7.5t8 7.5t7 5.5t8 6t7.5 4t9 3t9 0.5q13 0 22.5 -9t9.5 -21q0 -22 -23 -35l-165 -97q-16 -10 -21 -8q-9 2 -9 11q0 4 10 14z" />
    <glyph glyph-name="icircumflex" unicode="&#xee;" horiz-adv-x="296" 
d="M19 0v42h87v388h-87v42h171v-430h87v-42h-258zM23 566l96 146h58l97 -146q7 -12 7 -17q-1 -7 -10 -7q-8 0 -23 14l-99 96l-101 -96q-15 -14 -23 -14q-9 0 -10 7q0 4 8 17z" />
    <glyph glyph-name="idieresis" unicode="&#xef;" horiz-adv-x="296" 
d="M19 0v42h87v388h-87v42h171v-430h87v-42h-258zM10 631q0 21 15 36t36 15t36 -15t15 -36t-15 -36t-36 -15t-36 15t-15 36zM184 631q0 21 15 36t36 15t36 -15t15 -36t-15 -36t-36 -15t-36 15t-15 36z" />
    <glyph glyph-name="eth" unicode="&#xf0;" 
d="M95 677l7 30q109 -11 173 -44l107 65l33 -27l-101 -61q103 -61 150 -155t47 -229q0 -129 -63.5 -198.5t-169.5 -69.5q-101 0 -167 69t-66 179q0 109 65 178.5t158 69.5q105 0 145 -86h2q-10 57 -52 119t-94 96l-105 -64l-28 30l100 61q-64 31 -141 37zM141 236
q0 -206 137 -206t137 206t-137 206t-137 -206z" />
    <glyph glyph-name="ntilde" unicode="&#xf1;" horiz-adv-x="611" 
d="M106 42v388h-81v42h165v-74h2q47 86 158 86q65 0 110 -34t45 -103v-305h81v-42h-246v42h81v290q0 44 -26.5 71t-71.5 27q-58 0 -95.5 -41t-37.5 -99v-248h81v-42h-246v42h81zM421 686h24q0 -42 -23 -70t-59 -28q-25 0 -69 16t-61 16q-42 0 -42 -42h-24q0 39 22.5 67.5
t59.5 28.5q22 0 64 -16t58 -16q22 0 36 11t14 33z" />
    <glyph glyph-name="ograve" unicode="&#xf2;" 
d="M141 236q0 -206 137 -206t137 206t-137 206t-137 -206zM45 236q0 110 66 179t167 69t167 -69t66 -179t-66 -179t-167 -69t-167 69t-66 179zM327 550l-165 97q-23 13 -23 35q0 12 9.5 21t22.5 9q5 0 9 -0.5t9 -3t7.5 -4t8 -6t7 -5.5t8 -7.5l7.5 -7.5l120 -111
q10 -10 10 -14q0 -9 -9 -11q-5 -2 -21 8z" />
    <glyph glyph-name="oacute" unicode="&#xf3;" 
d="M141 236q0 -206 137 -206t137 206t-137 206t-137 -206zM45 236q0 110 66 179t167 69t167 -69t66 -179t-66 -179t-167 -69t-167 69t-66 179zM209 567l120 111l7.5 7.5t8 7.5t7 5.5t8 6t7.5 4t9 3t9 0.5q13 0 22.5 -9t9.5 -21q0 -22 -23 -35l-165 -97q-16 -10 -21 -8
q-9 2 -9 11q0 4 10 14z" />
    <glyph glyph-name="ocircumflex" unicode="&#xf4;" 
d="M141 236q0 -206 137 -206t137 206t-137 206t-137 -206zM45 236q0 110 66 179t167 69t167 -69t66 -179t-66 -179t-167 -69t-167 69t-66 179zM153 566l96 146h58l97 -146q7 -12 7 -17q-1 -7 -10 -7q-8 0 -23 14l-99 96l-101 -96q-15 -14 -23 -14q-9 0 -10 7q0 4 8 17z" />
    <glyph glyph-name="otilde" unicode="&#xf5;" 
d="M141 236q0 -206 137 -206t137 206t-137 206t-137 -206zM45 236q0 110 66 179t167 69t167 -69t66 -179t-66 -179t-167 -69t-167 69t-66 179zM393 686h24q0 -42 -23 -70t-59 -28q-25 0 -69 16t-61 16q-42 0 -42 -42h-24q0 39 22.5 67.5t59.5 28.5q22 0 64 -16t58 -16
q22 0 36 11t14 33z" />
    <glyph glyph-name="odieresis" unicode="&#xf6;" 
d="M141 236q0 -206 137 -206t137 206t-137 206t-137 -206zM45 236q0 110 66 179t167 69t167 -69t66 -179t-66 -179t-167 -69t-167 69t-66 179zM140 631q0 21 15 36t36 15t36 -15t15 -36t-15 -36t-36 -15t-36 15t-15 36zM314 631q0 21 15 36t36 15t36 -15t15 -36t-15 -36
t-36 -15t-36 15t-15 36z" />
    <glyph glyph-name="divide" unicode="&#xf7;" horiz-adv-x="600" 
d="M47 220v66h506v-66h-506zM237 455q0 26 18.5 44.5t44.5 18.5t44.5 -18.5t18.5 -44.5t-18.5 -44.5t-44.5 -18.5t-44.5 18.5t-18.5 44.5zM237 51q0 26 18.5 44.5t44.5 18.5t44.5 -18.5t18.5 -44.5t-18.5 -44.5t-44.5 -18.5t-44.5 18.5t-18.5 44.5z" />
    <glyph glyph-name="oslash" unicode="&#xf8;" 
d="M154 133l232 246q-36 63 -108 63q-137 0 -137 -206q0 -58 13 -103zM402 340l-232 -247q34 -63 108 -63q137 0 137 206q0 59 -13 104zM35 6l62 67q-52 66 -52 163q0 110 66 179t167 69q93 0 154 -56l59 62l30 -24l-63 -66q53 -67 53 -164q0 -110 -66 -179t-167 -69
q-91 0 -154 57l-59 -63z" />
    <glyph glyph-name="ugrave" unicode="&#xf9;" horiz-adv-x="611" 
d="M505 472v-430h81v-42h-165v68h-2q-48 -80 -155 -80q-75 0 -116.5 36.5t-41.5 110.5v295h-81v42h165v-324q0 -112 100 -112q62 0 96.5 37.5t34.5 90.5v266h-81v42h165zM355 550l-165 97q-23 13 -23 35q0 12 9.5 21t22.5 9q5 0 9 -0.5t9 -3t7.5 -4t8 -6t7 -5.5t8 -7.5
l7.5 -7.5l120 -111q10 -10 10 -14q0 -9 -9 -11q-5 -2 -21 8z" />
    <glyph glyph-name="uacute" unicode="&#xfa;" horiz-adv-x="611" 
d="M505 472v-430h81v-42h-165v68h-2q-48 -80 -155 -80q-75 0 -116.5 36.5t-41.5 110.5v295h-81v42h165v-324q0 -112 100 -112q62 0 96.5 37.5t34.5 90.5v266h-81v42h165zM237 567l120 111l7.5 7.5t8 7.5t7 5.5t8 6t7.5 4t9 3t9 0.5q13 0 22.5 -9t9.5 -21q0 -22 -23 -35
l-165 -97q-16 -10 -21 -8q-9 2 -9 11q0 4 10 14z" />
    <glyph glyph-name="ucircumflex" unicode="&#xfb;" horiz-adv-x="611" 
d="M505 472v-430h81v-42h-165v68h-2q-48 -80 -155 -80q-75 0 -116.5 36.5t-41.5 110.5v295h-81v42h165v-324q0 -112 100 -112q62 0 96.5 37.5t34.5 90.5v266h-81v42h165zM181 566l96 146h58l97 -146q7 -12 7 -17q-1 -7 -10 -7q-8 0 -23 14l-99 96l-101 -96q-15 -14 -23 -14
q-9 0 -10 7q0 4 8 17z" />
    <glyph glyph-name="udieresis" unicode="&#xfc;" horiz-adv-x="611" 
d="M505 472v-430h81v-42h-165v68h-2q-48 -80 -155 -80q-75 0 -116.5 36.5t-41.5 110.5v295h-81v42h165v-324q0 -112 100 -112q62 0 96.5 37.5t34.5 90.5v266h-81v42h165zM168 631q0 21 15 36t36 15t36 -15t15 -36t-15 -36t-36 -15t-36 15t-15 36zM342 631q0 21 15 36t36 15
t36 -15t15 -36t-15 -36t-36 -15t-36 15t-15 36z" />
    <glyph glyph-name="yacute" unicode="&#xfd;" 
d="M89 -220v42h81l76 179l-180 429h-57v42h222v-42h-79l137 -334l137 334h-81v42h190v-42h-55l-256 -608h81v-42h-216zM209 567l120 111l7.5 7.5t8 7.5t7 5.5t8 6t7.5 4t9 3t9 0.5q13 0 22.5 -9t9.5 -21q0 -22 -23 -35l-165 -97q-16 -10 -21 -8q-9 2 -9 11q0 4 10 14z" />
    <glyph glyph-name="thorn" unicode="&#xfe;" horiz-adv-x="611" 
d="M190 236q0 -206 137 -206t137 212q0 99 -37 149t-100 51q-67 1 -103 -57t-34 -149zM106 -178v822l-84 -4v42l168 8v-296h2q48 90 154 90q100 0 157 -71t57 -171q0 -106 -59.5 -180t-164.5 -74q-43 0 -82 21t-62 58h-2v-245h84v-42h-258v42h90z" />
    <glyph glyph-name="ydieresis" unicode="&#xff;" 
d="M89 -220v42h81l76 179l-180 429h-57v42h222v-42h-79l137 -334l137 334h-81v42h190v-42h-55l-256 -608h81v-42h-216zM140 631q0 21 15 36t36 15t36 -15t15 -36t-15 -36t-36 -15t-36 15t-15 36zM314 631q0 21 15 36t36 15t36 -15t15 -36t-15 -36t-36 -15t-36 15t-15 36z
" />
    <glyph glyph-name="dotlessi" unicode="&#x131;" horiz-adv-x="296" 
d="M19 0v42h87v388h-87v42h171v-430h87v-42h-258z" />
    <glyph glyph-name="Lslash" unicode="&#x141;" horiz-adv-x="611" 
d="M32 0v42h90v263l-90 -46v57l90 46v278h-90v42h270v-42h-90v-233l180 91v-57l-180 -90v-291h296v102h66v-162h-542z" />
    <glyph glyph-name="lslash" unicode="&#x142;" horiz-adv-x="296" 
d="M19 0v42h87v263l-87 -46v57l87 46v282l-87 -4v42l171 8v-286l87 42v-57l-87 -42v-305h87v-42h-258z" />
    <glyph glyph-name="OE" unicode="&#x152;" horiz-adv-x="1000" 
d="M141 338q0 -304 214 -304q59 0 102 26t66.5 70.5t34.5 96t11 111.5q0 144 -54 227t-160 83q-61 0 -105.5 -29t-66.5 -77t-32 -98.5t-10 -105.5zM907 60v86h54v-146h-392v93h-2q-33 -51 -90 -76t-123 -25q-87 0 -150.5 29.5t-98 80.5t-50.5 110t-16 129q0 67 19.5 128.5
t57 111t99.5 79.5t139 30q147 0 213 -95h2v87h392v-137h-54v77h-254v-239h205v76h54v-202h-54v84h-205v-281h254z" />
    <glyph glyph-name="oe" unicode="&#x153;" horiz-adv-x="944" 
d="M523 276h271q0 71 -32 118.5t-103 47.5q-68 0 -102 -49t-34 -117zM152 236q0 -206 137 -206q138 0 138 206t-138 206q-137 0 -137 -206zM846 116l42 -34q-44 -53 -94.5 -73.5t-123.5 -20.5q-132 0 -197 89q-67 -89 -184 -89q-101 0 -167 69t-66 179t66 179t167 69
q118 0 185 -91q63 91 186 91q99 0 161.5 -64t62.5 -186h-361q0 -204 161 -204q107 0 162 86z" />
    <glyph glyph-name="Scaron" unicode="&#x160;" horiz-adv-x="611" 
d="M524 682v-174h-54v6q0 64 -59 99t-130 35q-59 0 -99 -26.5t-40 -79.5q0 -34 23 -60t59.5 -42.5t81 -31.5t89 -33.5t81 -41.5t59.5 -60.5t23 -87.5q0 -94 -70 -143.5t-172 -49.5q-127 0 -195 46v-38h-60v180h60v-43q0 -28 21 -49t53 -32t61.5 -16.5t54.5 -5.5
q67 0 115 28.5t48 86.5q0 40 -23 69.5t-59.5 47.5t-81 33.5t-89 32.5t-81 38.5t-59.5 58.5t-23 87q0 85 64.5 129.5t157.5 44.5q127 0 190 -58v50h54zM277 717l-96 146q-8 13 -8 17q1 7 10 7q8 0 23 -14l101 -96l99 96q15 14 23 14q9 0 10 -7q0 -5 -7 -17l-97 -146h-58z" />
    <glyph glyph-name="scaron" unicode="&#x161;" horiz-adv-x="444" 
d="M49 0v132h50v-22q0 -29 40 -54.5t87 -25.5q32 0 61.5 20t29.5 57q0 35 -28 55.5t-68 31.5t-80 24.5t-68 46t-28 83.5q0 66 45 101t114 35q34 0 68 -14.5t47 -37.5h2v40h48v-114h-50v23q0 19 -34 40t-78 21q-41 0 -65.5 -18t-24.5 -53q0 -27 20.5 -45.5t51.5 -27t67 -21
t67 -26.5t51.5 -43.5t20.5 -72.5q0 -66 -47.5 -106.5t-112.5 -40.5q-91 0 -136 60h-2v-48h-48zM193 542l-96 146q-8 13 -8 17q1 7 10 7q8 0 23 -14l101 -96l99 96q15 14 23 14q9 0 10 -7q0 -5 -7 -17l-97 -146h-58z" />
    <glyph glyph-name="Ydieresis" unicode="&#x178;" horiz-adv-x="722" 
d="M239 0v42h90v202l-231 396h-78v42h274v-42h-88l188 -333l183 333h-85v42h210v-42h-66l-217 -389v-209h90v-42h-270zM223 806q0 21 15 36t36 15t36 -15t15 -36t-15 -36t-36 -15t-36 15t-15 36zM397 806q0 21 15 36t36 15t36 -15t15 -36t-15 -36t-36 -15t-36 15t-15 36z
" />
    <glyph glyph-name="Zcaron" unicode="&#x17d;" horiz-adv-x="667" 
d="M56 545v137h547v-18l-427 -604h389v90h60v-150h-555q-28 0 -28 2v13q0 4 35 53l392 554h-353v-77h-60zM305 717l-96 146q-8 13 -8 17q1 7 10 7q8 0 23 -14l101 -96l99 96q15 14 23 14q9 0 10 -7q0 -5 -7 -17l-97 -146h-58z" />
    <glyph glyph-name="zcaron" unicode="&#x17e;" horiz-adv-x="500" 
d="M44 334v138h405v-18l-300 -412h243v95h54v-137h-407q-11 0 -11 2v12q0 5 21 32l284 384h-235v-96h-54zM221 542l-96 146q-8 13 -8 17q1 7 10 7q8 0 23 -14l101 -96l99 96q15 14 23 14q9 0 10 -7q0 -5 -7 -17l-97 -146h-58z" />
    <glyph glyph-name="florin" unicode="&#x192;" 
d="M123 379l8 42h109l26 133q12 61 52.5 98.5t101.5 37.5q60 0 85 -37l-45 -59h-12q-2 31 -11 45.5t-30 14.5q-42 0 -56 -74l-31 -159h122l-8 -42h-122l-81 -417q-11 -55 -31 -93.5t-44.5 -56.5t-46 -25t-43.5 -7q-68 0 -84 51l52 48h12q-5 -28 1.5 -42.5t32.5 -14.5
q20 0 33 15.5t18 31.5t10 43l91 467h-109z" />
    <glyph glyph-name="circumflex" unicode="&#x2c6;" horiz-adv-x="278" 
d="M14 566l96 146h58l97 -146q7 -12 7 -17q-1 -7 -10 -7q-8 0 -23 14l-99 96l-101 -96q-15 -14 -23 -14q-9 0 -10 7q0 4 8 17z" />
    <glyph glyph-name="caron" unicode="&#x2c7;" horiz-adv-x="278" 
d="M110 542l-96 146q-8 13 -8 17q1 7 10 7q8 0 23 -14l101 -96l99 96q15 14 23 14q9 0 10 -7q0 -5 -7 -17l-97 -146h-58z" />
    <glyph glyph-name="uni02C9" unicode="&#x2c9;" horiz-adv-x="278" 
d="M0 612v48h278v-48h-278z" />
    <glyph glyph-name="breve" unicode="&#x2d8;" horiz-adv-x="278" 
d="M252 713h24q0 -82 -35.5 -125t-101.5 -43t-101.5 43t-35.5 125h24q4 -48 34 -78t79 -30t79 30t34 78z" />
    <glyph glyph-name="dotaccent" unicode="&#x2d9;" horiz-adv-x="278" 
d="M88 631q0 21 15 36t36 15t36 -15t15 -36t-15 -36t-36 -15t-36 15t-15 36z" />
    <glyph glyph-name="ring" unicode="&#x2da;" horiz-adv-x="278" 
d="M38 632q0 42 29.5 71.5t71.5 29.5t71.5 -29.5t29.5 -71.5t-29.5 -71.5t-71.5 -29.5t-71.5 29.5t-29.5 71.5zM74 632q0 -27 19 -46t46 -19t46 19t19 46t-19 46t-46 19t-46 -19t-19 -46z" />
    <glyph glyph-name="ogonek" unicode="&#x2db;" horiz-adv-x="278" 
d="M194 0h36q-78 -54 -78 -130q0 -54 49 -54q29 0 65 13l6 -32q-49 -17 -88 -17q-104 0 -104 79q-2 67 114 141z" />
    <glyph glyph-name="tilde" unicode="&#x2dc;" horiz-adv-x="278" 
d="M254 686h24q0 -42 -23 -70t-59 -28q-25 0 -69 16t-61 16q-42 0 -42 -42h-24q0 39 22.5 67.5t59.5 28.5q22 0 64 -16t58 -16q22 0 36 11t14 33z" />
    <glyph glyph-name="hungarumlaut" unicode="&#x2dd;" horiz-adv-x="278" 
d="M-18 567l120 111l7.5 7.5t8 7.5t7 5.5t8 6t7.5 4t9 3t9 0.5q13 0 22.5 -9t9.5 -21q0 -22 -23 -35l-165 -97q-16 -10 -21 -8q-9 2 -9 11q0 4 10 14zM158 567l120 111l7.5 7.5t8 7.5t7 5.5t8 6t7.5 4t9 3t9 0.5q13 0 22.5 -9t9.5 -21q0 -22 -23 -35l-165 -97
q-16 -10 -21 -8q-9 2 -9 11q0 4 10 14z" />
    <glyph glyph-name="uni03A9" unicode="&#x3a9;" horiz-adv-x="728" 
d="M693 139l-25 -139h-235l-7 19q4 8 29 50t37 66.5t30 66t26 82t8 81.5q0 144 -55.5 212t-138.5 68q-86 0 -139 -68.5t-53 -216.5q0 -22 2 -44t8 -44.5t10.5 -40t15.5 -41.5t16.5 -36.5t19.5 -37.5t18 -32.5t20 -34t18 -30.5l-8 -19h-233l-23 139l24 1q15 -46 30 -60
t46 -14h105q-32 27 -54 49.5t-51.5 61t-45.5 87t-16 103.5q0 138 83.5 223t209.5 85q128 0 208 -81t80 -219q0 -49 -15 -94.5t-43.5 -86t-52.5 -68t-59 -60.5h110q32 0 45.5 12.5t28.5 61.5z" />
    <glyph glyph-name="uni03BC" unicode="&#x3bc;" horiz-adv-x="611" 
d="M505 472v-430h81v-42h-165v68h-2q-48 -80 -155 -80q-52 0 -86 21q0 -41 4.5 -98t4.5 -80q0 -51 -45 -51t-45 51q0 23 4.5 79t4.5 95v425h-81v42h165v-335q0 -45 25.5 -73t74.5 -28q62 0 96.5 37.5t34.5 90.5v266h-81v42h165z" />
    <glyph glyph-name="pi" unicode="&#x3c0;" horiz-adv-x="560" 
d="M508 460l23 -9q-10 -55 -35 -87q-20 -5 -68 -5q-4 -47 -4 -227q0 -88 44 -88q22 0 49 30l12 -20q-37 -66 -101 -66q-42 0 -65 27.5t-23 96.5q0 83 11 250q-118 2 -157 2v-18q0 -100 -14 -181t-27 -114.5t-24 -45.5q-34 -14 -58 -17l-6 17q49 60 70.5 163t21.5 197
q-45 0 -69.5 -10t-57.5 -35l-14 22q1 2 10 12t12 13.5t12 13t15 13.5l16.5 11t20.5 10.5t22.5 7.5t27.5 5.5t31 1.5q33 0 124 -1.5t142 -1.5q23 0 35 6.5t24 26.5z" />
    <glyph glyph-name="endash" unicode="&#x2013;" horiz-adv-x="500" 
d="M0 210v54h500v-54h-500z" />
    <glyph glyph-name="emdash" unicode="&#x2014;" horiz-adv-x="1000" 
d="M0 210v54h1000v-54h-1000z" />
    <glyph glyph-name="quoteleft" unicode="&#x2018;" horiz-adv-x="278" 
d="M82 438l72 244h42l-20 -244h-94z" />
    <glyph glyph-name="quoteright" unicode="&#x2019;" horiz-adv-x="278" 
d="M82 438l20 244h94l-72 -244h-42z" />
    <glyph glyph-name="quotesinglbase" unicode="&#x201a;" horiz-adv-x="278" 
d="M82 -130l18 244h96l-72 -244h-42z" />
    <glyph glyph-name="quotedblleft" unicode="&#x201c;" 
d="M299 438l72 244h42l-20 -244h-94zM143 438l72 244h42l-20 -244h-94z" />
    <glyph glyph-name="quotedblright" unicode="&#x201d;" 
d="M143 438l20 244h94l-72 -244h-42zM299 438l20 244h94l-72 -244h-42z" />
    <glyph glyph-name="quotedblbase" unicode="&#x201e;" 
d="M143 -130l20 244h94l-72 -244h-42zM299 -130l20 244h94l-72 -244h-42z" />
    <glyph glyph-name="dagger" unicode="&#x2020;" 
d="M236 42v343h-123v-77h-42v220h42v-77h123v161h-88v42h260v-42h-88v-161h123v77h42v-220h-42v77h-123v-343h88v-42h-260v42h88z" />
    <glyph glyph-name="daggerdbl" unicode="&#x2021;" 
d="M239 42v114h-126v-48h-42v156h42v-48h126v222h-126v-48h-42v156h42v-48h126v114h-73v42h224v-42h-73v-114h126v48h42v-156h-42v48h-126v-222h126v48h42v-156h-42v48h-126v-114h75v-42h-228v42h75z" />
    <glyph glyph-name="bullet" unicode="&#x2022;" horiz-adv-x="500" 
d="M80 341q0 71 50 120.5t120 49.5q71 0 121 -50t50 -120q0 -71 -50.5 -121t-120.5 -50t-120 50t-50 121z" />
    <glyph glyph-name="ellipsis" unicode="&#x2026;" horiz-adv-x="1000" 
d="M167 -12q-48 0 -48 63t48 63t48 -63t-48 -63zM500 -12q-48 0 -48 63t48 63t48 -63t-48 -63zM833 -12q-48 0 -48 63t48 63t48 -63t-48 -63z" />
    <glyph glyph-name="perthousand" unicode="&#x2030;" horiz-adv-x="1000" 
d="M362 150q0 73 41 115.5t99 42.5t99 -42.5t41 -115.5t-41 -115.5t-99 -42.5t-99 42.5t-41 115.5zM428 150q0 -134 74 -134t74 134t-74 134t-74 -134zM685 150q0 73 41 115.5t99 42.5t99 -42.5t41 -115.5t-41 -115.5t-99 -42.5t-99 42.5t-41 115.5zM751 150q0 -134 74 -134
t74 134t-74 134t-74 -134zM35 524q0 73 41 115.5t99 42.5t99 -42.5t41 -115.5t-41 -115.5t-99 -42.5t-99 42.5t-41 115.5zM101 524q0 -134 74 -134t74 134t-74 134t-74 -134zM92 -28l451 730h48l-451 -730h-48z" />
    <glyph glyph-name="guilsinglleft" unicode="&#x2039;" horiz-adv-x="278" 
d="M40 237l138 183h60l-138 -183l138 -183h-60z" />
    <glyph glyph-name="guilsinglright" unicode="&#x203a;" horiz-adv-x="278" 
d="M238 237l-138 -183h-60l138 183l-138 183h60z" />
    <glyph glyph-name="fraction" unicode="&#x2044;" horiz-adv-x="167" 
d="M285 702h48l-451 -730h-48z" />
    <glyph glyph-name="Euro" unicode="&#x20ac;" 
d="M520 683v-170h-60v8q0 61 -27 91.5t-76 30.5q-152 0 -176 -247h273l-15 -36h-259q-1 -9 -1 -23v-26h236l-15 -36h-219q8 -113 56.5 -176.5t121.5 -63.5q41 0 65.5 11t50.5 43l30 -38q-47 -58 -166 -58q-106 0 -172.5 76t-78.5 206h-68l15 36h49q-1 9 -1 28q0 13 1 21h-64
l15 36h52q15 131 77 208.5t175 77.5q84 0 121 -34v35h60z" />
    <glyph glyph-name="afii61289" unicode="&#x2113;" horiz-adv-x="405" 
d="M368 120l19 -17q-58 -109 -164 -109q-67 0 -99 38q-34 42 -34 141v77l-60 -43l-12 23l72 56v124q0 120 10 171.5t41 87.5q37 46 86 46q43 0 66 -37t23 -91q0 -80 -38 -148t-108 -138v-88q0 -92 22 -128.5t67 -36.5q60 0 109 72zM170 468v-123q95 111 95 240q0 44 -12 72
t-34 28q-28 0 -38.5 -48.5t-10.5 -168.5z" />
    <glyph glyph-name="trademark" unicode="&#x2122;" horiz-adv-x="990" 
d="M376 682v-88h-24q0 29 -16.5 46.5t-46.5 17.5h-50v-308q0 -24 7.5 -35.5t16 -13t26.5 -1.5v-24h-171v24q13 0 19 1t14.5 5t12 15t3.5 29v308h-49q-31 0 -47.5 -17.5t-16.5 -46.5h-24v88h346zM668 276l-150 304h-2v-230q0 -18 3.5 -28.5t12 -15t16 -5.5t22.5 -1v-24h-131
v24q19 0 27.5 1.5t17 13t8.5 35.5v266v2q-20 37 -59 40h-11v24h119l156 -313l157 313h106v-24q-24 0 -39.5 -13t-15.5 -37v-258q0 -18 3 -28.5t11 -15t14.5 -5.5t20.5 -1v-24h-170v24q15 1 20.5 1.5t14 5t11.5 15t3 28.5v232h-2l-151 -306h-12z" />
    <glyph glyph-name="Omega" unicode="&#x2126;" horiz-adv-x="728" 
d="M693 139l-25 -139h-235l-7 19q4 8 29 50t37 66.5t30 66t26 82t8 81.5q0 144 -55.5 212t-138.5 68q-86 0 -139 -68.5t-53 -216.5q0 -22 2 -44t8 -44.5t10.5 -40t15.5 -41.5t16.5 -36.5t19.5 -37.5t18 -32.5t20 -34t18 -30.5l-8 -19h-233l-23 139l24 1q15 -46 30 -60
t46 -14h105q-32 27 -54 49.5t-51.5 61t-45.5 87t-16 103.5q0 138 83.5 223t209.5 85q128 0 208 -81t80 -219q0 -49 -15 -94.5t-43.5 -86t-52.5 -68t-59 -60.5h110q32 0 45.5 12.5t28.5 61.5z" />
    <glyph glyph-name="estimated" unicode="&#x212e;" horiz-adv-x="831" 
d="M798 327h-620q-5 0 -5 -4v-188q0 -11 8 -21q99 -102 234 -102q73 0 137 30.5t110 83.5h55q-52 -61 -132 -97t-171 -36q-158 0 -270 100.5t-112 242.5q0 143 112 243.5t270 100.5q159 0 271.5 -100.5t112.5 -243.5v-9zM657 351v189q0 13 -9 22q-100 98 -233 98
q-134 0 -233 -101q-9 -9 -9 -23v-185q0 -6 5 -6h475q4 0 4 6z" />
    <glyph glyph-name="partialdiff" unicode="&#x2202;" horiz-adv-x="525" 
d="M259 423h1q37 0 74.5 -18t60.5 -52q7 53 8 103q3 83 -26 153q-17 38 -52 66t-78 28q-66 0 -137 -57q-12 -2 -24 21.5t-5 39.5q63 40 140 40q131 0 204 -137q49 -91 49 -224q0 -145 -48 -244q-69 -148 -202 -148q-82 0 -131.5 52.5t-49.5 143.5q0 95 58 160q28 33 70.5 53
t87.5 20zM281 384h-1q-67 0 -108 -57q-44 -64 -44 -177q-1 -54 25 -90t71 -36q68 0 115 101q32 68 49 187q-11 25 -41 48.5t-66 23.5z" />
    <glyph glyph-name="Delta" unicode="&#x2206;" horiz-adv-x="629" 
d="M593 0h-559v24l257 639l38 11l264 -650v-24zM487 45l-202 509l-197 -509h399z" />
    <glyph glyph-name="product" unicode="&#x220f;" horiz-adv-x="678" 
d="M650 668v-25q-63 -5 -76.5 -15.5t-13.5 -52.5v-556q0 -47 14 -59.5t74 -17.5v-25h-255v25q59 5 71 16t12 61v585q0 21 -6.5 26t-28.5 5h-207q-21 0 -27 -5t-6 -23v-588q0 -48 10.5 -60t65.5 -17v-25h-247v25q60 5 73.5 17t13.5 60v556q0 42 -13.5 52.5t-77.5 15.5v25h624
z" />
    <glyph glyph-name="summation" unicode="&#x2211;" horiz-adv-x="548" 
d="M524 97l-42 -183h-454v23l221 334l-216 373v24h448q0 -8 2.5 -33t5.5 -62.5l5 -62.5l-27 -6q-11 68 -33 101q-10 18 -29.5 24.5t-72.5 6.5h-193l184 -311l-221 -338h258q66 0 87 17t51 100z" />
    <glyph glyph-name="minus" unicode="&#x2212;" horiz-adv-x="600" 
d="M553 220h-506v66h506v-66z" />
    <glyph glyph-name="uni2215" unicode="&#x2215;" horiz-adv-x="167" 
d="M285 702h48l-451 -730h-48z" />
    <glyph glyph-name="uni2219" unicode="&#x2219;" horiz-adv-x="278" 
d="M76 299q0 26 18.5 44.5t44.5 18.5t44.5 -18.5t18.5 -44.5t-18.5 -44.5t-44.5 -18.5t-44.5 18.5t-18.5 44.5z" />
    <glyph glyph-name="radical" unicode="&#x221a;" horiz-adv-x="542" 
d="M525 854l-163 -995l-21 -11l-214 531l-86 -42l-11 32l153 72l167 -427h2l135 850z" />
    <glyph glyph-name="infinity" unicode="&#x221e;" horiz-adv-x="739" 
d="M691 276v-1q0 -69 -44 -112.5t-104 -43.5q-43 0 -83 26t-90 86q-46 -55 -86 -83.5t-92 -28.5q-60 0 -102.5 43.5t-42.5 108.5q0 67 43.5 111t108.5 44q49 0 90.5 -29t84.5 -82q34 38 49.5 54.5t51.5 36.5t74 20q62 0 102 -41.5t40 -108.5zM198 171h2q9 0 18.5 1.5t19 6
t16.5 8t16.5 12t14.5 12t15.5 14.5t13.5 14.5t14 15.5t13 14q-19 24 -25.5 32t-24 26.5t-29.5 26t-30.5 14.5t-37.5 7q-42 0 -67.5 -30t-25.5 -75q0 -41 27.5 -70t69.5 -29zM544 375h-1q-18 0 -35 -6.5t-33.5 -20t-26.5 -23t-26.5 -28.5t-20.5 -23q50 -58 80 -80.5t65 -22.5
q41 0 65.5 31t24.5 69q0 47 -25.5 75.5t-66.5 28.5z" />
    <glyph glyph-name="integral" unicode="&#x222b;" horiz-adv-x="366" 
d="M158 14l-19 396q-20 404 148 404q21 0 39.5 -11.5t19.5 -32.5q0 -20 -12.5 -31.5t-29.5 -11.5q-11 0 -18.5 7t-11 16t-9 16t-13.5 7q-47 0 -40 -163l17 -371q21 -431 -149 -431q-26 0 -42.5 13.5t-16.5 32.5q-1 19 14 32t35 13q14 0 26 -24t22 -24q22 0 33 44.5t7 118.5z
" />
    <glyph glyph-name="approxequal" unicode="&#x2248;" horiz-adv-x="534" 
d="M457 417l35 -32q-50 -92 -126 -92q-27 0 -49.5 8.5t-60.5 30.5q-53 32 -87 32q-29 0 -50 -18t-43 -52l-36 31q21 42 57.5 67t77.5 25q13 0 25 -2t25 -7.5t19 -8t20 -10.5t16 -9q4 -2 11 -6t10 -6t9.5 -5t9.5 -4.5t8.5 -4t9.5 -3.5t9 -2t10 -1.5t10 -0.5q48 0 90 70z
M457 250l35 -31q-50 -93 -126 -93q-40 0 -110 39q-55 32 -86 32q-30 0 -51.5 -18.5t-42.5 -51.5l-36 31q21 42 57.5 67t77.5 25q11 0 22.5 -2t19.5 -4t18.5 -7t15.5 -7.5t15.5 -8t13.5 -7.5t16.5 -10t18 -10t15 -6.5t19 -6t18.5 -1.5q28 0 47.5 16.5t42.5 53.5z" />
    <glyph glyph-name="notequal" unicode="&#x2260;" horiz-adv-x="534" 
d="M384 481l-41 -89h143v-55h-165l-61 -135h226v-54h-249l-50 -111l-43 19l41 92h-138v54h161l61 135h-222v55h244l49 109z" />
    <glyph glyph-name="lessequal" unicode="&#x2264;" horiz-adv-x="534" 
d="M484 95l-431 213v58l431 213v-64l-374 -176v-2l374 -178v-64zM487 2h-439v56h439v-56z" />
    <glyph glyph-name="greaterequal" unicode="&#x2265;" horiz-adv-x="534" 
d="M54 579l431 -213v-58l-431 -213v64l372 177v2l-372 177v64zM485 2h-436v56h436v-56z" />
    <glyph glyph-name="lozenge" unicode="&#x25ca;" horiz-adv-x="549" 
d="M502 321l-195 -389h-64l-196 389l197 392h63zM440 321l-163 332h-3l-164 -331l164 -333h3z" />
    </font>
</defs>
</svg>
