<?xml version="1.0" standalone="no"?>
<!DOCTYPE svg PUBLIC "-//W3C//DTD SVG 1.1//EN" "http://www.w3.org/Graphics/SVG/1.1/DTD/svg11.dtd" >
<svg xmlns="http://www.w3.org/2000/svg" xmlns:xlink="http://www.w3.org/1999/xlink" version="1.1">
<metadata>
Created by FontForge 20170731 at Thu Jun  6 18:36:44 2002
 By Aleksey,,,
Copyright (c) 1989, 2002 Adobe Systems Incorporated.  All Rights Reserved.
</metadata>
<defs>
<font id="CandidaStd-Bold" horiz-adv-x="556" >
  <font-face 
    font-family="Candida Std"
    font-weight="700"
    font-stretch="normal"
    units-per-em="1000"
    panose-1="2 6 8 3 6 5 5 2 2 4"
    ascent="690"
    descent="-310"
    x-height="486"
    cap-height="682"
    bbox="-168 -226 1000 911"
    underline-thickness="50"
    underline-position="-200"
    unicode-range="U+0020-FB02"
  />
<missing-glyph horiz-adv-x="500" 
d="M0 0v700h500v-700h-500zM250 395l170 255h-340zM280 350l170 -255v510zM80 50h340l-170 255zM50 605v-510l170 255z" />
    <glyph glyph-name="fi" unicode="fi" horiz-adv-x="611" 
d="M31 0v54h66v378h-66v54h66q-4 27 -4 61q0 67 37.5 105t93.5 38q29 0 59.5 -12.5t41.5 -23.5l-48 -86h-6q-28 26 -64 26q-22 0 -38 -13.5t-16 -33.5q0 -29 25.5 -45t72.5 -16h263v-432h66v-54h-254v54h48v378h-137v-378h48v-54h-254zM438 540q-31 0 -54 22t-23 53t23 53
t54 22t53.5 -22t22.5 -53t-22.5 -53t-53.5 -22z" />
    <glyph glyph-name="fl" unicode="fl" horiz-adv-x="611" 
d="M31 0v54h66v378h-66v54h66q-4 27 -4 61q0 67 37.5 105t93.5 38q47 0 90 -28v20h200v-628h66v-54h-254v54h48v574h-60v6h-2l-35 -66h-6q-28 26 -64 26q-22 0 -38 -13.5t-16 -33.5q0 -29 25.5 -45t72.5 -16h68v-54h-82v-378h48v-54h-254z" />
    <glyph glyph-name=".notdef" horiz-adv-x="500" 
d="M0 0v700h500v-700h-500zM250 395l170 255h-340zM280 350l170 -255v510zM80 50h340l-170 255zM50 605v-510l170 255z" />
    <glyph glyph-name=".null" horiz-adv-x="0" 
 />
    <glyph glyph-name="nonmarkingreturn" horiz-adv-x="333" 
 />
    <glyph glyph-name="space" unicode=" " horiz-adv-x="278" 
 />
    <glyph glyph-name="exclam" unicode="!" horiz-adv-x="334" 
d="M212 190h-88q-1 72 -16.5 252t-27.5 248l174 -8q-17 -89 -29.5 -230.5t-12.5 -261.5zM86 73q0 34 23.5 57.5t57.5 23.5t57.5 -23.5t23.5 -57.5t-23.5 -57.5t-57.5 -23.5t-57.5 23.5t-23.5 57.5z" />
    <glyph glyph-name="quotedbl" unicode="&#x22;" 
d="M134 430v252h102v-252h-102zM320 430v252h102v-252h-102z" />
    <glyph glyph-name="numbersign" unicode="#" 
d="M28 189v90h101l17 116h-90v90h102l27 189h90l-27 -189h101l27 189h90l-28 -189h90v-90h-101l-17 -116h90v-90h-102l-27 -189h-90l27 189h-101l-27 -189h-90l27 189h-89zM320 279l17 116h-101l-17 -116h101z" />
    <glyph glyph-name="dollar" unicode="$" 
d="M234 445v189q-40 -3 -69.5 -25.5t-29.5 -60.5q0 -35 25.5 -59t73.5 -44zM294 252v-212q46 2 80.5 28.5t34.5 69.5q0 41 -29 66t-86 48zM31 0v180h66q0 -55 38.5 -92.5t98.5 -47.5v235q-48 17 -78.5 32t-65 41t-52 64.5t-17.5 88.5q0 84 61.5 130t151.5 51v44h60v-44
q70 -9 117 -50l23 42h59v-180h-66q0 60 -37.5 96.5t-95.5 43.5v-213q32 -12 38.5 -14.5t36 -14.5t38 -17.5t32.5 -18.5t32.5 -22.5t24.5 -25.5t22 -31.5t11.5 -35.5t5.5 -42q0 -99 -64 -153t-177 -54v-68h-60v68q-84 12 -123 48l-20 -40h-60z" />
    <glyph glyph-name="percent" unicode="%" horiz-adv-x="1000" 
d="M202 517q0 -72 18 -100.5t51 -28.5q32 0 50.5 33.5t18.5 95.5q0 72 -17.5 100.5t-51.5 28.5q-31 0 -50 -33.5t-19 -95.5zM100 517q0 71 50 118t121 47q81 0 126 -45.5t45 -119.5q0 -71 -49.5 -118t-121.5 -47q-81 0 -126 45.5t-45 119.5zM558 157q0 71 50 118t121 47
q81 0 126 -45.5t45 -119.5q0 -71 -49.5 -118t-121.5 -47q-81 0 -126 45.5t-45 119.5zM660 157q0 -72 18 -100.5t51 -28.5q32 0 50.5 33.5t18.5 95.5q0 72 -17.5 100.5t-51.5 28.5q-31 0 -50 -33.5t-19 -95.5zM304 -25h-62l431 724h62z" />
    <glyph glyph-name="ampersand" unicode="&#x26;" horiz-adv-x="722" 
d="M442 0l-22 35q-66 -43 -166 -43q-83 0 -134 55t-51 114q0 126 168 207q-50 85 -50 140q0 62 44.5 101.5t108.5 39.5q61 0 100 -35.5t39 -98.5q0 -34 -19 -66t-34.5 -45t-38.5 -30l112 -199q24 23 36.5 76t12.5 80l96 21q0 -52 -36.5 -120t-80.5 -108l39 -70h78v-54h-202z
M395 79l-131 235q-69 -45 -69 -104q0 -54 36 -100t90 -46q44 0 74 15zM307 544q0 -11 6 -28t12.5 -30t17.5 -33.5t13 -25.5q63 38 63 90q0 33 -19 52.5t-46 19.5q-20 0 -33.5 -12t-13.5 -33z" />
    <glyph glyph-name="quotesingle" unicode="'" horiz-adv-x="278" 
d="M88 430v252h102v-252h-102z" />
    <glyph glyph-name="parenleft" unicode="(" horiz-adv-x="334" 
d="M282 682v-54q-21 -5 -35 -18.5t-21 -28.5t-10.5 -43t-4 -46.5t-0.5 -54.5v-404q0 -36 0.5 -54.5t4 -46.5t10.5 -43t21 -28.5t35 -18.5v-54q-64 11 -111 60.5t-70 120t-33 136t-10 130.5t10 130.5t33 136t70 120t111 60.5z" />
    <glyph glyph-name="parenright" unicode=")" horiz-adv-x="334" 
d="M52 -212v54q21 5 35 18.5t21 28.5t10.5 43t4 46.5t0.5 54.5v404q0 36 -0.5 54.5t-4 46.5t-10.5 43t-21 28.5t-35 18.5v54q64 -11 111 -60.5t70 -120t33 -136t10 -130.5t-10 -130.5t-33 -136t-70 -120t-111 -60.5z" />
    <glyph glyph-name="asterisk" unicode="*" horiz-adv-x="444" 
d="M215 346l-40 88l-97 -8l-6 10l58 78l-58 77l6 11l97 -8l40 88h13l41 -88l97 8l6 -11l-58 -77l58 -78l-6 -10l-97 8l-41 -88h-13z" />
    <glyph glyph-name="plus" unicode="+" horiz-adv-x="600" 
d="M249 0v202h-202v102h202v202h102v-202h202v-102h-202v-202h-102z" />
    <glyph glyph-name="comma" unicode="," horiz-adv-x="278" 
d="M76 -126v270h162l-90 -270h-72z" />
    <glyph glyph-name="hyphen" unicode="-" horiz-adv-x="389" 
d="M56 183v108h277v-108h-277z" />
    <glyph glyph-name="period" unicode="." horiz-adv-x="278" 
d="M55 76q0 34 24.5 59t59.5 25t59.5 -25t24.5 -59t-24.5 -59t-59.5 -25t-59.5 25t-24.5 59z" />
    <glyph glyph-name="slash" unicode="/" horiz-adv-x="389" 
d="M16 -8l254 698h103l-254 -698h-103z" />
    <glyph glyph-name="zero" unicode="0" 
d="M200 433v-192q0 -113 18 -157t60 -44t60 44t18 157v192q0 113 -18 157t-60 44t-60 -44t-18 -157zM509 337q0 -147 -60.5 -246t-170.5 -99t-170.5 99t-60.5 246t60.5 246t170.5 99t170.5 -99t60.5 -246z" />
    <glyph glyph-name="one" unicode="1" 
d="M120 0v60h94v496q-40 -37 -87 -70l-37 44q39 26 95 73.5t86 78.5h89v-622h94v-60h-334z" />
    <glyph glyph-name="two" unicode="2" 
d="M416 108v66h60v-174h-448q-8 0 -8 7q0 5 5 10l68 81q51 62 67.5 82.5t53 68.5t49 71t31 59.5t24.5 66.5t6 63q0 52 -20.5 88.5t-63.5 36.5q-31 0 -50.5 -23t-25 -50t-5.5 -59h-132q0 88 62 134t164 46q96 0 160 -47t64 -143q0 -24 -6 -48t-20 -48t-26.5 -43t-35.5 -44
t-35.5 -38t-39.5 -38.5t-35 -33.5l-97 -91h234z" />
    <glyph glyph-name="three" unicode="3" 
d="M192 338v56q28 -2 49 -2q55 0 73.5 32t18.5 93q0 117 -79 117q-77 0 -77 -145h-120q0 99 57.5 146t158.5 47q84 0 142 -43t58 -124q0 -55 -28.5 -93t-81.5 -53v-2q60 -12 92.5 -59t32.5 -110q0 -100 -68.5 -153t-172.5 -53q-110 0 -167 53t-57 157h126q0 -162 96 -162
q30 0 50 15t27.5 42.5t10 49.5t2.5 53q0 71 -24 104.5t-99 33.5h-20z" />
    <glyph glyph-name="four" unicode="4" 
d="M279 247v279h-2l-156 -279h158zM207 0v60h72v109h-258v12l283 501h115v-435h72v-78h-72v-109h72v-60h-284z" />
    <glyph glyph-name="five" unicode="5" 
d="M22 193h134q-2 -12 -2 -32q0 -43 21.5 -82t63.5 -39q37 0 59.5 29t28.5 62t6 72q0 163 -117 163q-61 0 -122 -42l-13 12l88 338h304l-34 -120h-225q-20 0 -25 -18l-36 -130h2q48 26 119 26q99 0 155.5 -58t56.5 -159q0 -106 -68.5 -164.5t-176.5 -58.5q-93 0 -156 54
t-63 147z" />
    <glyph glyph-name="six" unicode="6" 
d="M475 531h-120q0 103 -71 103q-19 0 -34 -10t-24.5 -31.5t-15.5 -41t-9 -51.5t-4 -50.5t-2 -49.5h2q12 22 42 41.5t82 19.5q86 0 139.5 -61.5t53.5 -155.5q0 -119 -65 -185.5t-167 -66.5q-67 0 -116 30t-75 80t-37.5 103t-11.5 110q0 47 6 93t23.5 97t44 89t72 63
t103.5 25q83 0 133.5 -39.5t50.5 -111.5zM361 217q0 178 -83 178t-83 -178q0 -177 83 -177t83 177z" />
    <glyph glyph-name="seven" unicode="7" 
d="M118 481h-66v193h455l6 -12l-119 -306h70l-20 -60h-74l-107 -296h-148l-6 12l134 284h-97l25 60h102l93 204h-248v-79z" />
    <glyph glyph-name="eight" unicode="8" 
d="M278 682q94 0 158 -47t64 -135q0 -54 -30.5 -92t-78.5 -51v-2q57 -11 88.5 -59t31.5 -110q0 -84 -62.5 -139t-170.5 -55t-170.5 55t-62.5 139q0 62 31.5 110t88.5 59v2q-48 13 -78.5 51t-30.5 92q0 88 64 135t158 47zM278 335q-80 0 -80 -147q0 -69 17 -108.5t63 -39.5
t63 39.5t17 108.5q0 147 -80 147zM278 634q-76 0 -76 -125q0 -57 19.5 -91.5t56.5 -34.5t56.5 34.5t19.5 91.5q0 125 -76 125z" />
    <glyph glyph-name="nine" unicode="9" 
d="M81 143h120q0 -103 71 -103q19 0 34 10t24.5 31.5t15.5 41t9 51.5t4 50.5t2 49.5h-2q-11 -23 -37 -38q-35 -23 -87 -23q-86 0 -139.5 61.5t-53.5 155.5q0 119 65 185.5t167 66.5q67 0 116 -30t75 -80t37.5 -103t11.5 -110q0 -47 -6 -93t-23.5 -97t-44 -89t-72 -63
t-103.5 -25q-83 0 -133.5 39.5t-50.5 111.5zM195 453q0 -95 17 -137.5t66 -42.5q83 0 83 180q0 91 -19.5 136t-63.5 45t-63.5 -45t-19.5 -136z" />
    <glyph glyph-name="colon" unicode=":" horiz-adv-x="278" 
d="M55 402q0 34 24.5 59t59.5 25t59.5 -25t24.5 -59t-24.5 -59t-59.5 -25t-59.5 25t-24.5 59zM55 76q0 34 24.5 59t59.5 25t59.5 -25t24.5 -59t-24.5 -59t-59.5 -25t-59.5 25t-24.5 59z" />
    <glyph glyph-name="semicolon" unicode=";" horiz-adv-x="278" 
d="M76 -126v270h162l-90 -270h-72zM55 402q0 34 24.5 59t59.5 25t59.5 -25t24.5 -59t-24.5 -59t-59.5 -25t-59.5 25t-24.5 59z" />
    <glyph glyph-name="less" unicode="&#x3c;" horiz-adv-x="600" 
d="M553 514v-102l-374 -159l374 -159v-102l-506 216v90z" />
    <glyph glyph-name="equal" unicode="=" horiz-adv-x="600" 
d="M47 309v102h506v-102h-506zM47 95v102h506v-102h-506z" />
    <glyph glyph-name="greater" unicode="&#x3e;" horiz-adv-x="600" 
d="M47 412v102l506 -216v-90l-506 -216v102l374 159z" />
    <glyph glyph-name="question" unicode="?" horiz-adv-x="444" 
d="M283 293l73 -46q-11 -33 -43 -52.5t-69 -19.5q-54 0 -92.5 33.5t-38.5 86.5q0 38 17 73t40.5 60.5t47.5 50t41 52t17 55.5q0 25 -15 40.5t-41 15.5q-38 0 -52 -36t0 -70h-108q0 70 41 112t112 42q75 0 123 -34t48 -106q0 -44 -27.5 -89t-60 -76t-60 -65t-27.5 -58
q0 -39 32 -39q20 0 30 16t12 54zM148 65q0 31 21 52t52 21t52 -21t21 -52t-21 -52t-52 -21t-52 21t-21 52z" />
    <glyph glyph-name="at" unicode="@" horiz-adv-x="800" 
d="M492 401q0 33 -9 48.5t-31 15.5q-46 0 -83 -52.5t-37 -136.5q0 -64 47 -64q36 0 74.5 66.5t38.5 122.5zM607 509l-55 -213q-12 -48 -12 -63q0 -33 30 -33q40 0 73 57.5t33 133.5q0 101 -73 167t-195 66q-45 0 -89 -17.5t-83 -52.5t-63.5 -97t-24.5 -142
q0 -106 82.5 -181.5t187.5 -75.5q63 0 108 13t100 40l10 -56q-115 -63 -217 -63q-97 0 -171.5 32.5t-115 84t-60.5 106.5t-20 110q0 162 100 263.5t256 101.5q148 0 244 -81.5t96 -216.5q0 -58 -20.5 -111.5t-65.5 -91t-104 -37.5q-45 0 -70 26.5t-25 45.5h-2
q-8 -19 -43.5 -45.5t-76.5 -26.5t-70 28.5t-29 94.5q0 53 21.5 108.5t70.5 98.5t113 43q12 0 21.5 -2.5t15.5 -4.5t12 -8t8 -9t7.5 -11.5t6.5 -10.5l10 30h79z" />
    <glyph glyph-name="A" unicode="A" horiz-adv-x="778" 
d="M13 0v60h55l256 622h102l273 -622h66v-60h-309v60h78l-54 122h-295l-51 -122h77v-60h-198zM455 242l-126 296l-120 -296h246z" />
    <glyph glyph-name="B" unicode="B" horiz-adv-x="667" 
d="M264 622v-233h56q54 0 85 33.5t31 85.5q0 54 -33 84t-86 30h-53zM30 0v60h81v562h-81v60h340q95 0 157 -44.5t62 -121.5q0 -59 -40 -101t-105 -46v-2q55 -5 111.5 -51t56.5 -118q0 -93 -70.5 -145.5t-165.5 -52.5h-346zM264 335v-275h32q78 0 116 28t38 110
q0 67 -37.5 102t-98.5 35h-50z" />
    <glyph glyph-name="C" unicode="C" horiz-adv-x="778" 
d="M709 682v-198h-65q-16 67 -70 106.5t-135 39.5q-60 0 -104 -26t-67.5 -71t-34.5 -94.5t-11 -105.5q0 -123 69.5 -205t180.5 -82q122 0 212 113h9l41 -39v-8q-78 -73 -148 -96.5t-146 -23.5q-95 0 -171 28.5t-123.5 77.5t-72.5 111.5t-25 131.5q0 142 102.5 245.5
t266.5 103.5q121 0 197 -68l35 60h60z" />
    <glyph glyph-name="D" unicode="D" horiz-adv-x="778" 
d="M264 622v-562h38q70 0 120 25t76 67.5t37 88t11 97.5q0 284 -251 284h-31zM30 0v60h81v562h-81v60h328q169 0 265.5 -92.5t96.5 -248.5q0 -151 -97.5 -246t-264.5 -95h-328z" />
    <glyph glyph-name="E" unicode="E" horiz-adv-x="667" 
d="M35 0v60h81v562h-81v60h552v-145h-66v73h-252v-220h220v71h66v-202h-66v77h-220v-264h268v75h66v-147h-568z" />
    <glyph glyph-name="F" unicode="F" horiz-adv-x="611" 
d="M35 0v60h81v562h-81v60h549v-145h-66v73h-249v-220h225v71h66v-202h-66v77h-225v-276h97v-60h-331z" />
    <glyph glyph-name="G" unicode="G" horiz-adv-x="833" 
d="M727 682v-198h-66q-19 71 -77 111.5t-138 40.5q-106 0 -165 -80t-59 -213q0 -75 22.5 -141.5t76.5 -114t131 -47.5q60 0 111 32.5t51 82.5v93h-97v60h243v-308h-50l-56 53q-91 -61 -218 -61q-93 0 -168 29t-122.5 77.5t-72.5 111t-25 131.5t25.5 131.5t72.5 111
t121.5 77.5t164.5 29q119 0 208 -62l27 54h60z" />
    <glyph glyph-name="H" unicode="H" horiz-adv-x="833" 
d="M30 0v60h81v562h-81v60h315v-60h-81v-232h305v232h-81v60h315v-60h-81v-562h81v-60h-315v60h81v276h-305v-276h81v-60h-315z" />
    <glyph glyph-name="I" unicode="I" horiz-adv-x="389" 
d="M37 0v60h81v562h-81v60h315v-60h-81v-562h81v-60h-315z" />
    <glyph glyph-name="J" unicode="J" horiz-adv-x="500" 
d="M163 622v60h315v-60h-81v-436q0 -194 -202 -194q-187 0 -187 189h132v-22q0 -57 11.5 -82t41.5 -25q51 0 51 73v497h-81z" />
    <glyph glyph-name="K" unicode="K" horiz-adv-x="722" 
d="M30 0v60h81v562h-81v60h313v-60h-79v-253l279 253h-71v60h234v-60h-76l-200 -182l227 -380h60v-60h-301v60h66l-164 277l-54 -48v-229h79v-60h-313z" />
    <glyph glyph-name="L" unicode="L" horiz-adv-x="611" 
d="M40 0v60h81v562h-81v60h326v-60h-92v-550h237v83h72v-155h-543z" />
    <glyph glyph-name="M" unicode="M" horiz-adv-x="1000" 
d="M32 0v60h78v562h-78v60h226l248 -509l235 509h227v-60h-78v-562h78v-60h-311v60h80v476h-2l-237 -524h-70l-247 508h-5v-460h81v-60h-225z" />
    <glyph glyph-name="N" unicode="N" horiz-adv-x="834" 
d="M25 0v60h81v562h-81v60h217l426 -497v437h-81v60h222v-60h-81v-630h-91l-471 551v-483h81v-60h-222z" />
    <glyph glyph-name="O" unicode="O" horiz-adv-x="834" 
d="M612 341q0 76 -14.5 133.5t-35.5 88.5t-49.5 49.5t-50.5 24t-45 5.5t-45 -5.5t-50.5 -24t-49.5 -49.5t-35.5 -88.5t-14.5 -133.5t14.5 -133.5t35.5 -88.5t49.5 -49.5t50.5 -24t45 -5.5t45 5.5t50.5 24t49.5 49.5t35.5 88.5t14.5 133.5zM48 341q0 142 102.5 245.5
t266.5 103.5t266.5 -103.5t102.5 -245.5t-102.5 -245.5t-266.5 -103.5t-266.5 103.5t-102.5 245.5z" />
    <glyph glyph-name="P" unicode="P" horiz-adv-x="611" 
d="M30 0v60h81v562h-81v60h290q119 0 194 -57.5t75 -157.5q0 -101 -75.5 -158.5t-193.5 -57.5h-56v-191h96v-60h-330zM264 622v-311h36q67 0 101.5 43t34.5 108q0 72 -37 116t-105 44h-30z" />
    <glyph glyph-name="Q" unicode="Q" horiz-adv-x="834" 
d="M404 123l80 75l81 -74q47 75 47 217q0 76 -14.5 133.5t-35.5 88.5t-49.5 49.5t-50.5 24t-45 5.5t-45 -5.5t-50.5 -24t-49.5 -49.5t-35.5 -88.5t-14.5 -133.5t14.5 -133.5t35.5 -88.5t49.5 -49.5t50.5 -24t45 -5.5q33 0 64 12zM727 -24l-80 -75l-116 106q-55 -15 -114 -15
q-164 0 -266.5 103.5t-102.5 245.5t102.5 245.5t266.5 103.5t266.5 -103.5t102.5 -245.5q0 -85 -39 -160t-110 -123z" />
    <glyph glyph-name="R" unicode="R" horiz-adv-x="667" 
d="M264 622v-300h31q76 0 112.5 40.5t36.5 107.5q0 69 -37 110.5t-112 41.5h-31zM30 0v60h81v562h-81v60h306q113 0 187 -57.5t74 -157.5q0 -132 -153 -181l112 -173q21 -33 33 -44t36 -11q8 0 24 2v-60q-51 -8 -105 -8q-60 0 -82.5 14.5t-60.5 78.5l-64 109q-36 59 -46 68
q-8 6 -17 6h-10v-208h81v-60h-315z" />
    <glyph glyph-name="S" unicode="S" horiz-adv-x="611" 
d="M56 0v185h66q0 -55 52.5 -100t128.5 -45q50 0 89 26t39 74q0 34 -21 59t-55 41t-74.5 31t-81.5 33t-75 41t-55 61t-21 89q0 66 33.5 112t81 64.5t105.5 18.5q109 0 165 -48l22 40h59v-180h-66q0 61 -52.5 100t-116.5 40q-54 0 -88.5 -25.5t-34.5 -60.5q0 -40 41.5 -69
t100 -50t117.5 -46.5t100.5 -71t41.5 -109.5q0 -102 -63 -160t-183 -58q-100 0 -175 48l-20 -40h-60z" />
    <glyph glyph-name="T" unicode="T" horiz-adv-x="667" 
d="M176 0v60h81v550h-171v-78h-66v150h627v-150h-66v78h-171v-550h81v-60h-315z" />
    <glyph glyph-name="U" unicode="U" horiz-adv-x="778" 
d="M25 622v60h315v-60h-81v-409q0 -84 45.5 -122.5t121.5 -38.5q84 0 135 46t51 164v360h-81v60h222v-60h-81v-374q0 -256 -266 -256q-161 0 -230.5 54.5t-69.5 186.5v389h-81z" />
    <glyph glyph-name="V" unicode="V" horiz-adv-x="778" 
d="M13 622v60h315v-60h-78l198 -468l193 468h-80v60h204v-60h-56l-268 -630h-87l-269 630h-72z" />
    <glyph glyph-name="W" unicode="W" horiz-adv-x="1000" 
d="M13 622v60h303v-60h-84l127 -425h2l148 485h88l148 -477h2l122 417h-80v60h198v-60h-60l-189 -630h-85l-148 486h-2l-150 -486h-84l-196 630h-60z" />
    <glyph glyph-name="X" unicode="X" horiz-adv-x="778" 
d="M24 0v60h74l211 272l-216 290h-69v60h328v-60h-75l132 -181l134 181h-73v60h234v-60h-89l-172 -227l250 -335h72v-60h-330v60h76l-165 222l-178 -222h78v-60h-222z" />
    <glyph glyph-name="Y" unicode="Y" horiz-adv-x="722" 
d="M217 0v60h81v195l-202 367h-72v60h329v-60h-86l159 -294l158 294h-84v60h209v-60h-60l-198 -365v-197h81v-60h-315z" />
    <glyph glyph-name="Z" unicode="Z" horiz-adv-x="667" 
d="M628 155v-155h-589v15q0 3 13 24l371 571h-293v-74h-66v146h565v-12l-387 -598h320v83h66z" />
    <glyph glyph-name="bracketleft" unicode="[" horiz-adv-x="334" 
d="M72 -212v894h219v-54h-79v-786h79v-54h-219z" />
    <glyph glyph-name="backslash" unicode="\" horiz-adv-x="389" 
d="M119 690l254 -698h-103l-254 698h103z" />
    <glyph glyph-name="bracketright" unicode="]" horiz-adv-x="334" 
d="M262 682v-894h-219v54h79v786h-79v54h219z" />
    <glyph glyph-name="asciicircum" unicode="^" horiz-adv-x="600" 
d="M173 309h-98l175 365h100l175 -365h-98l-127 263z" />
    <glyph glyph-name="underscore" unicode="_" horiz-adv-x="500" 
d="M500 -125h-500v50h500v-50z" />
    <glyph glyph-name="grave" unicode="`" horiz-adv-x="278" 
d="M192 544l-159 89q-33 21 -33 43q0 36 44 36q24 0 51 -27l139 -135v-6h-42z" />
    <glyph glyph-name="a" unicode="a" 
d="M332 0v47h-2q-35 -55 -131 -55q-72 0 -116 42t-44 108q0 77 46 123t126 46q81 0 114 -40h2v113q0 30 -24.5 43t-51.5 13q-90 0 -123 -68h-6l-55 69q75 53 194 53q44 0 77 -5t66 -19t51 -44.5t18 -76.5v-295h58v-54h-199zM185 151q0 -41 18 -67t55 -26q25 0 47 12t22 30
v111q0 17 -18.5 28.5t-45.5 11.5q-40 0 -59 -27.5t-19 -72.5z" />
    <glyph glyph-name="b" unicode="b" horiz-adv-x="611" 
d="M229 234q0 -103 21 -148.5t69 -45.5q45 0 67.5 45t22.5 149q0 114 -20.5 154t-69.5 40q-90 0 -90 -194zM23 628v54h206v-260h2q10 26 44.5 49t85.5 23q84 0 142.5 -62.5t58.5 -185.5q0 -108 -61.5 -181t-166.5 -73q-106 0 -156 84l-53 -78h-42q6 60 6 150v480h-66z" />
    <glyph glyph-name="c" unicode="c" horiz-adv-x="500" 
d="M448 488l10 -174h-60l-2 20q-10 100 -98 100q-45 0 -76.5 -45t-31.5 -159q0 -184 113 -184q74 0 117 67h6l37 -52q-72 -69 -177 -69q-117 0 -183 67t-66 181q0 105 63 179.5t168 74.5q37 0 71 -15t48 -33h2l-4 42h63z" />
    <glyph glyph-name="d" unicode="d" horiz-adv-x="611" 
d="M382 0v52h-2q-15 -18 -29.5 -29.5t-44 -21t-69.5 -9.5q-76 0 -132 61t-56 187q0 113 55.5 183.5t141.5 70.5q100 0 134 -66h2v200h-66v54h206v-628h66v-54h-206zM202 218q0 -83 28 -124.5t68 -41.5q52 0 71 43.5t19 130.5v68q0 134 -91 134q-95 0 -95 -210z" />
    <glyph glyph-name="e" unicode="e" 
d="M507 224h-317q0 -85 35 -131.5t103 -46.5q86 0 135 95h6l45 -41q-78 -108 -213 -108q-131 0 -197.5 68.5t-66.5 185.5t67.5 182.5t176.5 65.5q95 0 161.5 -63t66.5 -163q0 -20 -2 -44zM190 284h179q0 23 -1 40t-6 40.5t-13.5 38.5t-25.5 26t-40 11q-93 0 -93 -156z" />
    <glyph glyph-name="f" unicode="f" horiz-adv-x="334" 
d="M31 0v54h66v378h-66v54h66q-4 27 -4 61q0 67 37.5 105t93.5 38q29 0 59.5 -12.5t41.5 -23.5l-48 -86h-6q-28 26 -64 26q-22 0 -38 -13.5t-16 -33.5q0 -29 25.5 -45t72.5 -16h68v-54h-82v-378h71v-54h-277z" />
    <glyph glyph-name="g" unicode="g" horiz-adv-x="611" 
d="M382 -1v53h-2q-39 -60 -134 -60q-94 0 -145.5 71.5t-51.5 179.5t51.5 179.5t145.5 71.5q52 0 88 -20t46 -48h2v60h206v-54h-66v-424q0 -127 -63.5 -180.5t-183.5 -53.5q-157 0 -212 89l91 71h7q48 -100 122 -100q54 0 76.5 36t22.5 129zM388 226v24q0 89 -20.5 133.5
t-72.5 44.5q-45 0 -69 -42.5t-24 -145.5q0 -95 25.5 -141.5t66.5 -46.5q54 0 74 43t20 131z" />
    <glyph glyph-name="h" unicode="h" horiz-adv-x="611" 
d="M23 0v54h66v574h-66v54h206v-270h2q22 43 53.5 62.5t81.5 19.5q74 0 115 -36t41 -104v-300h66v-54h-254v54h48v274q0 41 -13 64.5t-52 23.5q-47 0 -67.5 -39t-20.5 -92v-231h48v-54h-254z" />
    <glyph glyph-name="i" unicode="i" horiz-adv-x="334" 
d="M31 0v54h66v378h-66v54h206v-432h66v-54h-272zM161 540q-31 0 -54 22t-23 53t23 53t54 22t53.5 -22t22.5 -53t-22.5 -53t-53.5 -22z" />
    <glyph glyph-name="j" unicode="j" horiz-adv-x="334" 
d="M46 432v54h206v-560q0 -43 -16.5 -73t-42.5 -42.5t-48 -17.5t-44 -5q-73 0 -96 54v6l43 41l12 -3q0 -50 27 -50q12 0 18.5 11t6.5 25v560h-66zM176 540q-31 0 -54 22t-23 53t23 53t54 22t53.5 -22t22.5 -53t-22.5 -53t-53.5 -22z" />
    <glyph glyph-name="k" unicode="k" horiz-adv-x="611" 
d="M89 54v574h-66v54h206v-432l181 182h-68v54h210v-54h-64l-114 -114l175 -264h36v-54h-252v54h60l-115 175l-49 -50v-125h48v-54h-254v54h66z" />
    <glyph glyph-name="l" unicode="l" horiz-adv-x="334" 
d="M31 0v54h66v574h-66v54h206v-628h66v-54h-272z" />
    <glyph glyph-name="m" unicode="m" horiz-adv-x="888" 
d="M28 0v54h66v378h-66v54h206v-71h2q35 79 138 79t132 -82h2q9 32 47.5 57t93.5 25q76 0 110.5 -37.5t34.5 -96.5v-306h66v-54h-254v54h48v269q0 54 -15.5 73.5t-49.5 19.5q-35 -2 -55 -28.5t-20 -73.5v-260h48v-54h-236v54h48v265q0 50 -13 73.5t-48 23.5q-39 0 -59 -33
t-20 -90v-239h48v-54h-254z" />
    <glyph glyph-name="n" unicode="n" horiz-adv-x="611" 
d="M23 0v54h66v378h-66v54h206v-74h2q22 43 53.5 62.5t81.5 19.5q74 0 115 -36t41 -104v-300h66v-54h-254v54h48v274q0 41 -13 64.5t-52 23.5q-47 0 -67.5 -39t-20.5 -92v-231h48v-54h-254z" />
    <glyph glyph-name="o" unicode="o" horiz-adv-x="611" 
d="M49 243q0 100 66 175.5t191 75.5q64 0 115 -22t80.5 -59t45 -80.5t15.5 -89.5q0 -62 -27 -118t-87 -94.5t-142 -38.5q-67 0 -118.5 22t-81 59t-43.5 80t-14 90zM202 243q0 -197 104 -197q103 0 103 197t-103 197q-104 0 -104 -197z" />
    <glyph glyph-name="p" unicode="p" horiz-adv-x="611" 
d="M23 -212v54h66v590h-66v54h206v-66h2q10 32 45.5 53t88.5 21q94 0 145.5 -71.5t51.5 -179.5t-51.5 -179.5t-145.5 -71.5q-95 0 -134 60h-2v-210h66v-54h-272zM409 250q0 94 -29.5 136t-64.5 42q-43 0 -67.5 -40.5t-24.5 -119.5v-64q0 -78 21.5 -115t67.5 -37t71.5 50
t25.5 148z" />
    <glyph glyph-name="q" unicode="q" horiz-adv-x="611" 
d="M382 221v63q0 82 -22 116t-64 34q-44 0 -69 -49.5t-25 -144.5q0 -98 21.5 -140t68.5 -42q45 0 68 42t22 121zM316 -212v54h66v216h-2q-53 -66 -130 -66q-85 0 -143 60t-58 188q0 114 57.5 184t152.5 70q91 0 140 -80l36 72h153v-54h-66v-590h66v-54h-272z" />
    <glyph glyph-name="r" unicode="r" horiz-adv-x="444" 
d="M31 0v54h66v378h-66v54h198v-88h2q46 96 114 96q43 0 64.5 -24t21.5 -60l-82 -63l-12 2q0 61 -33 61q-30 0 -48.5 -34t-18.5 -77v-245h76v-54h-282z" />
    <glyph glyph-name="s" unicode="s" horiz-adv-x="444" 
d="M44 0v144h66q0 -45 35 -73q31 -25 75 -25q36 0 57.5 16t21.5 46q0 23 -26.5 41t-64.5 33t-76 33.5t-64.5 51t-26.5 76.5q0 65 42.5 108t105.5 43q78 0 126 -48v42h60v-126h-60q0 31 -38 59q-35 25 -70 25q-27 0 -45.5 -15t-18.5 -40q0 -21 27 -38t66 -32t78 -34t66 -53.5
t27 -81.5q0 -70 -46 -115t-122 -45q-79 0 -129 54v-46h-66z" />
    <glyph glyph-name="t" unicode="t" horiz-adv-x="334" 
d="M23 432v54h66v139l134 45l6 -6v-178h84v-54h-84v-355q0 -19 4 -25t13 -6q16 0 24 18t9 40l12 4l40 -33q-7 -42 -40 -62.5t-78 -20.5q-63 0 -93.5 25t-30.5 82v333h-66z" />
    <glyph glyph-name="u" unicode="u" horiz-adv-x="611" 
d="M23 432v54h206v-328q0 -100 65 -100q88 0 88 121v253h-66v54h206v-432h66v-54h-206v58h-2q-24 -33 -56.5 -49.5t-88.5 -16.5q-146 0 -146 186v254h-66z" />
    <glyph glyph-name="v" unicode="v" 
d="M9 432v54h255v-54h-54l114 -287l111 287h-56v54h168v-54h-53l-176 -440h-73l-188 440h-48z" />
    <glyph glyph-name="w" unicode="w" horiz-adv-x="834" 
d="M10 432v54h266v-54h-66l103 -266l125 326h53l118 -326l104 266h-63v54h174v-54h-52l-174 -440h-62l-116 308l-123 -308h-63l-170 440h-54z" />
    <glyph glyph-name="x" unicode="x" 
d="M20 0v54h61l135 158l-156 220h-48v54h273v-54h-60l82 -117l95 117h-57v54h180v-54h-52l-134 -160l155 -218h50v-54h-273v54h60l-83 113l-97 -113h55v-54h-186z" />
    <glyph glyph-name="y" unicode="y" 
d="M119 -212v54h67l62 153l-187 437h-48v54h257v-54h-60l113 -274l114 274h-62v54h168v-54h-47l-247 -590h68v-54h-198z" />
    <glyph glyph-name="z" unicode="z" horiz-adv-x="500" 
d="M35 338v148h419v-24l-260 -408h198v94h66v-148h-434q0 24 7 35l253 397h-183v-94h-66z" />
    <glyph glyph-name="braceleft" unicode="{" horiz-adv-x="334" 
d="M310 682v-12q-41 -12 -57 -44t-16 -90v-161q0 -63 -16 -94.5t-66 -44.5v-2q50 -13 66 -44.5t16 -94.5v-161q0 -58 16 -90t57 -44v-12q-122 0 -167.5 29t-45.5 123v171q0 56 -14.5 83t-58.5 41q44 14 58.5 41t14.5 83v171q0 94 45.5 123t167.5 29z" />
    <glyph glyph-name="bar" unicode="|" horiz-adv-x="222" 
d="M60 -8v698h102v-698h-102z" />
    <glyph glyph-name="braceright" unicode="}" horiz-adv-x="334" 
d="M24 -212v12q41 12 57 44t16 90v161q0 63 16 94.5t66 44.5v2q-50 13 -66 44.5t-16 94.5v161q0 58 -16 90t-57 44v12q122 0 167.5 -29t45.5 -123v-171q0 -56 14.5 -83t58.5 -41q-44 -14 -58.5 -41t-14.5 -83v-171q0 -94 -45.5 -123t-167.5 -29z" />
    <glyph glyph-name="asciitilde" unicode="~" horiz-adv-x="600" 
d="M495 337l36 -78q-20 -28 -33 -43t-38 -29.5t-54 -14.5q-46 0 -102 33t-115 33q-52 0 -84 -69l-36 78q46 87 125 87q45 0 113 -33t102 -33q26 0 45 18t41 51z" />
    <glyph glyph-name="uni00A0" unicode="&#xa0;" horiz-adv-x="278" 
 />
    <glyph glyph-name="exclamdown" unicode="&#xa1;" horiz-adv-x="334" 
d="M122 288h88q1 -72 16.5 -252t27.5 -248l-174 8q17 89 29.5 230.5t12.5 261.5zM248 405q0 -34 -23.5 -57.5t-57.5 -23.5t-57.5 23.5t-23.5 57.5t23.5 57.5t57.5 23.5t57.5 -23.5t23.5 -57.5z" />
    <glyph glyph-name="cent" unicode="&#xa2;" 
d="M361 480l51 131h46l-56 -141q88 -29 88 -91q0 -27 -16 -44t-43 -17q-52 0 -61 62h-2l-107 -286q39 -30 88 -30q55 0 123 54l17 -18q-37 -47 -92 -77.5t-111 -30.5q-31 0 -61 6l-57 -147h-45l64 161q-59 32 -90 88t-31 124q0 106 67 184t165 78q34 0 63 -6zM229 126
l117 312q-13 18 -44 18q-32 0 -56 -20t-36 -51t-18 -61.5t-6 -58.5q0 -87 43 -139z" />
    <glyph glyph-name="sterling" unicode="&#xa3;" 
d="M50 0v54q50 10 87 46t37 85q0 12 -2.5 24t-8 25t-9.5 21.5t-12.5 23.5t-11.5 21h-100v60h60q-42 61 -42 119q0 97 58.5 150t154.5 53q17 0 32.5 -1.5t29.5 -4.5t23.5 -5.5t22 -8t17.5 -7.5t16.5 -8.5t13.5 -7.5l20 35h54v-186h-63q-9 66 -47 106t-96 40q-46 0 -75 -27.5
t-29 -67.5q0 -27 14.5 -55.5t42.5 -67.5t38 -56h140v-60h-120q5 -33 5 -37q0 -79 -89 -147v-2h249v83h66v-197h-476z" />
    <glyph glyph-name="currency" unicode="&#xa4;" 
d="M20 138l55 58q-47 53 -47 141t47 141l-55 58l56 59l56 -57q52 49 146 49t146 -49l56 57l56 -59l-55 -58q47 -53 47 -141t-47 -141l55 -58l-56 -59l-56 57q-52 -49 -146 -49t-146 49l-56 -57zM130 337q0 -61 43 -104.5t105 -43.5t105 43.5t43 104.5t-43 104.5t-105 43.5
t-105 -43.5t-43 -104.5z" />
    <glyph glyph-name="yen" unicode="&#xa5;" 
d="M133 0v60h82v92h-128v60h128v60h-128v60h97l-120 282h-72v60h293v-60h-84l115 -282l122 282h-78v60h204v-60h-61l-127 -282h93v-60h-128v-60h128v-60h-128v-92h82v-60h-290z" />
    <glyph glyph-name="brokenbar" unicode="&#xa6;" horiz-adv-x="222" 
d="M60 -8v261h102v-261h-102zM60 429v261h102v-261h-102z" />
    <glyph glyph-name="section" unicode="&#xa7;" 
d="M427 566h-96q2 76 -50 76q-19 0 -32 -11t-13 -29q0 -20 25 -51t60 -66t70.5 -72t60.5 -79t25 -78q0 -107 -124 -188q2 -3 14 -16t14 -15.5t11 -13.5t11 -15.5t7 -14.5t6.5 -18t3 -19t1.5 -23q0 -60 -45.5 -93.5t-111.5 -33.5q-67 0 -106 32t-39 93h96q-3 -29 9.5 -53
t40.5 -24q54 0 54 49q0 19 -24.5 47.5t-60 61.5t-71 69t-60 79.5t-24.5 84.5q0 124 122 188q-3 4 -17 21.5t-19.5 25.5t-14.5 23t-12.5 29t-3.5 28q0 64 39.5 97t109.5 33q65 0 104.5 -31.5t39.5 -92.5zM181 302q0 -36 21 -70t65 -78.5t52 -54.5q56 48 56 92
q0 25 -17.5 57.5t-35.5 53.5t-50 55.5t-39 42.5q-52 -44 -52 -98z" />
    <glyph glyph-name="dieresis" unicode="&#xa8;" horiz-adv-x="278" 
d="M164 627q0 26 18.5 44.5t44.5 18.5t44.5 -18.5t18.5 -44.5t-18.5 -44.5t-44.5 -18.5t-44.5 18.5t-18.5 44.5zM-12 627q0 26 18.5 44.5t44.5 18.5t44.5 -18.5t18.5 -44.5t-18.5 -44.5t-44.5 -18.5t-44.5 18.5t-18.5 44.5z" />
    <glyph glyph-name="copyright" unicode="&#xa9;" horiz-adv-x="800" 
d="M46 340q0 149 100.5 249.5t253.5 100.5t253.5 -100.5t100.5 -249.5t-100.5 -248.5t-253.5 -99.5t-253.5 99.5t-100.5 248.5zM124 340q0 -122 77.5 -205t198.5 -83t198.5 83t77.5 205q0 123 -77.5 206.5t-198.5 83.5q-120 0 -198 -84t-78 -206zM555 514v-78h-24
q-30 87 -101 87q-53 0 -80 -44.5t-27 -121.5q0 -181 105 -181q39 0 69.5 25t48.5 67h26l-17 -85q-60 -31 -144 -31q-103 0 -158.5 51t-55.5 149q0 27 6.5 53t22.5 52t40.5 45.5t63.5 32t88 12.5q86 0 137 -33z" />
    <glyph glyph-name="ordfeminine" unicode="&#xaa;" horiz-adv-x="361" 
d="M309 423h36v-36h-138v28h-2q-29 -34 -91 -34q-41 0 -69.5 24.5t-28.5 65.5q0 46 30 75t82 29q53 0 78 -28l1 2v53q0 44 -49 44q-59 0 -80 -38h-4l-34 41q52 33 119 33q47 0 76.5 -5t51.5 -25.5t22 -56.5v-172zM207 444v61q0 15 -11.5 24.5t-28.5 9.5q-49 0 -49 -62
q0 -24 11.5 -39t34.5 -15q29 0 43 21z" />
    <glyph glyph-name="guillemotleft" unicode="&#xab;" 
d="M473 426l-118 -187l118 -191h-80l-118 191l118 187h80zM281 426l-118 -187l118 -191h-80l-118 191l118 187h80z" />
    <glyph glyph-name="logicalnot" unicode="&#xac;" horiz-adv-x="600" 
d="M451 109v200h-404v102h506v-302h-102z" />
    <glyph glyph-name="uni00AD" unicode="&#xad;" horiz-adv-x="389" 
d="M56 183v108h277v-108h-277z" />
    <glyph glyph-name="registered" unicode="&#xae;" horiz-adv-x="800" 
d="M229 163v24q14 0 21.5 1.5t14 9t6.5 21.5v262q0 31 -42 31v24h193q133 0 133 -99q0 -33 -20.5 -61.5t-56.5 -37.5l48 -88q34 -63 65 -63v-24h-96q-13 0 -29 25t-38 70t-36 67h-25v-106q0 -21 9.5 -26.5t34.5 -5.5v-24h-182zM367 512v-163h23q57 0 57 90q0 73 -53 73h-27z
M46 340q0 149 100.5 249.5t253.5 100.5t253.5 -100.5t100.5 -249.5t-100.5 -248.5t-253.5 -99.5t-253.5 99.5t-100.5 248.5zM124 340q0 -122 77.5 -205t198.5 -83t198.5 83t77.5 205q0 123 -77.5 206.5t-198.5 83.5q-120 0 -198 -84t-78 -206z" />
    <glyph glyph-name="macron" unicode="&#xaf;" horiz-adv-x="278" 
d="M1 598v60h276v-60h-276z" />
    <glyph glyph-name="degree" unicode="&#xb0;" horiz-adv-x="400" 
d="M57 539q0 59 42 101t101 42t101 -42t42 -101t-42 -101t-101 -42t-101 42t-42 101zM111 539q0 -37 26 -63t63 -26t63 26t26 63t-26 63t-63 26t-63 -26t-26 -63z" />
    <glyph glyph-name="plusminus" unicode="&#xb1;" horiz-adv-x="600" 
d="M249 146v129h-202v102h202v129h102v-129h202v-102h-202v-129h-102zM47 0v102h506v-102h-506z" />
    <glyph glyph-name="twosuperior" unicode="&#xb2;" horiz-adv-x="361" 
d="M283 342v37h48v-103h-295q-6 0 -6 6q0 4 16 20l33 33q143 143 143 244q0 20 -2.5 33t-13.5 23.5t-31 10.5q-55 0 -55 -78h-90q0 57 42.5 85.5t110.5 28.5q64 0 106 -28t42 -85q0 -30 -21.5 -63t-43 -53.5t-55.5 -49.5q-3 -2 -4 -3l-3 -3t-4 -3l-63 -50v-2h146z" />
    <glyph glyph-name="threesuperior" unicode="&#xb3;" horiz-adv-x="361" 
d="M139 474v39q4 0 10.5 -1t11.5 -1.5t10 -0.5q35 0 46.5 18.5t11.5 54.5q0 63 -50 63q-21 0 -32 -14.5t-13 -29t-2 -36.5h-84q0 116 143 116q59 0 97.5 -25.5t38.5 -74.5q0 -70 -77 -88v-2q42 -6 64.5 -34t22.5 -66q0 -60 -46.5 -92t-117.5 -32q-70 0 -109.5 32.5
t-39.5 93.5h90q1 -21 2.5 -32t7 -27t17.5 -23.5t32 -7.5q25 0 38.5 16t15.5 31.5t2 41.5q0 81 -59 81h-31z" />
    <glyph glyph-name="acute" unicode="&#xb4;" horiz-adv-x="278" 
d="M44 550l139 135q27 27 51 27q44 0 44 -36q0 -22 -33 -43l-160 -89h-41v6z" />
    <glyph glyph-name="mu" unicode="&#xb5;" horiz-adv-x="611" 
d="M23 432v54h206v-328q0 -100 65 -100q88 0 88 121v253h-66v54h206v-432h66v-54h-206v58h-2q-49 -66 -122 -66q-22 0 -40 9q1 -23 6.5 -69.5t5.5 -63.5q0 -46 -21 -70t-55 -24t-55 24t-21 70q0 23 5.5 111t5.5 130v323h-66z" />
    <glyph glyph-name="paragraph" unicode="&#xb6;" horiz-adv-x="620" 
d="M412 -186v814h-78v-814h-187v54h73v402q-92 1 -145.5 60t-53.5 154t63.5 146.5t179.5 51.5h335v-54h-73v-760h73v-54h-187zM220 348v256q-91 -11 -91 -128q0 -51 24.5 -87.5t66.5 -40.5z" />
    <glyph glyph-name="periodcentered" unicode="&#xb7;" horiz-adv-x="278" 
d="M55 279q0 35 24.5 59.5t59.5 24.5t59.5 -24.5t24.5 -59.5t-24.5 -59.5t-59.5 -24.5t-59.5 24.5t-24.5 59.5z" />
    <glyph glyph-name="cedilla" unicode="&#xb8;" horiz-adv-x="278" 
d="M30 -190l16 34q43 -29 84 -29q23 0 42.5 11.5t19.5 33.5q0 39 -48 39q-14 0 -32 -4l-11 6l47 99h39l-33 -70q18 5 50 5q33 0 58.5 -19t25.5 -55q0 -41 -42 -61.5t-97 -20.5q-63 0 -119 31z" />
    <glyph glyph-name="onesuperior" unicode="&#xb9;" horiz-adv-x="361" 
d="M78 276v36h61v292q-21 -21 -54 -42l-26 30q62 40 117 90h65v-370h61v-36h-224z" />
    <glyph glyph-name="ordmasculine" unicode="&#xba;" horiz-adv-x="397" 
d="M23 532q0 63 48 106.5t127 43.5q80 0 128 -43.5t48 -106.5q0 -64 -48.5 -107.5t-127.5 -43.5t-127 43.5t-48 107.5zM131 532q0 -115 67 -115q68 0 68 115q0 114 -68 114q-67 0 -67 -114z" />
    <glyph glyph-name="guillemotright" unicode="&#xbb;" 
d="M83 48l118 186l-118 192h80l118 -192l-118 -186h-80zM275 48l118 186l-118 192h80l118 -192l-118 -186h-80z" />
    <glyph glyph-name="onequarter" unicode="&#xbc;" horiz-adv-x="834" 
d="M652 148v164h-2l-98 -164h100zM604 0v36h48v64h-171v12l183 294h90v-258h45v-48h-45v-64h47v-36h-197zM176 -36l441 746h62l-441 -746h-62zM39 276v36h61v292q-21 -21 -54 -42l-26 30q62 40 117 90h65v-370h61v-36h-224z" />
    <glyph glyph-name="onehalf" unicode="&#xbd;" horiz-adv-x="834" 
d="M146 -36l441 746h62l-441 -746h-62zM39 276v36h61v292q-21 -21 -54 -42l-26 30q62 40 117 90h65v-370h61v-36h-224zM756 66v37h48v-103h-295q-6 0 -6 6q0 4 16 20l33 33q143 143 143 244q0 20 -2.5 33t-13.5 23.5t-31 10.5q-55 0 -55 -78h-90q0 57 42.5 85.5t110.5 28.5
q64 0 106 -28t42 -85q0 -30 -21.5 -63t-43 -53.5t-55.5 -49.5q-8 -6 -11 -9l-63 -50v-2h146z" />
    <glyph glyph-name="threequarters" unicode="&#xbe;" horiz-adv-x="834" 
d="M652 148v164h-2l-98 -164h100zM652 36v64h-171v12l183 294h90v-258h45v-48h-45v-64h47v-36h-197v36h48zM186 -36l441 746h62l-441 -746h-62zM134 474v39q4 0 10.5 -1t11.5 -1.5t10 -0.5q35 0 46.5 18.5t11.5 54.5q0 63 -50 63q-21 0 -32 -14.5t-13 -29t-2 -36.5h-84
q0 116 143 116q59 0 97.5 -25.5t38.5 -74.5q0 -70 -77 -88v-2q42 -6 64.5 -34t22.5 -66q0 -60 -46.5 -92t-117.5 -32q-70 0 -109.5 32.5t-39.5 93.5h90q1 -21 2.5 -32t7 -27t17.5 -23.5t32 -7.5q25 0 38.5 16t15.5 31.5t2 41.5q0 81 -59 81h-31z" />
    <glyph glyph-name="questiondown" unicode="&#xbf;" horiz-adv-x="444" 
d="M161 185l-73 46q11 33 43 52.5t69 19.5q54 0 92.5 -33.5t38.5 -86.5q0 -38 -17 -73t-41 -60.5t-47.5 -50t-40.5 -52t-17 -55.5q0 -25 15 -40.5t41 -15.5q38 0 52 36t0 70h108q0 -70 -41 -112t-112 -42q-75 0 -123 34t-48 106q0 44 27.5 89t60 76t60 65t27.5 58
q0 39 -32 39q-20 0 -30 -16t-12 -54zM296 413q0 -31 -21 -52t-52 -21t-52 21t-21 52t21 52t52 21t52 -21t21 -52z" />
    <glyph glyph-name="Agrave" unicode="&#xc0;" horiz-adv-x="778" 
d="M13 0v60h55l256 622h102l273 -622h66v-60h-309v60h78l-54 122h-295l-51 -122h77v-60h-198zM455 242l-126 296l-120 -296h246zM442 712l-159 89q-33 21 -33 43q0 36 44 36q24 0 51 -27l139 -135v-6h-42z" />
    <glyph glyph-name="Aacute" unicode="&#xc1;" horiz-adv-x="778" 
d="M13 0v60h55l256 622h102l273 -622h66v-60h-309v60h78l-54 122h-295l-51 -122h77v-60h-198zM455 242l-126 296l-120 -296h246zM294 718l139 135q27 27 51 27q44 0 44 -36q0 -22 -33 -43l-160 -89h-41v6z" />
    <glyph glyph-name="Acircumflex" unicode="&#xc2;" horiz-adv-x="778" 
d="M13 0v60h55l256 622h102l273 -622h66v-60h-309v60h78l-54 122h-295l-51 -122h77v-60h-198zM455 242l-126 296l-120 -296h246zM251 718l107 162h62l107 -162v-6h-34l-104 102l-104 -102h-34v6z" />
    <glyph glyph-name="Atilde" unicode="&#xc3;" horiz-adv-x="778" 
d="M13 0v60h55l256 622h102l273 -622h66v-60h-309v60h78l-54 122h-295l-51 -122h77v-60h-198zM455 242l-126 296l-120 -296h246zM281 739h-30q0 45 22 78t59 33q22 0 63 -14.5t56 -14.5q21 0 33.5 11.5t12.5 32.5h30q0 -46 -20 -78t-58 -32q-21 0 -67.5 14.5t-56.5 14.5
q-44 0 -44 -45z" />
    <glyph glyph-name="Adieresis" unicode="&#xc4;" horiz-adv-x="778" 
d="M13 0v60h55l256 622h102l273 -622h66v-60h-309v60h78l-54 122h-295l-51 -122h77v-60h-198zM455 242l-126 296l-120 -296h246zM414 795q0 26 18.5 44.5t44.5 18.5t44.5 -18.5t18.5 -44.5t-18.5 -44.5t-44.5 -18.5t-44.5 18.5t-18.5 44.5zM238 795q0 26 18.5 44.5
t44.5 18.5t44.5 -18.5t18.5 -44.5t-18.5 -44.5t-44.5 -18.5t-44.5 18.5t-18.5 44.5z" />
    <glyph glyph-name="Aring" unicode="&#xc5;" horiz-adv-x="778" 
d="M13 0v60h55l256 622h102l273 -622h66v-60h-309v60h78l-54 122h-295l-51 -122h77v-60h-198zM455 242l-126 296l-120 -296h246zM272 809q0 42 30 72t72 30t72 -30t30 -72t-30 -72t-72 -30t-72 30t-30 72zM314 809q0 -25 17.5 -42.5t42.5 -17.5t42.5 17.5t17.5 42.5
t-17.5 42.5t-42.5 17.5t-42.5 -17.5t-17.5 -42.5z" />
    <glyph glyph-name="AE" unicode="&#xc6;" horiz-adv-x="1000" 
d="M6 0v60h59l223 562h-90v60h572v-145h-66v73h-242l82 -220h219v71h66v-202h-66v77h-200l103 -264h240v75h66v-147h-548v60h84l-45 122h-285l-48 -122h74v-60h-198zM441 242l-120 314l-122 -314h242z" />
    <glyph glyph-name="Ccedilla" unicode="&#xc7;" horiz-adv-x="778" 
d="M280 -190l16 34q44 -29 84 -29q23 0 42.5 11.5t19.5 33.5q0 39 -48 39q-14 0 -32 -4l-11 6l44 93q-166 13 -256.5 112t-90.5 235q0 142 102.5 245.5t266.5 103.5q121 0 197 -68l35 60h60v-198h-65q-16 67 -70 106.5t-135 39.5q-60 0 -104 -26t-67.5 -71t-34.5 -94.5
t-11 -105.5q0 -123 69.5 -205t180.5 -82q122 0 212 113h9l41 -39v-8q-78 -73 -148 -96.5t-146 -23.5h-7l-29 -62q18 5 50 5q33 0 58.5 -19t25.5 -55q0 -41 -42 -61.5t-97 -20.5q-63 0 -119 31z" />
    <glyph glyph-name="Egrave" unicode="&#xc8;" horiz-adv-x="667" 
d="M35 0v60h81v562h-81v60h552v-145h-66v73h-252v-220h220v71h66v-202h-66v77h-220v-264h268v75h66v-147h-568zM387 712l-159 89q-33 21 -33 43q0 36 44 36q24 0 51 -27l139 -135v-6h-42z" />
    <glyph glyph-name="Eacute" unicode="&#xc9;" horiz-adv-x="667" 
d="M35 0v60h81v562h-81v60h552v-145h-66v73h-252v-220h220v71h66v-202h-66v77h-220v-264h268v75h66v-147h-568zM239 718l139 135q27 27 51 27q44 0 44 -36q0 -22 -33 -43l-160 -89h-41v6z" />
    <glyph glyph-name="Ecircumflex" unicode="&#xca;" horiz-adv-x="667" 
d="M35 0v60h81v562h-81v60h552v-145h-66v73h-252v-220h220v71h66v-202h-66v77h-220v-264h268v75h66v-147h-568zM196 718l107 162h62l107 -162v-6h-34l-104 102l-104 -102h-34v6z" />
    <glyph glyph-name="Edieresis" unicode="&#xcb;" horiz-adv-x="667" 
d="M35 0v60h81v562h-81v60h552v-145h-66v73h-252v-220h220v71h66v-202h-66v77h-220v-264h268v75h66v-147h-568zM359 795q0 26 18.5 44.5t44.5 18.5t44.5 -18.5t18.5 -44.5t-18.5 -44.5t-44.5 -18.5t-44.5 18.5t-18.5 44.5zM183 795q0 26 18.5 44.5t44.5 18.5t44.5 -18.5
t18.5 -44.5t-18.5 -44.5t-44.5 -18.5t-44.5 18.5t-18.5 44.5z" />
    <glyph glyph-name="Igrave" unicode="&#xcc;" horiz-adv-x="389" 
d="M37 0v60h81v562h-81v60h315v-60h-81v-562h81v-60h-315zM248 712l-159 89q-33 21 -33 43q0 36 44 36q24 0 51 -27l139 -135v-6h-42z" />
    <glyph glyph-name="Iacute" unicode="&#xcd;" horiz-adv-x="389" 
d="M37 0v60h81v562h-81v60h315v-60h-81v-562h81v-60h-315zM100 718l139 135q27 27 51 27q44 0 44 -36q0 -22 -33 -43l-160 -89h-41v6z" />
    <glyph glyph-name="Icircumflex" unicode="&#xce;" horiz-adv-x="389" 
d="M37 0v60h81v562h-81v60h315v-60h-81v-562h81v-60h-315zM57 718l107 162h62l107 -162v-6h-34l-104 102l-104 -102h-34v6z" />
    <glyph glyph-name="Idieresis" unicode="&#xcf;" horiz-adv-x="389" 
d="M37 0v60h81v562h-81v60h315v-60h-81v-562h81v-60h-315zM220 795q0 26 18.5 44.5t44.5 18.5t44.5 -18.5t18.5 -44.5t-18.5 -44.5t-44.5 -18.5t-44.5 18.5t-18.5 44.5zM44 795q0 26 18.5 44.5t44.5 18.5t44.5 -18.5t18.5 -44.5t-18.5 -44.5t-44.5 -18.5t-44.5 18.5
t-18.5 44.5z" />
    <glyph glyph-name="Eth" unicode="&#xd0;" horiz-adv-x="778" 
d="M30 0v60h81v270h-76v66h76v226h-81v60h328q169 0 265.5 -92.5t96.5 -248.5q0 -151 -97.5 -246t-264.5 -95h-328zM264 622v-226h157v-66h-157v-270h52q106 0 168 77.5t62 188.5q0 69 -14.5 123t-37.5 86t-54.5 52t-61 27.5t-62.5 7.5h-52z" />
    <glyph glyph-name="Ntilde" unicode="&#xd1;" horiz-adv-x="834" 
d="M25 0v60h81v562h-81v60h217l426 -497v437h-81v60h222v-60h-81v-630h-91l-471 551v-483h81v-60h-222zM309 739h-30q0 45 22 78t59 33q22 0 63 -14.5t56 -14.5q21 0 33.5 11.5t12.5 32.5h30q0 -46 -20 -78t-58 -32q-21 0 -67.5 14.5t-56.5 14.5q-44 0 -44 -45z" />
    <glyph glyph-name="Ograve" unicode="&#xd2;" horiz-adv-x="834" 
d="M612 341q0 76 -14.5 133.5t-35.5 88.5t-49.5 49.5t-50.5 24t-45 5.5t-45 -5.5t-50.5 -24t-49.5 -49.5t-35.5 -88.5t-14.5 -133.5t14.5 -133.5t35.5 -88.5t49.5 -49.5t50.5 -24t45 -5.5t45 5.5t50.5 24t49.5 49.5t35.5 88.5t14.5 133.5zM48 341q0 142 102.5 245.5
t266.5 103.5t266.5 -103.5t102.5 -245.5t-102.5 -245.5t-266.5 -103.5t-266.5 103.5t-102.5 245.5zM470 712l-159 89q-33 21 -33 43q0 36 44 36q24 0 51 -27l139 -135v-6h-42z" />
    <glyph glyph-name="Oacute" unicode="&#xd3;" horiz-adv-x="834" 
d="M612 341q0 76 -14.5 133.5t-35.5 88.5t-49.5 49.5t-50.5 24t-45 5.5t-45 -5.5t-50.5 -24t-49.5 -49.5t-35.5 -88.5t-14.5 -133.5t14.5 -133.5t35.5 -88.5t49.5 -49.5t50.5 -24t45 -5.5t45 5.5t50.5 24t49.5 49.5t35.5 88.5t14.5 133.5zM48 341q0 142 102.5 245.5
t266.5 103.5t266.5 -103.5t102.5 -245.5t-102.5 -245.5t-266.5 -103.5t-266.5 103.5t-102.5 245.5zM322 718l139 135q27 27 51 27q44 0 44 -36q0 -22 -33 -43l-160 -89h-41v6z" />
    <glyph glyph-name="Ocircumflex" unicode="&#xd4;" horiz-adv-x="834" 
d="M612 341q0 76 -14.5 133.5t-35.5 88.5t-49.5 49.5t-50.5 24t-45 5.5t-45 -5.5t-50.5 -24t-49.5 -49.5t-35.5 -88.5t-14.5 -133.5t14.5 -133.5t35.5 -88.5t49.5 -49.5t50.5 -24t45 -5.5t45 5.5t50.5 24t49.5 49.5t35.5 88.5t14.5 133.5zM48 341q0 142 102.5 245.5
t266.5 103.5t266.5 -103.5t102.5 -245.5t-102.5 -245.5t-266.5 -103.5t-266.5 103.5t-102.5 245.5zM279 718l107 162h62l107 -162v-6h-34l-104 102l-104 -102h-34v6z" />
    <glyph glyph-name="Otilde" unicode="&#xd5;" horiz-adv-x="834" 
d="M612 341q0 76 -14.5 133.5t-35.5 88.5t-49.5 49.5t-50.5 24t-45 5.5t-45 -5.5t-50.5 -24t-49.5 -49.5t-35.5 -88.5t-14.5 -133.5t14.5 -133.5t35.5 -88.5t49.5 -49.5t50.5 -24t45 -5.5t45 5.5t50.5 24t49.5 49.5t35.5 88.5t14.5 133.5zM48 341q0 142 102.5 245.5
t266.5 103.5t266.5 -103.5t102.5 -245.5t-102.5 -245.5t-266.5 -103.5t-266.5 103.5t-102.5 245.5zM309 739h-30q0 45 22 78t59 33q22 0 63 -14.5t56 -14.5q21 0 33.5 11.5t12.5 32.5h30q0 -46 -20 -78t-58 -32q-21 0 -67.5 14.5t-56.5 14.5q-44 0 -44 -45z" />
    <glyph glyph-name="Odieresis" unicode="&#xd6;" horiz-adv-x="834" 
d="M612 341q0 76 -14.5 133.5t-35.5 88.5t-49.5 49.5t-50.5 24t-45 5.5t-45 -5.5t-50.5 -24t-49.5 -49.5t-35.5 -88.5t-14.5 -133.5t14.5 -133.5t35.5 -88.5t49.5 -49.5t50.5 -24t45 -5.5t45 5.5t50.5 24t49.5 49.5t35.5 88.5t14.5 133.5zM48 341q0 142 102.5 245.5
t266.5 103.5t266.5 -103.5t102.5 -245.5t-102.5 -245.5t-266.5 -103.5t-266.5 103.5t-102.5 245.5zM442 795q0 26 18.5 44.5t44.5 18.5t44.5 -18.5t18.5 -44.5t-18.5 -44.5t-44.5 -18.5t-44.5 18.5t-18.5 44.5zM266 795q0 26 18.5 44.5t44.5 18.5t44.5 -18.5t18.5 -44.5
t-18.5 -44.5t-44.5 -18.5t-44.5 18.5t-18.5 44.5z" />
    <glyph glyph-name="multiply" unicode="&#xd7;" horiz-adv-x="600" 
d="M231 253l-162 162l69 69l162 -162l162 162l69 -69l-163 -162l163 -162l-69 -69l-162 162l-162 -162l-69 69z" />
    <glyph glyph-name="Oslash" unicode="&#xd8;" horiz-adv-x="834" 
d="M235 213l344 315q-50 114 -162 114q-23 0 -45 -5.5t-50.5 -24t-49.5 -49.5t-35.5 -88.5t-14.5 -133.5q0 -71 13 -128zM599 469l-345 -316q50 -113 163 -113q23 0 45 5.5t50.5 24t49.5 49.5t35.5 88.5t14.5 133.5q0 73 -13 128zM33 27l98 90q-83 97 -83 224
q0 142 102.5 245.5t266.5 103.5q145 0 246 -85l98 89l40 -40l-97 -89q82 -96 82 -224q0 -142 -102.5 -245.5t-266.5 -103.5q-145 0 -246 85l-98 -90z" />
    <glyph glyph-name="Ugrave" unicode="&#xd9;" horiz-adv-x="778" 
d="M25 622v60h315v-60h-81v-409q0 -84 45.5 -122.5t121.5 -38.5q84 0 135 46t51 164v360h-81v60h222v-60h-81v-374q0 -256 -266 -256q-161 0 -230.5 54.5t-69.5 186.5v389h-81zM458 712l-159 89q-33 21 -33 43q0 36 44 36q24 0 51 -27l139 -135v-6h-42z" />
    <glyph glyph-name="Uacute" unicode="&#xda;" horiz-adv-x="778" 
d="M25 622v60h315v-60h-81v-409q0 -84 45.5 -122.5t121.5 -38.5q84 0 135 46t51 164v360h-81v60h222v-60h-81v-374q0 -256 -266 -256q-161 0 -230.5 54.5t-69.5 186.5v389h-81zM310 718l139 135q27 27 51 27q44 0 44 -36q0 -22 -33 -43l-160 -89h-41v6z" />
    <glyph glyph-name="Ucircumflex" unicode="&#xdb;" horiz-adv-x="778" 
d="M25 622v60h315v-60h-81v-409q0 -84 45.5 -122.5t121.5 -38.5q84 0 135 46t51 164v360h-81v60h222v-60h-81v-374q0 -256 -266 -256q-161 0 -230.5 54.5t-69.5 186.5v389h-81zM267 718l107 162h62l107 -162v-6h-34l-104 102l-104 -102h-34v6z" />
    <glyph glyph-name="Udieresis" unicode="&#xdc;" horiz-adv-x="778" 
d="M25 622v60h315v-60h-81v-409q0 -84 45.5 -122.5t121.5 -38.5q84 0 135 46t51 164v360h-81v60h222v-60h-81v-374q0 -256 -266 -256q-161 0 -230.5 54.5t-69.5 186.5v389h-81zM430 795q0 26 18.5 44.5t44.5 18.5t44.5 -18.5t18.5 -44.5t-18.5 -44.5t-44.5 -18.5t-44.5 18.5
t-18.5 44.5zM254 795q0 26 18.5 44.5t44.5 18.5t44.5 -18.5t18.5 -44.5t-18.5 -44.5t-44.5 -18.5t-44.5 18.5t-18.5 44.5z" />
    <glyph glyph-name="Yacute" unicode="&#xdd;" horiz-adv-x="722" 
d="M217 0v60h81v195l-202 367h-72v60h329v-60h-86l159 -294l158 294h-84v60h209v-60h-60l-198 -365v-197h81v-60h-315zM326 718l139 135q27 27 51 27q44 0 44 -36q0 -22 -33 -43l-160 -89h-41v6z" />
    <glyph glyph-name="Thorn" unicode="&#xde;" horiz-adv-x="611" 
d="M30 0v60h81v562h-81v60h330v-60h-96v-58q40 2 63 2q120 0 191 -51t71 -158q0 -56 -24 -97t-63.5 -63t-83.5 -32t-92 -10q-10 0 -62 2v-97h96v-60h-330zM264 512v-303h36q66 0 101 44t35 110q0 69 -34.5 109t-100.5 40h-37z" />
    <glyph glyph-name="germandbls" unicode="&#xdf;" 
d="M14 0v54h60v468q0 168 191 168q84 0 146 -36t62 -110q0 -45 -31.5 -75.5t-80.5 -37.5v-2q25 -4 47 -14t46 -33t38.5 -67.5t14.5 -106.5q0 -216 -139 -216q-51 0 -77 19.5t-26 68.5v16h42v-15q0 -35 19 -35q16 0 22 17t6 83v150q0 57 -23.5 82t-72.5 25h-13v48h14
q44 0 59 19t15 69q0 33 -3 52t-17.5 35t-42.5 16q-30 0 -43 -18t-13 -62v-508h28v-54h-228z" />
    <glyph glyph-name="agrave" unicode="&#xe0;" 
d="M332 0v47h-2q-35 -55 -131 -55q-72 0 -116 42t-44 108q0 77 46 123t126 46q81 0 114 -40h2v113q0 30 -24.5 43t-51.5 13q-90 0 -123 -68h-6l-55 69q75 53 194 53q44 0 77 -5t66 -19t51 -44.5t18 -76.5v-295h58v-54h-199zM185 151q0 -41 18 -67t55 -26q25 0 47 12t22 30
v111q0 17 -18.5 28.5t-45.5 11.5q-40 0 -59 -27.5t-19 -72.5zM331 544l-159 89q-33 21 -33 43q0 36 44 36q24 0 51 -27l139 -135v-6h-42z" />
    <glyph glyph-name="aacute" unicode="&#xe1;" 
d="M332 0v47h-2q-35 -55 -131 -55q-72 0 -116 42t-44 108q0 77 46 123t126 46q81 0 114 -40h2v113q0 30 -24.5 43t-51.5 13q-90 0 -123 -68h-6l-55 69q75 53 194 53q44 0 77 -5t66 -19t51 -44.5t18 -76.5v-295h58v-54h-199zM185 151q0 -41 18 -67t55 -26q25 0 47 12t22 30
v111q0 17 -18.5 28.5t-45.5 11.5q-40 0 -59 -27.5t-19 -72.5zM183 550l139 135q27 27 51 27q44 0 44 -36q0 -22 -33 -43l-160 -89h-41v6z" />
    <glyph glyph-name="acircumflex" unicode="&#xe2;" 
d="M332 0v47h-2q-35 -55 -131 -55q-72 0 -116 42t-44 108q0 77 46 123t126 46q81 0 114 -40h2v113q0 30 -24.5 43t-51.5 13q-90 0 -123 -68h-6l-55 69q75 53 194 53q44 0 77 -5t66 -19t51 -44.5t18 -76.5v-295h58v-54h-199zM185 151q0 -41 18 -67t55 -26q25 0 47 12t22 30
v111q0 17 -18.5 28.5t-45.5 11.5q-40 0 -59 -27.5t-19 -72.5zM140 550l107 162h62l107 -162v-6h-34l-104 102l-104 -102h-34v6z" />
    <glyph glyph-name="atilde" unicode="&#xe3;" 
d="M332 0v47h-2q-35 -55 -131 -55q-72 0 -116 42t-44 108q0 77 46 123t126 46q81 0 114 -40h2v113q0 30 -24.5 43t-51.5 13q-90 0 -123 -68h-6l-55 69q75 53 194 53q44 0 77 -5t66 -19t51 -44.5t18 -76.5v-295h58v-54h-199zM185 151q0 -41 18 -67t55 -26q25 0 47 12t22 30
v111q0 17 -18.5 28.5t-45.5 11.5q-40 0 -59 -27.5t-19 -72.5zM170 571h-30q0 45 22 78t59 33q22 0 63 -14.5t56 -14.5q21 0 33.5 11.5t12.5 32.5h30q0 -46 -20 -78t-58 -32q-21 0 -67.5 14.5t-56.5 14.5q-44 0 -44 -45z" />
    <glyph glyph-name="adieresis" unicode="&#xe4;" 
d="M332 0v47h-2q-35 -55 -131 -55q-72 0 -116 42t-44 108q0 77 46 123t126 46q81 0 114 -40h2v113q0 30 -24.5 43t-51.5 13q-90 0 -123 -68h-6l-55 69q75 53 194 53q44 0 77 -5t66 -19t51 -44.5t18 -76.5v-295h58v-54h-199zM185 151q0 -41 18 -67t55 -26q25 0 47 12t22 30
v111q0 17 -18.5 28.5t-45.5 11.5q-40 0 -59 -27.5t-19 -72.5zM303 627q0 26 18.5 44.5t44.5 18.5t44.5 -18.5t18.5 -44.5t-18.5 -44.5t-44.5 -18.5t-44.5 18.5t-18.5 44.5zM127 627q0 26 18.5 44.5t44.5 18.5t44.5 -18.5t18.5 -44.5t-18.5 -44.5t-44.5 -18.5t-44.5 18.5
t-18.5 44.5z" />
    <glyph glyph-name="aring" unicode="&#xe5;" 
d="M332 0v47h-2q-35 -55 -131 -55q-72 0 -116 42t-44 108q0 77 46 123t126 46q81 0 114 -40h2v113q0 30 -24.5 43t-51.5 13q-90 0 -123 -68h-6l-55 69q75 53 194 53q44 0 77 -5t66 -19t51 -44.5t18 -76.5v-295h58v-54h-199zM185 151q0 -41 18 -67t55 -26q25 0 47 12t22 30
v111q0 17 -18.5 28.5t-45.5 11.5q-40 0 -59 -27.5t-19 -72.5zM176 628q0 42 30 72t72 30t72 -30t30 -72t-30 -72t-72 -30t-72 30t-30 72zM218 628q0 -25 17.5 -42.5t42.5 -17.5t42.5 17.5t17.5 42.5t-17.5 42.5t-42.5 17.5t-42.5 -17.5t-17.5 -42.5z" />
    <glyph glyph-name="ae" unicode="&#xe6;" horiz-adv-x="834" 
d="M329 96v132q-33 23 -71 23q-39 0 -60 -24t-21 -68q0 -45 21 -70t57 -25q19 0 35 6t20.5 9.5t18.5 16.5zM329 276v101q0 63 -85 63q-74 0 -117 -65h-7l-53 63q71 56 185 56q123 0 186 -50q50 50 137 50q101 0 161.5 -68t60.5 -173v-29h-328q0 -82 40.5 -130t105.5 -48
q41 0 77 25.5t57 69.5h4l50 -40q-39 -55 -91 -82t-128 -27q-136 0 -209 79q-25 -36 -67 -57.5t-93 -21.5q-85 0 -134.5 45.5t-49.5 114.5q0 71 48.5 115t133.5 44q79 0 114 -35h2zM469 284h188q0 162 -88 162q-36 0 -60 -27t-32 -61t-8 -74z" />
    <glyph glyph-name="ccedilla" unicode="&#xe7;" horiz-adv-x="500" 
d="M141 -190l16 34q43 -29 84 -29q23 0 42.5 11.5t19.5 33.5q0 39 -48 39q-14 0 -32 -4l-11 6l44 92q-103 9 -161 75t-58 172q0 105 63 179.5t168 74.5q37 0 71 -15t48 -33h2l-4 42h63l10 -174h-60l-2 20q-10 100 -98 100q-45 0 -76.5 -45t-31.5 -159q0 -184 113 -184
q74 0 117 67h6l37 -52q-69 -66 -169 -69l-29 -62q18 5 50 5q33 0 58.5 -19t25.5 -55q0 -41 -42 -61.5t-97 -20.5q-63 0 -119 31z" />
    <glyph glyph-name="egrave" unicode="&#xe8;" 
d="M507 224h-317q0 -85 35 -131.5t103 -46.5q86 0 135 95h6l45 -41q-78 -108 -213 -108q-131 0 -197.5 68.5t-66.5 185.5t67.5 182.5t176.5 65.5q95 0 161.5 -63t66.5 -163q0 -20 -2 -44zM190 284h179q0 23 -1 40t-6 40.5t-13.5 38.5t-25.5 26t-40 11q-93 0 -93 -156z
M331 544l-159 89q-33 21 -33 43q0 36 44 36q24 0 51 -27l139 -135v-6h-42z" />
    <glyph glyph-name="eacute" unicode="&#xe9;" 
d="M507 224h-317q0 -85 35 -131.5t103 -46.5q86 0 135 95h6l45 -41q-78 -108 -213 -108q-131 0 -197.5 68.5t-66.5 185.5t67.5 182.5t176.5 65.5q95 0 161.5 -63t66.5 -163q0 -20 -2 -44zM190 284h179q0 23 -1 40t-6 40.5t-13.5 38.5t-25.5 26t-40 11q-93 0 -93 -156z
M183 550l139 135q27 27 51 27q44 0 44 -36q0 -22 -33 -43l-160 -89h-41v6z" />
    <glyph glyph-name="ecircumflex" unicode="&#xea;" 
d="M507 224h-317q0 -85 35 -131.5t103 -46.5q86 0 135 95h6l45 -41q-78 -108 -213 -108q-131 0 -197.5 68.5t-66.5 185.5t67.5 182.5t176.5 65.5q95 0 161.5 -63t66.5 -163q0 -20 -2 -44zM190 284h179q0 23 -1 40t-6 40.5t-13.5 38.5t-25.5 26t-40 11q-93 0 -93 -156z
M140 550l107 162h62l107 -162v-6h-34l-104 102l-104 -102h-34v6z" />
    <glyph glyph-name="edieresis" unicode="&#xeb;" 
d="M507 224h-317q0 -85 35 -131.5t103 -46.5q86 0 135 95h6l45 -41q-78 -108 -213 -108q-131 0 -197.5 68.5t-66.5 185.5t67.5 182.5t176.5 65.5q95 0 161.5 -63t66.5 -163q0 -20 -2 -44zM190 284h179q0 23 -1 40t-6 40.5t-13.5 38.5t-25.5 26t-40 11q-93 0 -93 -156z
M303 627q0 26 18.5 44.5t44.5 18.5t44.5 -18.5t18.5 -44.5t-18.5 -44.5t-44.5 -18.5t-44.5 18.5t-18.5 44.5zM127 627q0 26 18.5 44.5t44.5 18.5t44.5 -18.5t18.5 -44.5t-18.5 -44.5t-44.5 -18.5t-44.5 18.5t-18.5 44.5z" />
    <glyph glyph-name="igrave" unicode="&#xec;" horiz-adv-x="334" 
d="M31 0v54h66v378h-66v54h206v-432h66v-54h-272zM220 544l-159 89q-33 21 -33 43q0 36 44 36q24 0 51 -27l139 -135v-6h-42z" />
    <glyph glyph-name="iacute" unicode="&#xed;" horiz-adv-x="334" 
d="M31 0v54h66v378h-66v54h206v-432h66v-54h-272zM72 550l139 135q27 27 51 27q44 0 44 -36q0 -22 -33 -43l-160 -89h-41v6z" />
    <glyph glyph-name="icircumflex" unicode="&#xee;" horiz-adv-x="334" 
d="M31 0v54h66v378h-66v54h206v-432h66v-54h-272zM29 550l107 162h62l107 -162v-6h-34l-104 102l-104 -102h-34v6z" />
    <glyph glyph-name="idieresis" unicode="&#xef;" horiz-adv-x="334" 
d="M31 0v54h66v378h-66v54h206v-432h66v-54h-272zM192 627q0 26 18.5 44.5t44.5 18.5t44.5 -18.5t18.5 -44.5t-18.5 -44.5t-44.5 -18.5t-44.5 18.5t-18.5 44.5zM16 627q0 26 18.5 44.5t44.5 18.5t44.5 -18.5t18.5 -44.5t-18.5 -44.5t-44.5 -18.5t-44.5 18.5t-18.5 44.5z" />
    <glyph glyph-name="eth" unicode="&#xf0;" horiz-adv-x="611" 
d="M202 243q0 -197 104 -197q103 0 103 197t-103 197q-104 0 -104 -197zM124 598l109 54q-56 30 -127 50l38 42q102 -24 161 -56l112 55l42 -42l-95 -47q98 -60 148 -150t50 -232q0 -128 -67 -204t-189 -76q-67 0 -118.5 22t-81 59t-43.5 80t-14 90q0 99 66.5 175t185.5 76
q74 0 106 -42h2q-16 48 -42.5 85.5t-80.5 78.5l-120 -60z" />
    <glyph glyph-name="ntilde" unicode="&#xf1;" horiz-adv-x="611" 
d="M23 0v54h66v378h-66v54h206v-74h2q22 43 53.5 62.5t81.5 19.5q74 0 115 -36t41 -104v-300h66v-54h-254v54h48v274q0 41 -13 64.5t-52 23.5q-47 0 -67.5 -39t-20.5 -92v-231h48v-54h-254zM198 571h-30q0 45 22 78t59 33q22 0 63 -14.5t56 -14.5q21 0 33.5 11.5t12.5 32.5
h30q0 -46 -20 -78t-58 -32q-21 0 -67.5 14.5t-56.5 14.5q-44 0 -44 -45z" />
    <glyph glyph-name="ograve" unicode="&#xf2;" horiz-adv-x="611" 
d="M49 243q0 100 66 175.5t191 75.5q64 0 115 -22t80.5 -59t45 -80.5t15.5 -89.5q0 -62 -27 -118t-87 -94.5t-142 -38.5q-67 0 -118.5 22t-81 59t-43.5 80t-14 90zM202 243q0 -197 104 -197q103 0 103 197t-103 197q-104 0 -104 -197zM359 544l-159 89q-33 21 -33 43
q0 36 44 36q24 0 51 -27l139 -135v-6h-42z" />
    <glyph glyph-name="oacute" unicode="&#xf3;" horiz-adv-x="611" 
d="M49 243q0 100 66 175.5t191 75.5q64 0 115 -22t80.5 -59t45 -80.5t15.5 -89.5q0 -62 -27 -118t-87 -94.5t-142 -38.5q-67 0 -118.5 22t-81 59t-43.5 80t-14 90zM202 243q0 -197 104 -197q103 0 103 197t-103 197q-104 0 -104 -197zM211 550l139 135q27 27 51 27
q44 0 44 -36q0 -22 -33 -43l-160 -89h-41v6z" />
    <glyph glyph-name="ocircumflex" unicode="&#xf4;" horiz-adv-x="611" 
d="M49 243q0 100 66 175.5t191 75.5q64 0 115 -22t80.5 -59t45 -80.5t15.5 -89.5q0 -62 -27 -118t-87 -94.5t-142 -38.5q-67 0 -118.5 22t-81 59t-43.5 80t-14 90zM202 243q0 -197 104 -197q103 0 103 197t-103 197q-104 0 -104 -197zM168 550l107 162h62l107 -162v-6h-34
l-104 102l-104 -102h-34v6z" />
    <glyph glyph-name="otilde" unicode="&#xf5;" horiz-adv-x="611" 
d="M49 243q0 100 66 175.5t191 75.5q64 0 115 -22t80.5 -59t45 -80.5t15.5 -89.5q0 -62 -27 -118t-87 -94.5t-142 -38.5q-67 0 -118.5 22t-81 59t-43.5 80t-14 90zM202 243q0 -197 104 -197q103 0 103 197t-103 197q-104 0 -104 -197zM198 571h-30q0 45 22 78t59 33
q22 0 63 -14.5t56 -14.5q21 0 33.5 11.5t12.5 32.5h30q0 -46 -20 -78t-58 -32q-21 0 -67.5 14.5t-56.5 14.5q-44 0 -44 -45z" />
    <glyph glyph-name="odieresis" unicode="&#xf6;" horiz-adv-x="611" 
d="M49 243q0 100 66 175.5t191 75.5q64 0 115 -22t80.5 -59t45 -80.5t15.5 -89.5q0 -62 -27 -118t-87 -94.5t-142 -38.5q-67 0 -118.5 22t-81 59t-43.5 80t-14 90zM202 243q0 -197 104 -197q103 0 103 197t-103 197q-104 0 -104 -197zM331 627q0 26 18.5 44.5t44.5 18.5
t44.5 -18.5t18.5 -44.5t-18.5 -44.5t-44.5 -18.5t-44.5 18.5t-18.5 44.5zM155 627q0 26 18.5 44.5t44.5 18.5t44.5 -18.5t18.5 -44.5t-18.5 -44.5t-44.5 -18.5t-44.5 18.5t-18.5 44.5z" />
    <glyph glyph-name="divide" unicode="&#xf7;" horiz-adv-x="600" 
d="M47 202v102h506v-102h-506zM216 465q0 35 25 59.5t59 24.5t59 -24.5t25 -59.5t-25 -59.5t-59 -24.5t-59 24.5t-25 59.5zM216 41q0 35 25 59.5t59 24.5t59 -24.5t25 -59.5t-25 -59.5t-59 -24.5t-59 24.5t-25 59.5z" />
    <glyph glyph-name="oslash" unicode="&#xf8;" horiz-adv-x="611" 
d="M205 181l188 186q-24 73 -87 73q-104 0 -104 -197q0 -33 3 -62zM406 305l-188 -186q23 -73 88 -73q103 0 103 197q0 35 -3 62zM46 24l56 55q-53 67 -53 164q0 100 66 175.5t191 75.5q98 0 164 -51l57 56l38 -37l-58 -57q55 -67 55 -162q0 -62 -27 -118t-87 -94.5
t-142 -38.5q-101 0 -166 50l-56 -55z" />
    <glyph glyph-name="ugrave" unicode="&#xf9;" horiz-adv-x="611" 
d="M23 432v54h206v-328q0 -100 65 -100q88 0 88 121v253h-66v54h206v-432h66v-54h-206v58h-2q-24 -33 -56.5 -49.5t-88.5 -16.5q-146 0 -146 186v254h-66zM359 544l-159 89q-33 21 -33 43q0 36 44 36q24 0 51 -27l139 -135v-6h-42z" />
    <glyph glyph-name="uacute" unicode="&#xfa;" horiz-adv-x="611" 
d="M23 432v54h206v-328q0 -100 65 -100q88 0 88 121v253h-66v54h206v-432h66v-54h-206v58h-2q-24 -33 -56.5 -49.5t-88.5 -16.5q-146 0 -146 186v254h-66zM211 550l139 135q27 27 51 27q44 0 44 -36q0 -22 -33 -43l-160 -89h-41v6z" />
    <glyph glyph-name="ucircumflex" unicode="&#xfb;" horiz-adv-x="611" 
d="M23 432v54h206v-328q0 -100 65 -100q88 0 88 121v253h-66v54h206v-432h66v-54h-206v58h-2q-24 -33 -56.5 -49.5t-88.5 -16.5q-146 0 -146 186v254h-66zM168 550l107 162h62l107 -162v-6h-34l-104 102l-104 -102h-34v6z" />
    <glyph glyph-name="udieresis" unicode="&#xfc;" horiz-adv-x="611" 
d="M23 432v54h206v-328q0 -100 65 -100q88 0 88 121v253h-66v54h206v-432h66v-54h-206v58h-2q-24 -33 -56.5 -49.5t-88.5 -16.5q-146 0 -146 186v254h-66zM331 627q0 26 18.5 44.5t44.5 18.5t44.5 -18.5t18.5 -44.5t-18.5 -44.5t-44.5 -18.5t-44.5 18.5t-18.5 44.5zM155 627
q0 26 18.5 44.5t44.5 18.5t44.5 -18.5t18.5 -44.5t-18.5 -44.5t-44.5 -18.5t-44.5 18.5t-18.5 44.5z" />
    <glyph glyph-name="yacute" unicode="&#xfd;" 
d="M119 -212v54h67l62 153l-187 437h-48v54h257v-54h-60l113 -274l114 274h-62v54h168v-54h-47l-247 -590h68v-54h-198zM243 550l139 135q27 27 51 27q44 0 44 -36q0 -22 -33 -43l-160 -89h-41v6z" />
    <glyph glyph-name="thorn" unicode="&#xfe;" horiz-adv-x="611" 
d="M23 -212v54h66v786h-66v54h206v-262h2q10 32 45.5 53t88.5 21q94 0 145.5 -71.5t51.5 -179.5t-51.5 -179.5t-145.5 -71.5q-95 0 -134 60h-2v-210h65v-54h-271zM223 250v-24q0 -91 18 -132.5t71 -41.5q97 0 97 188q0 102 -23.5 145t-71.5 43q-53 0 -72 -42.5t-19 -135.5z
" />
    <glyph glyph-name="ydieresis" unicode="&#xff;" 
d="M119 -212v54h67l62 153l-187 437h-48v54h257v-54h-60l113 -274l114 274h-62v54h168v-54h-47l-247 -590h68v-54h-198zM303 627q0 26 18.5 44.5t44.5 18.5t44.5 -18.5t18.5 -44.5t-18.5 -44.5t-44.5 -18.5t-44.5 18.5t-18.5 44.5zM127 627q0 26 18.5 44.5t44.5 18.5
t44.5 -18.5t18.5 -44.5t-18.5 -44.5t-44.5 -18.5t-44.5 18.5t-18.5 44.5z" />
    <glyph glyph-name="dotlessi" unicode="&#x131;" horiz-adv-x="334" 
d="M31 0v54h66v378h-66v54h206v-432h66v-54h-272z" />
    <glyph glyph-name="Lslash" unicode="&#x141;" horiz-adv-x="611" 
d="M40 0v60h81v205l-81 -41v76l81 42v280h-81v60h326v-60h-92v-202l159 82v-78l-159 -81v-271h237v83h72v-155h-543z" />
    <glyph glyph-name="lslash" unicode="&#x142;" horiz-adv-x="334" 
d="M31 0v54h66v239l-66 -33v72l66 33v263h-66v54h206v-247l66 33v-72l-66 -33v-309h66v-54h-272z" />
    <glyph glyph-name="OE" unicode="&#x152;" horiz-adv-x="1000" 
d="M906 72v75h66v-147h-438v58h-2q-57 -66 -166 -66q-142 0 -230 95t-88 239q0 79 22 143.5t56 104.5t78 67t86.5 38t83.5 11q98 0 158 -50h2v42h422v-145h-66v73h-203v-220h171v71h66v-202h-66v77h-171v-264h219zM534 266v181q0 82 -36.5 138.5t-104.5 56.5q-83 0 -130 -76
t-47 -240q0 -155 46.5 -220.5t113.5 -65.5q44 0 76.5 19.5t49.5 53.5t24.5 72t7.5 81z" />
    <glyph glyph-name="oe" unicode="&#x153;" horiz-adv-x="944" 
d="M200 243q0 -203 104 -203q118 0 118 203t-113 203q-52 0 -80.5 -51t-28.5 -152zM47 243q0 46 16 89.5t46.5 80t81 59t113.5 22.5q108 0 188 -63q53 63 162 63q113 0 177.5 -69.5t64.5 -200.5h-334q0 -85 36 -131.5t101 -46.5q86 0 148 81h6l44 -37q-34 -45 -90.5 -71.5
t-127.5 -26.5q-126 0 -188 57q-64 -57 -187 -57q-67 0 -118.5 22t-81 59t-43.5 80t-14 90zM562 284h194q0 27 -4.5 52.5t-14.5 51.5t-30 42t-48 16q-97 0 -97 -162z" />
    <glyph glyph-name="Scaron" unicode="&#x160;" horiz-adv-x="611" 
d="M56 0v185h66q0 -55 52.5 -100t128.5 -45q50 0 89 26t39 74q0 34 -21 59t-55 41t-74.5 31t-81.5 33t-75 41t-55 61t-21 89q0 66 33.5 112t81 64.5t105.5 18.5q109 0 165 -48l22 40h59v-180h-66q0 61 -52.5 100t-116.5 40q-54 0 -88.5 -25.5t-34.5 -60.5q0 -40 41.5 -69
t100 -50t117.5 -46.5t100.5 -71t41.5 -109.5q0 -102 -63 -160t-183 -58q-100 0 -175 48l-20 -40h-60zM444 874l-107 -162h-62l-107 162v6h34l104 -102l104 102h34v-6z" />
    <glyph glyph-name="scaron" unicode="&#x161;" horiz-adv-x="444" 
d="M44 0v144h66q0 -45 35 -73q31 -25 75 -25q36 0 57.5 16t21.5 46q0 23 -26.5 41t-64.5 33t-76 33.5t-64.5 51t-26.5 76.5q0 65 42.5 108t105.5 43q78 0 126 -48v42h60v-126h-60q0 31 -38 59q-35 25 -70 25q-27 0 -45.5 -15t-18.5 -40q0 -21 27 -38t66 -32t78 -34t66 -53.5
t27 -81.5q0 -70 -46 -115t-122 -45q-79 0 -129 54v-46h-66zM360 706l-107 -162h-62l-107 162v6h34l104 -102l104 102h34v-6z" />
    <glyph glyph-name="Ydieresis" unicode="&#x178;" horiz-adv-x="722" 
d="M217 0v60h81v195l-202 367h-72v60h329v-60h-86l159 -294l158 294h-84v60h209v-60h-60l-198 -365v-197h81v-60h-315zM386 795q0 26 18.5 44.5t44.5 18.5t44.5 -18.5t18.5 -44.5t-18.5 -44.5t-44.5 -18.5t-44.5 18.5t-18.5 44.5zM210 795q0 26 18.5 44.5t44.5 18.5
t44.5 -18.5t18.5 -44.5t-18.5 -44.5t-44.5 -18.5t-44.5 18.5t-18.5 44.5z" />
    <glyph glyph-name="Zcaron" unicode="&#x17d;" horiz-adv-x="667" 
d="M628 155v-155h-589v15q0 3 13 24l371 571h-293v-74h-66v146h565v-12l-387 -598h320v83h66zM472 874l-107 -162h-62l-107 162v6h34l104 -102l104 102h34v-6z" />
    <glyph glyph-name="zcaron" unicode="&#x17e;" horiz-adv-x="500" 
d="M35 338v148h419v-24l-260 -408h198v94h66v-148h-434q0 24 7 35l253 397h-183v-94h-66zM388 706l-107 -162h-62l-107 162v6h34l104 -102l104 102h34v-6z" />
    <glyph glyph-name="florin" unicode="&#x192;" 
d="M63 361l12 60h142l33 119q12 44 37 75.5t57.5 46.5t63 21.5t64.5 6.5q78 0 119 -33l-55 -82h-22q-11 67 -53 67q-37 0 -55 -62l-44 -159h160l-11 -60h-166l-111 -399q-26 -92 -88.5 -137t-132.5 -45q-44 0 -71 9t-55 34l69 77h26q0 -5 -2 -14t-2 -14q0 -15 9 -26.5
t25 -11.5q24 0 37.5 19t24.5 59l126 449h-137z" />
    <glyph glyph-name="circumflex" unicode="&#x2c6;" horiz-adv-x="278" 
d="M1 550l107 162h62l107 -162v-6h-34l-104 102l-104 -102h-34v6z" />
    <glyph glyph-name="caron" unicode="&#x2c7;" horiz-adv-x="278" 
d="M277 706l-107 -162h-62l-107 162v6h34l104 -102l104 102h34v-6z" />
    <glyph glyph-name="uni02C9" unicode="&#x2c9;" horiz-adv-x="278" 
d="M1 598v60h276v-60h-276z" />
    <glyph glyph-name="breve" unicode="&#x2d8;" horiz-adv-x="334" 
d="M17 714h30q13 -42 44 -69t76 -27t76 27t44 69h30q-2 -73 -40 -117.5t-110 -44.5q-73 0 -111.5 44.5t-38.5 117.5z" />
    <glyph glyph-name="dotaccent" unicode="&#x2d9;" horiz-adv-x="278" 
d="M76 627q0 26 18.5 44.5t44.5 18.5t44.5 -18.5t18.5 -44.5t-18.5 -44.5t-44.5 -18.5t-44.5 18.5t-18.5 44.5z" />
    <glyph glyph-name="ring" unicode="&#x2da;" horiz-adv-x="278" 
d="M37 628q0 42 30 72t72 30t72 -30t30 -72t-30 -72t-72 -30t-72 30t-30 72zM79 628q0 -25 17.5 -42.5t42.5 -17.5t42.5 17.5t17.5 42.5t-17.5 42.5t-42.5 17.5t-42.5 -17.5t-17.5 -42.5z" />
    <glyph glyph-name="ogonek" unicode="&#x2db;" horiz-adv-x="278" 
d="M207 -168v-36q-28 -17 -78 -17q-47 0 -85.5 20.5t-38.5 61.5q0 24 11 44.5t33 38.5t41 29.5t48 26.5h36q-73 -64 -73 -131q0 -54 51 -54q34 0 55 17z" />
    <glyph glyph-name="tilde" unicode="&#x2dc;" horiz-adv-x="278" 
d="M31 571h-30q0 45 22 78t59 33q22 0 63 -14.5t56 -14.5q21 0 33.5 11.5t12.5 32.5h30q0 -46 -20 -78t-58 -32q-21 0 -67.5 14.5t-56.5 14.5q-44 0 -44 -45z" />
    <glyph glyph-name="hungarumlaut" unicode="&#x2dd;" horiz-adv-x="278" 
d="M-51 550l139 135q27 27 51 27q44 0 44 -36q0 -22 -33 -43l-160 -89h-41v6zM141 550l139 135q27 27 51 27q44 0 44 -36q0 -22 -33 -43l-160 -89h-41v6z" />
    <glyph glyph-name="uni03A9" unicode="&#x3a9;" horiz-adv-x="728" 
d="M694 168l-27 -168h-254l-10 22q1 1 25 55.5t31 74.5t23 65.5t21.5 82t5.5 71.5q0 139 -40.5 202t-107.5 63q-69 0 -106.5 -61t-37.5 -207q0 -56 18.5 -125t36 -110t49.5 -110l-9 -23h-255l-25 168h34q16 -42 31 -54.5t48 -12.5h91q-35 26 -58 45.5t-53 54.5t-45.5 79
t-15.5 96q0 135 85 216.5t216 81.5q132 0 214 -79t82 -213q0 -38 -11.5 -74t-27 -62t-43 -56t-46 -46t-50.5 -43h103q30 0 44 12.5t29 54.5h35z" />
    <glyph glyph-name="uni03BC" unicode="&#x3bc;" horiz-adv-x="611" 
d="M23 432v54h206v-328q0 -100 65 -100q88 0 88 121v253h-66v54h206v-432h66v-54h-206v58h-2q-49 -66 -122 -66q-22 0 -40 9q1 -23 6.5 -69.5t5.5 -63.5q0 -46 -21 -70t-55 -24t-55 24t-21 70q0 23 5.5 111t5.5 130v323h-66z" />
    <glyph glyph-name="pi" unicode="&#x3c0;" horiz-adv-x="582" 
d="M529 466l29 -8q-3 -31 -15 -68t-23 -51q-19 -6 -62 -6q-6 -72 -4 -183q0 -83 38 -83q19 0 43 19l13 -28q-19 -30 -53 -50.5t-68 -20.5q-104 0 -104 133q0 91 9 215q-27 0 -65.5 1t-54.5 1v-9q0 -238 -65 -323q-36 -15 -71 -18l-8 23q48 67 70.5 157.5t22.5 171.5
q-41 1 -66 -7t-59 -29l-17 31q1 2 12 16t14.5 18t15.5 16.5t19.5 17.5t21.5 13.5t27.5 12t32 6.5t38.5 3q234 -3 270 -3q24 0 36 6.5t23 25.5z" />
    <glyph glyph-name="endash" unicode="&#x2013;" horiz-adv-x="500" 
d="M0 195v84h500v-84h-500z" />
    <glyph glyph-name="emdash" unicode="&#x2014;" horiz-adv-x="1000" 
d="M0 195v84h1000v-84h-1000z" />
    <glyph glyph-name="quoteleft" unicode="&#x2018;" horiz-adv-x="278" 
d="M190 682v-252h-156l84 252h72z" />
    <glyph glyph-name="quoteright" unicode="&#x2019;" horiz-adv-x="278" 
d="M88 430v252h156l-84 -252h-72z" />
    <glyph glyph-name="quotesinglbase" unicode="&#x201a;" horiz-adv-x="278" 
d="M80 -118v252h156l-84 -252h-72z" />
    <glyph glyph-name="quotedblleft" unicode="&#x201c;" 
d="M241 682v-252h-156l84 252h72zM433 682v-252h-156l84 252h72z" />
    <glyph glyph-name="quotedblright" unicode="&#x201d;" 
d="M315 430v252h156l-84 -252h-72zM123 430v252h156l-84 -252h-72z" />
    <glyph glyph-name="quotedblbase" unicode="&#x201e;" 
d="M315 -118v252h156l-84 -252h-72zM123 -118v252h156l-84 -252h-72z" />
    <glyph glyph-name="dagger" unicode="&#x2020;" 
d="M145 0v54h67v302h-97v-60h-54v204h54v-60h97v144h-67v54h266v-54h-67v-144h97v60h54v-204h-54v60h-97v-302h67v-54h-266z" />
    <glyph glyph-name="daggerdbl" unicode="&#x2021;" 
d="M160 0v54h55v98h-100v-36h-54v150h54v-36h100v178h-100v-36h-54v150h54v-36h100v98h-55v54h236v-54h-55v-98h100v36h54v-150h-54v36h-100v-178h100v36h54v-150h-54v36h-100v-98h55v-54h-236z" />
    <glyph glyph-name="bullet" unicode="&#x2022;" horiz-adv-x="500" 
d="M80 341q0 71 50 120.5t120 49.5q71 0 121 -50t50 -120q0 -71 -50.5 -121t-120.5 -50t-120 50t-50 121z" />
    <glyph glyph-name="ellipsis" unicode="&#x2026;" horiz-adv-x="1000" 
d="M83 76q0 34 24.5 59t59.5 25t59.5 -25t24.5 -59t-24.5 -59t-59.5 -25t-59.5 25t-24.5 59zM416 76q0 34 25 59t59 25t59 -25t25 -59t-25 -59t-59 -25t-59 25t-25 59zM749 76q0 34 24.5 59t59.5 25t59.5 -25t24.5 -59t-24.5 -59t-59.5 -25t-59.5 25t-24.5 59z" />
    <glyph glyph-name="perthousand" unicode="&#x2030;" horiz-adv-x="1000" 
d="M699 153q0 70 43.5 115.5t102.5 45.5q68 0 107 -42t39 -119q0 -70 -43.5 -115.5t-102.5 -45.5q-68 0 -107 42t-39 119zM789 153q0 -72 13.5 -101.5t42.5 -29.5q56 0 56 131q0 72 -13.5 101.5t-42.5 29.5q-56 0 -56 -131zM9 521q0 70 43.5 115.5t102.5 45.5q68 0 107 -42
t39 -119q0 -70 -43.5 -115.5t-102.5 -45.5q-68 0 -107 42t-39 119zM99 521q0 -72 13.5 -101.5t42.5 -29.5q56 0 56 131q0 72 -13.5 101.5t-42.5 29.5q-56 0 -56 -131zM366 153q0 70 43.5 115.5t102.5 45.5q68 0 107 -42t39 -119q0 -70 -43.5 -115.5t-102.5 -45.5
q-68 0 -107 42t-39 119zM456 153q0 -72 13.5 -101.5t42.5 -29.5q56 0 56 131q0 72 -13.5 101.5t-42.5 29.5q-56 0 -56 -131zM582 699l-428 -724h-62l428 724h62z" />
    <glyph glyph-name="guilsinglleft" unicode="&#x2039;" horiz-adv-x="278" 
d="M238 426l-118 -187l118 -191h-80l-118 191l118 187h80z" />
    <glyph glyph-name="guilsinglright" unicode="&#x203a;" horiz-adv-x="278" 
d="M40 48l118 186l-118 192h80l118 -192l-118 -186h-80z" />
    <glyph glyph-name="fraction" unicode="&#x2044;" horiz-adv-x="167" 
d="M-168 -36l441 746h62l-441 -746h-62z" />
    <glyph glyph-name="Euro" unicode="&#x20ac;" 
d="M527 675v-173h-59q-16 67 -36.5 93.5t-72.5 26.5q-65 -1 -91 -53t-35 -165h226l-19 -46h-208q-1 -9 -1 -26v-26h185l-19 -46h-164q6 -104 43 -161t100 -57q38 0 63.5 15t51.5 52h9l35 -34v-10q-59 -72 -193 -72q-229 0 -256 267h-69l19 46h43q-1 10 -1 28q0 16 1 24h-62
l19 46h47q16 137 76.5 207.5t182.5 70.5q65 0 112 -32l15 25h58z" />
    <glyph glyph-name="afii61289" unicode="&#x2113;" horiz-adv-x="446" 
d="M406 146l24 -23q-69 -130 -189 -130q-76 0 -115 39q-20 26 -29 55t-9 92v59l-56 -35l-14 32l70 49v134q0 100 11.5 149.5t41.5 89.5q51 64 117 64q52 0 79.5 -38.5t27.5 -98.5q0 -78 -35.5 -139.5t-112.5 -132.5v-75q0 -91 18 -128t62 -37q56 0 109 74zM217 470v-101
q75 87 75 213q0 102 -38 102q-23 0 -30 -41.5t-7 -172.5z" />
    <glyph glyph-name="trademark" unicode="&#x2122;" horiz-adv-x="1000" 
d="M89 274v30h20q32 0 32 33v315h-44q-24 0 -40 -11.5t-19 -32.5v-14h-30v88h379v-88h-30v14q-6 44 -59 44h-43v-315q0 -33 33 -33h18v-30h-217zM773 274v30h20q34 0 34 33v215h-2l-145 -278h-16l-131 278h-2v-215q0 -33 34 -33h18v-30h-135v30h18q35 0 35 33v266
q0 21 -18 35t-40 14h-16v30h157l131 -268l141 268h136v-30h-18q-15 0 -24 -9t-9 -25v-281q0 -33 32 -33h19v-30h-219z" />
    <glyph glyph-name="Omega" unicode="&#x2126;" horiz-adv-x="728" 
d="M694 168l-27 -168h-254l-10 22q1 1 25 55.5t31 74.5t23 65.5t21.5 82t5.5 71.5q0 139 -40.5 202t-107.5 63q-69 0 -106.5 -61t-37.5 -207q0 -56 18.5 -125t36 -110t49.5 -110l-9 -23h-255l-25 168h34q16 -42 31 -54.5t48 -12.5h91q-35 26 -58 45.5t-53 54.5t-45.5 79
t-15.5 96q0 135 85 216.5t216 81.5q132 0 214 -79t82 -213q0 -38 -11.5 -74t-27 -62t-43 -56t-46 -46t-50.5 -43h103q30 0 44 12.5t29 54.5h35z" />
    <glyph glyph-name="estimated" unicode="&#x212e;" horiz-adv-x="831" 
d="M798 327h-620q-5 0 -5 -4v-188q0 -11 8 -21q99 -102 234 -102q73 0 137 30.5t110 83.5h55q-52 -61 -132 -97t-171 -36q-158 0 -270 100.5t-112 242.5q0 143 112 243.5t270 100.5q159 0 271.5 -100.5t112.5 -243.5v-9zM657 351v189q0 13 -9 22q-100 98 -233 98
q-134 0 -233 -101q-9 -9 -9 -23v-185q0 -6 5 -6h475q4 0 4 6z" />
    <glyph glyph-name="partialdiff" unicode="&#x2202;" horiz-adv-x="551" 
d="M267 423h1q76 0 117 -55q9 57 12 108q4 88 -23 145q-33 61 -106 61q-66 0 -146 -67q-15 0 -32.5 35t-9.5 55q68 39 147 39q145 0 223 -140q54 -98 54 -229q0 -139 -51 -235q-73 -147 -222 -147q-87 0 -139 52.5t-52 141.5q0 98 62 165q63 71 165 71zM299 374h-1
q-53 0 -86 -53q-43 -78 -43 -201q0 -89 66 -89q48 0 92 100q32 77 48 189q-10 21 -30 37.5t-46 16.5z" />
    <glyph glyph-name="Delta" unicode="&#x2206;" horiz-adv-x="651" 
d="M617 0h-583v37l256 623l60 14l267 -637v-37zM452 63l-176 432l-172 -432h348z" />
    <glyph glyph-name="product" unicode="&#x220f;" horiz-adv-x="718" 
d="M691 673v-34q-63 -5 -77.5 -20.5t-14.5 -74.5v-490q0 -63 14.5 -79t76.5 -21v-35h-301v35q52 4 63 19t11 80v541q0 24 -6.5 30t-30.5 6h-138q-23 0 -28.5 -5t-5.5 -28v-544q0 -64 9.5 -79.5t57.5 -19.5v-35h-294v35q61 4 75.5 20.5t14.5 78.5v491q0 60 -14.5 75t-79.5 20
v34h668z" />
    <glyph glyph-name="summation" unicode="&#x2211;" horiz-adv-x="566" 
d="M543 129l-48 -218h-469v34l213 301l-209 392v35h465q2 -36 12 -176l-35 -7q-16 64 -38 103q-12 23 -32 31t-73 8h-137l160 -294l-218 -315h228q68 0 90.5 17t55.5 98z" />
    <glyph glyph-name="minus" unicode="&#x2212;" horiz-adv-x="600" 
d="M47 202v102h506v-102h-506z" />
    <glyph glyph-name="uni2215" unicode="&#x2215;" horiz-adv-x="167" 
d="M-168 -36l441 746h62l-441 -746h-62z" />
    <glyph glyph-name="uni2219" unicode="&#x2219;" horiz-adv-x="278" 
d="M55 279q0 35 24.5 59.5t59.5 24.5t59.5 -24.5t24.5 -59.5t-24.5 -59.5t-59.5 -24.5t-59.5 24.5t-24.5 59.5z" />
    <glyph glyph-name="radical" unicode="&#x221a;" horiz-adv-x="559" 
d="M549 837l-175 -998l-31 -13l-208 521l-87 -39l-13 42l188 83l139 -370h2l134 783z" />
    <glyph glyph-name="infinity" unicode="&#x221e;" horiz-adv-x="743" 
d="M698 275v-1q0 -78 -47 -124.5t-110 -46.5q-93 0 -169 106q-41 -52 -81 -79t-93 -27q-63 0 -109 46.5t-46 119.5q0 74 46.5 121t116.5 47q92 0 170 -102q46 52 69 69q46 34 101 33q64 0 108 -45t44 -117zM207 178h1q23 0 47 14.5t39 30t37 42.5q-26 36 -38 51t-36.5 31
t-52.5 16q-38 0 -60.5 -26t-23.5 -69q0 -37 25.5 -63.5t61.5 -26.5zM538 363h-1q-11 0 -22 -2.5t-22 -9.5t-18 -12t-18 -17t-15 -16.5t-15.5 -18t-12.5 -15.5q42 -55 68.5 -74.5t60.5 -19.5q35 0 56.5 28.5t21.5 61.5q0 41 -22.5 68t-60.5 27z" />
    <glyph glyph-name="integral" unicode="&#x222b;" horiz-adv-x="405" 
d="M159 -15l-21 380q-5 105 4.5 185t27.5 126.5t45 75.5t51.5 39t51.5 10q29 0 53 -15.5t24 -42.5q0 -29 -18.5 -45.5t-42.5 -16.5q-17 0 -27 16.5t-16 33t-14 16.5q-31 0 -24 -142l19 -351q13 -232 -41.5 -346t-143.5 -114q-31 0 -53.5 17.5t-22.5 42.5q-1 27 21.5 46
t48.5 19q19 0 32 -36t22 -36q32 0 24 138z" />
    <glyph glyph-name="approxequal" unicode="&#x2248;" horiz-adv-x="525" 
d="M439 439l52 -47q-25 -46 -61 -73.5t-74 -27.5q-47 0 -105 37q-49 31 -80 31q-19 0 -36.5 -11t-27 -22.5t-25.5 -33.5l-52 47q23 43 62.5 71.5t83.5 28.5q46 0 99 -33q23 -14 31.5 -19.5t22 -10t25.5 -4.5q24 0 43.5 16.5t41.5 50.5zM439 256l52 -48q-56 -100 -136 -100
q-45 0 -104 36q-52 32 -79 32q-20 0 -38 -11.5t-26.5 -22.5t-25.5 -34l-52 47q23 43 62.5 71.5t83.5 28.5q11 0 22.5 -2t18.5 -3.5t18 -6t14 -6l15 -7.5l11 -7q3 -2 18.5 -12t21 -12.5t17 -6.5t22.5 -4q25 0 43.5 16.5t41.5 51.5z" />
    <glyph glyph-name="notequal" unicode="&#x2260;" horiz-adv-x="525" 
d="M392 491l-35 -79h123v-81h-153l-53 -123h206v-81h-238l-46 -107l-63 26l35 81h-123v81h154l53 123h-207v81h237l46 105z" />
    <glyph glyph-name="lessequal" unicode="&#x2264;" horiz-adv-x="525" 
d="M478 101l-429 210v87l429 210v-92l-349 -160v-2l349 -161v-92zM481 -15h-435v82h435v-82z" />
    <glyph glyph-name="greaterequal" unicode="&#x2265;" horiz-adv-x="525" 
d="M51 608l428 -210v-87l-428 -210v92l348 161v2l-348 160v92zM479 -15h-432v82h432v-82z" />
    <glyph glyph-name="lozenge" unicode="&#x25ca;" horiz-adv-x="568" 
d="M523 321l-190 -391h-99l-189 391l192 394h97zM432 321l-146 311h-3l-147 -310l147 -313h3z" />
    </font>
</defs>
</svg>
